<?xml version="1.0" encoding="utf-8"?>
<svg width="310.50464px" height="416px" viewBox="0 0 310.50464 416" version="1.1" xmlns:xlink="http://www.w3.org/1999/xlink" xmlns="http://www.w3.org/2000/svg">
  <g id="Group-11-Copy-2-Mask-2">
    <g id="Group-11-Copy-2">
      <g id="undraw_education_f8ru">
        <path d="M308.718 341.453L308.718 411.232L44.3703 411.232C14.2514 411.232 3.40747 396.381 3.40747 377.143C3.40747 357.905 14.2514 341.453 44.3703 341.453L308.718 341.453Z" id="Shape" fill="#F2F2F2" stroke="none" />
        <path d="M310.505 413.09C310.504 414.697 308.735 416 306.554 416L42.261 416C22.9248 416 12.5535 411.741 3.40959 395.419C0.411738 388.222 0.0157214 382.366 0.0157214 375.482C0.0157214 375.482 -0.0192028 376.262 0.0150545 375.482C0.303725 368.904 0.675253 364.66 3.40959 357.206C11.8966 343.198 22.9248 336.252 42.261 336.252L306.554 336.252C307.965 336.252 309.27 336.806 309.975 337.707C310.681 338.607 310.681 339.717 309.975 340.617C309.27 341.518 307.965 342.073 306.554 342.073L42.261 342.073C16.7335 342.073 6.8016 357.319 6.80153 376.126C6.80146 394.933 16.7333 410.179 42.2608 410.179L306.554 410.179C308.736 410.18 310.504 411.482 310.505 413.09L310.505 413.09Z" id="Shape" fill="#F9EA04" stroke="none" />
        <path d="M307.136 357.538L36.4175 357.538C36.1412 357.538 35.8858 357.285 35.7477 356.874C35.6095 356.463 35.6095 355.956 35.7477 355.545C35.8858 355.133 36.1412 354.88 36.4175 354.88L307.136 354.88C307.412 354.88 307.667 355.133 307.806 355.545C307.944 355.956 307.944 356.463 307.806 356.874C307.667 357.285 307.412 357.538 307.136 357.538L307.136 357.538Z" id="Shape" fill="#CCCCCC" stroke="none" />
        <path d="M307.136 371.012L36.4175 371.012C36.1412 371.012 35.8858 370.759 35.7477 370.347C35.6095 369.936 35.6095 369.43 35.7477 369.018C35.8858 368.607 36.1412 368.354 36.4175 368.354L307.136 368.354C307.412 368.354 307.667 368.607 307.806 369.018C307.944 369.43 307.944 369.936 307.806 370.347C307.667 370.759 307.412 371.012 307.136 371.012L307.136 371.012Z" id="Shape" fill="#CCCCCC" stroke="none" />
        <path d="M307.136 384.486L36.4175 384.486C36.1412 384.486 35.8858 384.233 35.7477 383.822C35.6095 383.411 35.6095 382.904 35.7477 382.493C35.8858 382.081 36.1412 381.828 36.4175 381.828L307.136 381.828C307.412 381.828 307.667 382.081 307.806 382.493C307.944 382.904 307.944 383.411 307.806 383.822C307.667 384.233 307.412 384.486 307.136 384.486L307.136 384.486Z" id="Shape" fill="#CCCCCC" stroke="none" />
        <path d="M307.136 397.959L36.4175 397.959C36.1412 397.959 35.8858 397.706 35.7477 397.294C35.6095 396.883 35.6095 396.377 35.7477 395.965C35.8858 395.554 36.1412 395.301 36.4175 395.301L307.136 395.301C307.412 395.301 307.667 395.554 307.806 395.965C307.944 396.377 307.944 396.883 307.806 397.294C307.667 397.706 307.412 397.959 307.136 397.959L307.136 397.959Z" id="Shape" fill="#CCCCCC" stroke="none" />
        <path d="M228.96 329.585L218.835 329.584L214.019 291.289L228.964 291.291L228.96 329.585L228.96 329.585Z" id="Polygon" fill="#FFB8B8" fill-rule="evenodd" stroke="none" />
        <path d="M211.601 326.749L231.129 326.749L231.129 338.805L199.305 338.805L199.305 338.805C199.305 332.147 204.81 326.749 211.601 326.749L211.601 326.749Z" id="Shape" fill="#2F2E41" stroke="none" />
        <path d="M125.514 329.585L115.388 329.584L110.573 291.289L125.517 291.291L125.514 329.585L125.514 329.585Z" id="Polygon" fill="#FFB8B8" fill-rule="evenodd" stroke="none" />
        <path d="M108.156 326.749L127.683 326.749L127.683 338.805L95.8604 338.805L95.8604 338.805C95.8604 332.147 101.365 326.749 108.156 326.749L108.156 326.749Z" id="Shape" fill="#2F2E41" stroke="none" />
        <path d="M168.003 47.6997C168.003 35.9194 177.743 26.3695 189.757 26.3695C201.771 26.3695 211.511 35.9194 211.511 47.6997C211.511 59.48 201.771 69.0299 189.757 69.0299C177.743 69.0299 168.003 59.48 168.003 47.6997Z" id="Circle" fill="#FFB8B8" fill-rule="evenodd" stroke="none" />
        <path d="M69.5721 119.189C71.3592 117.534 73.8019 116.741 76.243 117.022C78.6841 117.303 80.8728 118.63 82.2202 120.645L100.868 117.187L105.776 127.786L79.3712 132.308C75.6869 134.347 71.029 133.363 68.529 130.016C66.029 126.669 66.4772 122.017 69.5721 119.189L69.5721 119.189Z" id="Shape" fill="#FFB8B8" stroke="none" />
        <path d="M170.939 80.6435L171.183 81.0059L140.604 100.758L89.0042 116.915C87.5938 117.359 86.6996 118.718 86.8679 120.161L87.9936 129.668C88.0946 130.519 88.5569 131.288 89.2668 131.787C89.9767 132.286 90.8684 132.469 91.7226 132.289L140.285 122.082C142.636 121.591 144.858 120.632 146.814 119.264L181.169 95.2971C183.702 93.5202 185.1 90.5711 184.852 87.5266C184.596 84.4774 182.718 81.7869 179.912 80.4483C177.106 79.1097 173.788 79.3217 171.183 81.0059L170.939 80.6435Z" id="Shape" fill="#CCCCCC" stroke="none" />
        <path d="M219.015 318.719C217.427 318.719 215.989 317.799 215.35 316.373L168.931 203.907C168.709 203.407 168.193 203.096 167.638 203.127C167.083 203.157 166.606 203.523 166.443 204.044L128.572 313.534C128.249 314.564 127.507 315.417 126.52 315.892C125.534 316.368 124.392 316.423 123.363 316.045L110.663 311.375C109.257 310.863 108.265 309.619 108.097 308.158C105.785 288.404 128.572 225.356 128.572 225.356L147.584 153.97C150.517 142.992 155.337 144.663 155.425 144.447L166.443 134.939L198.265 144.447L196.922 144.046C206.071 153.832 215.35 226.495 215.35 226.495C215.35 226.495 232.787 298.451 234.174 310.487C234.389 312.296 233.296 314.009 231.543 314.609L220.333 318.497C219.91 318.644 219.464 318.719 219.015 318.719L219.015 318.719Z" id="Shape" fill="#2F2E41" stroke="none" />
        <path d="M179.884 166.158C168.881 166.158 151.644 163.51 147.868 152.582L147.868 152.582L147.868 152.582C149.385 149.578 151.082 139.659 153.443 130.395C155.72 121.459 158.71 113.132 157.67 112.204C153.499 108.482 153.263 120.559 153.443 112.204C153.833 94.0692 162.284 81.8025 177.133 75.973L177.133 75.973C181.278 74.3722 185.496 73.0615 189.766 72.0476C195.262 70.7089 205.611 75.6274 205.611 75.6274L203.616 74.5522C203.616 74.5522 205.344 73.4096 205.611 73.6423C206.107 74.076 207.262 77.0325 207.597 77.3619C212.646 82.2938 215.602 89.6939 215.654 97.5332C215.809 116.914 216.279 145.544 203.616 164.076C203.023 164.935 199.255 163.878 198.342 164.076C192.25 165.405 186.075 166.102 179.884 166.158L179.884 166.158Z" id="Shape" fill="#CCCCCC" stroke="none" />
        <path d="M175.793 147.822C177.039 143.439 181.653 140.857 186.136 142.035C186.576 142.155 187.005 142.311 187.419 142.501L201.578 129.866L211.425 136.371L191.176 153.94C189.295 157.266 185.346 158.909 181.599 157.924C179.457 157.349 177.638 155.958 176.547 154.06C175.457 152.163 175.185 149.917 175.793 147.822L175.793 147.822Z" id="Shape" fill="#FFB8B8" stroke="none" />
        <path d="M199.333 147.984C198.414 147.984 197.523 147.673 196.812 147.102L191.228 142.628C190.285 141.872 189.747 140.735 189.765 139.541C189.784 138.347 190.359 137.227 191.325 136.501L214.745 118.889C215.322 118.452 215.434 117.641 214.996 117.069L200.541 98.3313C197.073 93.8514 197.405 87.5726 201.327 83.4683L201.327 83.4683C205.474 79.0762 212.363 78.536 217.17 82.2259L217.261 82.3204L232.355 103.513C235.664 106.056 237.57 109.97 237.507 114.092C237.445 118.215 235.421 122.071 232.037 124.517L201.705 147.217C201.018 147.715 200.187 147.984 199.333 147.984L199.333 147.984Z" id="Shape" fill="#CCCCCC" stroke="none" />
        <path d="M65.5774 78.1342C52.6378 78.0509 39.86 75.3069 28.0695 70.0794C26.6354 69.4527 25.7141 68.0547 25.7207 66.5152L25.7207 34.8878C25.7233 32.7303 27.5063 30.9821 29.7066 30.9797L101.448 30.9797C103.649 30.9822 105.432 32.7304 105.434 34.8878L105.434 66.5153C105.441 68.0547 104.519 69.4527 103.085 70.0794L103.085 70.0794C91.2947 75.3069 78.5169 78.0509 65.5773 78.1342L65.5774 78.1342Z" id="Shape" fill="#F9EA04" stroke="none" />
        <path d="M65.5678 52.512C65.036 52.5124 64.5094 52.4086 64.0191 52.2067L7.12871 28.6718C5.62771 28.051 4.66322 26.5968 4.69306 24.9997C4.72293 23.4026 5.7411 21.9841 7.26429 21.4176L64.1554 0.255288C65.0717 -0.0871334 66.0848 -0.0850132 66.9996 0.261225L123.128 21.4235C124.643 21.9945 125.653 23.4085 125.683 24.999C125.713 26.5895 124.757 28.0392 123.265 28.6646L67.1355 52.199C66.6398 52.406 66.1066 52.5125 65.5679 52.512L65.5678 52.512Z" id="Shape" fill="#F9EA04" stroke="none" />
        <path d="M27.0488 67.021C27.0488 64.1432 29.4281 61.8103 32.363 61.8103C35.298 61.8103 37.6773 64.1432 37.6773 67.021C37.6773 69.8989 35.298 72.2318 32.363 72.2318C29.4281 72.2318 27.0488 69.8989 27.0488 67.021Z" id="Circle" fill="#3F3D56" fill-rule="evenodd" stroke="none" />
        <path d="M123.46 25.324L67.3303 48.8584C66.4461 49.2291 65.4463 49.2315 64.5603 48.865L7.66989 25.3309C6.95542 25.0424 6.35936 24.5286 5.9759 23.8709C5.46842 24.7337 5.36338 25.7687 5.68749 26.7126C6.01158 27.6565 6.73359 28.4185 7.66989 28.8047L64.5603 52.3388C65.4463 52.7053 66.4461 52.703 67.3303 52.3323L123.46 28.7978C124.391 28.4082 125.108 27.6462 125.429 26.7043C125.75 25.7625 125.644 24.7311 125.138 23.8708C124.757 24.5233 124.167 25.0342 123.46 25.324L123.46 25.324Z" id="Shape" fill="#000000" fill-opacity="0.2" stroke="none" />
        <path d="M32.8098 67.0006C33.2989 67.0006 33.6955 66.6117 33.6955 66.1321L33.6955 37.0723L62.907 26.6377C63.3962 26.6448 63.7986 26.2618 63.8059 25.7821C63.8132 25.3025 63.4225 24.9079 62.9334 24.9008L33.7219 35.3354C33.2468 35.3247 32.788 35.5052 32.4523 35.8349C32.1132 36.1606 31.9226 36.6068 31.9241 37.0723L31.9241 66.1321C31.9241 66.6117 32.3206 67.0005 32.8098 67.0006L32.8098 67.0006Z" id="Shape" fill="#3F3D56" stroke="none" />
        <path d="M176.672 76.3729L178.366 70.7319C178.366 70.7319 190.336 69.2754 197.113 70.0033C203.89 70.7311 205.475 73.6433 205.475 73.6433L206.404 79.6483L176.672 79.6483L176.672 76.3729Z" id="Rectangle" fill="#9E9E9E" fill-rule="evenodd" stroke="none" />
      </g>
      <path d="M179.176 19.9272C178.641 20.3543 178.001 20.6522 177.312 20.7943C176.593 20.9133 175.904 20.4712 175.771 19.8046C175.264 20.7796 174.692 21.8188 173.657 22.3191C172.622 22.8194 171.021 22.3999 170.872 21.3263C170.721 22.1414 170.332 22.9027 169.747 23.5275C169.105 24.0953 167.94 24.2386 167.379 23.6008C167.833 25.8981 167.553 28.2607 167.695 30.5924C167.838 32.9242 168.508 35.3961 170.408 36.9294C173.179 39.1655 177.345 38.6136 180.99 38.19C181.541 38.0827 182.113 38.1117 182.649 38.2741C184.013 38.8132 183.951 40.5747 183.97 41.9501C184.2 46.9333 188.277 51.0338 193.615 51.6495C195.062 51.8565 196.538 51.5225 197.719 50.7208C198.754 49.9075 199.283 48.5818 200.469 47.9709C202.398 46.977 204.737 48.4264 206.147 50.0002C207.557 51.5739 208.947 53.5097 211.132 53.7978C214.022 54.1788 216.222 51.4484 217.302 48.9343C220.311 41.8156 220.092 33.8715 216.694 26.9047C210.661 14.7103 190.052 12.7815 179.176 19.9272L179.176 19.9272Z" id="Shape-Copy" fill="#44310A" stroke="none" />
      <path d="M178.53 75.4611C178.53 75.4611 186.66 71.8218 193.396 71.8218C200.132 71.8218 205.475 75.4611 205.475 75.4611L178.53 135.511L178.53 135.511L178.53 75.4611Z" id="Rectangle-11" fill="#F9EA04" fill-rule="evenodd" stroke="none" />
      <path d="M204.545 77.2787C204.545 77.2787 204.313 72.7326 205.475 73.6425C206.636 74.5523 209.191 80.9181 209.191 80.9181L180.388 135.509L178.53 135.509L204.545 77.2787Z" id="Rectangle-12" fill="#9E9E9E" fill-rule="evenodd" stroke="none" />
      <path d="M178.583 78.9234L178.582 77.0578C178.546 76.1007 179.383 75.0642 178.582 75.284C177.15 75.6772 173.85 80.0914 173.85 80.0914L177.664 135.518L180.452 135.518L178.583 78.9234Z" id="Rectangle-12-Copy" fill="#9E9E9E" fill-rule="evenodd" stroke="none" />
    </g>
  </g>
</svg>