<?xml version="1.0" encoding="utf-8"?>
<svg width="338.8567px" height="232.68286px" viewBox="0 0 338.8567 232.68286" version="1.1" xmlns:xlink="http://www.w3.org/1999/xlink" xmlns="http://www.w3.org/2000/svg">
  <g id="undraw_maintenance_re_59vn">
    <path d="M1.01087 229.429C0.361821 224.694 -0.305971 219.898 0.150396 215.112C0.554824 210.862 1.84985 206.711 4.48631 203.307C5.88573 201.503 7.58858 199.958 9.51829 198.741C10.0214 198.423 10.4845 199.221 9.98356 199.538C6.64456 201.651 4.06192 204.771 2.608 208.448C1.00227 212.537 0.744439 216.995 1.02103 221.34C1.1882 223.967 1.54347 226.576 1.90025 229.183C1.9587 229.428 1.81794 229.676 1.57819 229.751C1.33288 229.817 1.08007 229.673 1.01119 229.428L1.01087 229.429Z" id="acbbaa8b-0bc2-4bc9-96d7-93dd88f90f19-523" fill="#F2F2F2" stroke="none" />
    <path d="M313.29 220.171C311.442 221.829 308.864 222.401 306.489 221.681C303.496 220.734 301.53 217.949 299.787 215.337L294.632 207.611L299.139 208.576C302.38 209.269 305.701 209.995 308.489 211.791C311.276 213.588 313.46 216.709 313.183 220.017" id="ec83fa9a-7bb4-4b90-a90b-e1cec4444963-526" fill="#E6E6E6" stroke="none" />
    <path d="M316.947 231.813C315.339 225.661 313.406 218.785 307.646 215.226C306.045 214.239 304.269 213.567 302.416 213.247C301.831 213.145 301.741 214.064 302.324 214.166C305.428 214.717 308.246 216.322 310.306 218.711C312.291 221.001 313.57 223.793 314.522 226.647C315.106 228.395 315.571 230.179 316.037 231.961C316.185 232.531 317.098 232.389 316.947 231.813L316.947 231.813Z" id="e32935a9-e392-46b4-9a67-68c65f1cc9fa-527" fill="#F2F2F2" stroke="none" />
    <path d="M253.623 141.722L148.268 141.722C146.517 141.72 145.097 140.298 145.095 138.544L145.095 102.956C145.097 101.201 146.517 99.7801 148.268 99.7781L253.623 99.7781C255.375 99.7801 256.795 101.202 256.797 102.956L256.797 138.544C256.795 140.299 255.375 141.72 253.623 141.722L253.623 141.722Z" id="Shape" fill="#F1F1F1" stroke="none" />
    <path d="M161.596 109.311L189.522 109.311L189.522 112.488L161.596 112.488L161.596 109.311Z" id="Rectangle" fill="#F9EA04" fill-rule="evenodd" stroke="none" />
    <path d="M224.429 111.217C224.429 110.164 225.281 109.311 226.333 109.311C227.384 109.311 228.237 110.164 228.237 111.217C228.237 112.27 227.384 113.124 226.333 113.124C225.281 113.124 224.429 112.27 224.429 111.217Z" id="Circle" fill="#F9EA04" fill-rule="evenodd" stroke="none" />
    <path d="M230.775 111.217C230.775 110.164 231.628 109.311 232.679 109.311C233.731 109.311 234.583 110.164 234.583 111.217C234.583 112.27 233.731 113.124 232.679 113.124C231.628 113.124 230.775 112.27 230.775 111.217Z" id="Circle" fill="#F9EA04" fill-rule="evenodd" stroke="none" />
    <path d="M237.122 111.217C237.122 110.164 237.974 109.311 239.026 109.311C240.077 109.311 240.93 110.164 240.93 111.217C240.93 112.27 240.077 113.124 239.026 113.124C237.974 113.124 237.122 112.27 237.122 111.217Z" id="Circle" fill="#F9EA04" fill-rule="evenodd" stroke="none" />
    <path d="M253.623 186.843L148.268 186.843C146.517 186.841 145.097 185.42 145.095 183.666L145.095 148.077C145.097 146.323 146.517 144.901 148.268 144.899L253.623 144.899C255.375 144.901 256.795 146.323 256.797 148.077L256.797 183.666C256.795 185.42 255.375 186.841 253.623 186.843L253.623 186.843Z" id="Shape" fill="#F1F1F1" stroke="none" />
    <path d="M161.596 154.432L189.522 154.432L189.522 157.61L161.596 157.61L161.596 154.432Z" id="Rectangle" fill="#F9EA04" fill-rule="evenodd" stroke="none" />
    <path d="M224.429 156.339C224.429 155.286 225.281 154.432 226.333 154.432C227.384 154.432 228.237 155.286 228.237 156.339C228.237 157.392 227.384 158.245 226.333 158.245C225.281 158.245 224.429 157.392 224.429 156.339Z" id="Circle" fill="#F9EA04" fill-rule="evenodd" stroke="none" />
    <path d="M230.775 156.339C230.775 155.286 231.628 154.432 232.679 154.432C233.731 154.432 234.583 155.286 234.583 156.339C234.583 157.392 233.731 158.245 232.679 158.245C231.628 158.245 230.775 157.392 230.775 156.339Z" id="Circle" fill="#F9EA04" fill-rule="evenodd" stroke="none" />
    <path d="M237.122 156.339C237.122 155.286 237.974 154.432 239.026 154.432C240.077 154.432 240.93 155.286 240.93 156.339C240.93 157.392 240.077 158.245 239.026 158.245C237.974 158.245 237.122 157.392 237.122 156.339Z" id="Circle" fill="#F9EA04" fill-rule="evenodd" stroke="none" />
    <path d="M253.623 231.965L148.268 231.965C146.517 231.963 145.097 230.541 145.095 228.787L145.095 193.199C145.097 191.444 146.517 190.023 148.268 190.021L253.623 190.021C255.375 190.023 256.795 191.444 256.797 193.199L256.797 228.787C256.795 230.542 255.375 231.963 253.623 231.965L253.623 231.965Z" id="Shape" fill="#F1F1F1" stroke="none" />
    <path d="M161.596 199.554L189.522 199.554L189.522 202.732L161.596 202.732L161.596 199.554Z" id="Rectangle" fill="#F9EA04" fill-rule="evenodd" stroke="none" />
    <path d="M224.429 201.461C224.429 200.408 225.281 199.554 226.333 199.554C227.384 199.554 228.237 200.408 228.237 201.461C228.237 202.514 227.384 203.367 226.333 203.367C225.281 203.367 224.429 202.514 224.429 201.461Z" id="Circle" fill="#F9EA04" fill-rule="evenodd" stroke="none" />
    <path d="M230.775 201.461C230.775 200.408 231.628 199.554 232.679 199.554C233.731 199.554 234.583 200.408 234.583 201.461C234.583 202.514 233.731 203.367 232.679 203.367C231.628 203.367 230.775 202.514 230.775 201.461Z" id="Circle" fill="#F9EA04" fill-rule="evenodd" stroke="none" />
    <path d="M237.122 201.461C237.122 200.408 237.974 199.554 239.026 199.554C240.077 199.554 240.93 200.408 240.93 201.461C240.93 202.514 240.077 203.367 239.026 203.367C237.974 203.367 237.122 202.514 237.122 201.461Z" id="Circle" fill="#F9EA04" fill-rule="evenodd" stroke="none" />
    <path d="M213.906 65.0261L213.789 64.9399L213.786 64.9378C213.154 64.4678 212.261 64.5998 211.792 65.2327L188.078 97.2039L185.469 97.2039L185.469 96.5902C185.469 96.2749 185.214 96.0192 184.899 96.0192L183.342 96.0192C183.027 96.0192 182.772 96.2748 182.772 96.5902L182.772 97.2039L181.871 97.2039L181.871 96.5902C181.871 96.2749 181.616 96.0192 181.301 96.0192L179.744 96.0192C179.429 96.0192 179.174 96.2748 179.174 96.5902L179.174 97.2039L178.276 97.2039L178.276 96.5902C178.276 96.2747 178.021 96.0191 177.706 96.0192L176.149 96.0192C175.835 96.0192 175.579 96.2748 175.579 96.5902L175.579 97.2039L174.678 97.2039L174.678 96.5902C174.678 96.2749 174.423 96.0192 174.108 96.0192L172.551 96.0192C172.237 96.0192 171.981 96.2748 171.981 96.5902L171.981 97.2039L171.083 97.2039L171.083 96.5902C171.083 96.2747 170.828 96.0191 170.513 96.0192L168.957 96.0192C168.805 96.0192 168.66 96.0794 168.553 96.1864C168.446 96.2935 168.386 96.4387 168.386 96.5902L168.386 97.2039L167.485 97.2039L167.485 96.5902C167.485 96.2749 167.23 96.0192 166.915 96.0192L165.359 96.0192C165.044 96.0192 164.788 96.2748 164.788 96.5902L164.788 97.2039L163.888 97.2039L163.888 96.5902C163.888 96.2749 163.632 96.0192 163.317 96.0192L161.761 96.0192C161.446 96.0192 161.191 96.2748 161.191 96.5902L161.191 97.2039L160.293 97.2039L160.293 96.5902C160.293 96.2749 160.037 96.0192 159.722 96.0192L158.166 96.0192C157.851 96.0192 157.596 96.2748 157.596 96.5902L157.596 97.2039L156.695 97.2039L156.695 96.5902C156.695 96.2749 156.439 96.0192 156.125 96.0192L154.568 96.0192C154.253 96.0192 153.998 96.2748 153.998 96.5902L153.998 97.2039L153.1 97.2039L153.1 96.5902C153.1 96.2749 152.844 96.0192 152.53 96.0192L150.973 96.0192C150.658 96.0192 150.403 96.2748 150.403 96.5902L150.403 97.2039L149.274 97.2039C148.896 97.2039 148.533 97.3543 148.266 97.622C147.999 97.8897 147.848 98.2527 147.848 98.6313L147.848 99.993C147.848 100.372 147.999 100.735 148.266 101.002C148.533 101.27 148.896 101.42 149.274 101.42L187.841 101.42C188.848 101.42 189.717 100.712 189.921 99.7251L189.936 99.7361L214.198 67.0258L214.2 67.023C214.669 66.3901 214.538 65.4961 213.906 65.0261L213.906 65.0261Z" id="Shape" fill="#3F3D56" stroke="none" />
    <path d="M64.0352 219.841L68.8257 222.296L80.5612 204.962L73.4911 201.339L64.0352 219.841L64.0352 219.841Z" id="Polygon" fill="#FFB7B7" fill-rule="evenodd" stroke="none" />
    <path d="M63.6136 217.649L73.048 222.484L73.0484 222.484C76.3686 224.186 77.6827 228.26 75.9836 231.585L75.8836 231.781L60.4368 223.865L63.6136 217.649Z" id="Shape" fill="#2F2E41" stroke="none" />
    <path d="M119.364 226.558L124.745 226.558L127.305 205.773L119.363 205.773L119.364 226.558L119.364 226.558Z" id="Polygon" fill="#FFB7B7" fill-rule="evenodd" stroke="none" />
    <path d="M117.991 224.798L128.589 224.798L128.589 224.798C132.319 224.798 135.343 227.826 135.343 231.561L135.343 231.78L117.991 231.781L117.991 224.798Z" id="Shape" fill="#2F2E41" stroke="none" />
    <path d="M94.1917 57.0227C94.1917 57.0227 90.588 54.2581 90.588 61.011L90.019 83.3265L96.3729 104.408L100.071 97.5704L98.554 82.7567L94.1917 57.0227Z" id="Shape" fill="#2F2E41" stroke="none" />
    <path d="M132.74 118.059C132.74 118.059 136.919 138.437 131.626 155.161L128.701 219.46L117.975 218.624L114.214 170.922L110.593 147.21L103.071 168.83L78.2764 214.579L66.8542 205.652C66.8542 205.652 79.5118 171.069 88.8627 163.808L93.5525 110.323L132.74 118.059Z" id="Shape" fill="#2F2E41" stroke="none" />
    <path d="M114.161 28.2764C108.234 25.0324 106.056 17.5919 109.296 11.6575C112.536 5.72312 119.966 3.54216 125.893 6.78617C131.819 10.0302 133.997 17.4707 130.758 23.4051C127.518 29.3395 120.087 31.5205 114.161 28.2764Z" id="Circle" fill="#FFB7B7" fill-rule="evenodd" stroke="none" />
    <path d="M119.161 20.1288C120.627 20.3198 121.733 18.8178 122.246 17.4294C122.759 16.041 123.15 14.4246 124.424 13.6747C126.166 12.65 128.394 13.8824 130.385 13.5443C132.634 13.1626 134.096 10.7761 134.211 8.49497C134.325 6.21388 133.419 4.01996 132.529 1.91681L132.219 4.53054C132.303 2.72917 131.446 1.01332 129.957 0L130.357 3.83523C130.185 2.76655 129.595 1.81049 128.717 1.17843C127.84 0.546369 126.747 0.290364 125.68 0.46701L125.743 2.7522C123.146 2.44293 120.526 2.13322 117.921 2.36884C115.315 2.60445 112.692 3.42979 110.718 5.14774C107.764 7.71753 106.686 11.949 107.048 15.8501C107.41 19.7512 109.018 23.416 110.694 26.9562C111.116 27.8469 111.699 28.852 112.677 28.9655C113.556 29.0675 114.36 28.332 114.633 27.4896C114.843 26.6252 114.835 25.7219 114.609 24.8615C114.362 23.5466 114.05 22.2026 114.283 20.885C114.515 19.5674 115.462 18.2653 116.788 18.1038C118.115 17.9424 119.472 19.4606 118.834 20.6364L119.161 20.1288Z" id="Shape" fill="#2F2E41" stroke="none" />
    <path d="M133.497 123.509L92.6746 120.871L95.7472 108.125L133.058 116.476L133.497 123.509L133.497 123.509Z" id="Polygon" fill="#CBCBCB" fill-rule="evenodd" stroke="none" />
    <path d="M108.322 34.2322L110.882 30.6726C110.882 30.6726 113.744 31.6465 121.409 35.4667L121.95 38.8017L135.254 120.74L111.072 119.696L104.487 119.556L102.331 114.718L99.674 119.453L93.2432 119.316L86.6997 115.518L93.1484 95.766L95.2347 77.7237L92.0104 60.7259C92.0104 60.7259 87.953 45.1172 103.58 36.7012L108.322 34.2322Z" id="Shape" fill="#2F2E41" stroke="none" />
    <path d="M162.827 96.2602C161.629 96.5652 160.356 96.3229 159.353 95.5984C158.35 94.8738 157.719 93.7416 157.629 92.5062L143.282 88.6583L149.054 83.5269L161.793 87.9677C163.923 87.9547 165.725 89.5383 165.989 91.654C166.253 93.7697 164.894 95.7485 162.827 96.2602L162.827 96.2602Z" id="Shape" fill="#FFB7B7" stroke="none" />
    <path d="M156.402 94.0878C155.792 94.4205 155.069 94.4779 154.414 94.2457L130.813 85.2761C125.055 83.2323 120.234 79.164 117.248 73.8277L107.406 56.2473C105.525 54.1456 104.909 51.1983 105.79 48.5179C106.671 45.8375 108.914 43.8323 111.674 43.2593C114.433 42.6863 117.288 43.6327 119.16 45.7413L136.196 72.7779L157.634 85.3637C158.495 85.9292 158.912 86.9726 158.678 87.9764L157.612 92.5C157.497 92.9851 157.238 93.4237 156.868 93.7574C156.726 93.8855 156.57 93.9965 156.402 94.0878L156.402 94.0878Z" id="Shape" fill="#2F2E41" stroke="none" />
    <path d="M338.514 232.683L15.6395 232.683C15.5172 232.683 15.4042 232.607 15.343 232.483C15.2818 232.36 15.2818 232.208 15.343 232.084C15.4042 231.961 15.5172 231.885 15.6395 231.885L338.514 231.885C338.637 231.885 338.75 231.961 338.811 232.084C338.872 232.208 338.872 232.36 338.811 232.483C338.75 232.607 338.637 232.683 338.514 232.683L338.514 232.683Z" id="Shape" fill="#CBCBCB" stroke="none" />
  </g>
</svg>