<?xml version="1.0" encoding="utf-8"?>
<svg width="283.71387px" height="341.74634px" viewBox="0 0 283.71387 341.74634" version="1.1" xmlns:xlink="http://www.w3.org/1999/xlink" xmlns="http://www.w3.org/2000/svg">

  <g id="undraw_certificate_re_yadi">
    <path d="M0 0L283.714 0L283.714 341.746L0 341.746L0 0Z" id="Background" fill="none" fill-rule="evenodd" stroke="none" />
    <g clip-path="url(#mask_1)">
      <path d="M2.02845 163.452C4.13875 166.976 7.70171 169.384 11.7586 170.029C15.8155 170.673 19.9496 169.488 23.0485 166.792L65.8366 191.329L64.2419 165.75L23.8541 146.371C18.8697 141.356 10.9215 140.861 5.35323 145.219C-0.215088 149.577 -1.64346 157.41 2.02844 163.452L2.02845 163.452Z" id="Shape" fill="#FFB8B8" stroke="none" />
      <path d="M125.904 261.746C113.211 279.508 113.665 309.224 117.207 341.747L177.217 341.747L179.826 335.66L183.305 341.747L210.597 341.747L239.836 341.747C239.836 341.747 235.487 259.137 227.66 256.529C219.832 253.92 125.904 261.746 125.904 261.746L125.904 261.746Z" id="Shape" fill="#2F2E41" stroke="none" />
      <path d="M146.778 45.7382C146.778 28.9294 160.407 15.3032 177.218 15.3032C194.03 15.3032 207.658 28.9294 207.658 45.7382C207.658 62.5469 194.03 76.1731 177.218 76.1731C160.407 76.1731 146.778 62.5469 146.778 45.7382Z" id="Circle" fill="#FFB8B8" fill-rule="evenodd" stroke="none" />
      <path d="M199.217 84.0691L205.17 95.4766L246.342 113.828L235.52 218.546L230.964 229.39L233.426 238.807L227.492 245.757C233.448 251.145 234.204 256.786 230.964 262.62L212.004 266.963C212.004 266.963 106.582 276.336 115.467 260.006C125.174 242.164 127.646 189.471 106.216 161.313C88.0217 137.408 101.99 106.388 101.99 106.388L145.147 93.4926L161.021 84.0691L199.217 84.0691Z" id="Shape" fill="#3F3D56" stroke="none" />
      <path d="M190.731 1.15569C191.024 0.536631 191.663 0.157297 192.347 0.197101C178.411 -0.63637 163.732 0.987642 152.073 8.66604C149.249 10.5263 146.586 12.7451 143.512 14.0945C143.217 14.2271 143.013 14.5046 142.974 14.8257C142.936 15.1468 143.068 15.4647 143.324 15.6633L143.661 15.928C143.933 16.1409 144.063 16.487 144 16.8261C143.937 17.1653 143.69 17.441 143.36 17.5416L143.36 17.5416C143.015 17.6466 142.763 17.942 142.713 18.2987C142.663 18.6554 142.825 19.0087 143.127 19.2042L145.714 20.876C145.979 21.0441 146.14 21.3352 146.142 21.6488C146.144 21.9624 145.986 22.2553 145.723 22.4263C145.504 22.5616 145.274 22.6783 145.035 22.775C144.733 22.8885 144.512 23.1513 144.452 23.4683C144.392 23.7853 144.502 24.1106 144.742 24.3262C145.863 25.3234 146.722 26.5794 147.245 27.9848C148.108 30.2265 148.262 32.6679 148.408 35.0653C149.299 31.6062 153.075 29.57 156.642 29.3631C160.208 29.1562 163.686 30.3328 167.157 31.1786C174.717 33.0154 182.569 33.3174 190.248 32.0667C187.64 37.2986 189.84 43.5392 192.053 48.9496L199.218 45.8793C209.057 40.3259 202.204 63.8176 198.525 67.0426C206.036 69.6462 225.695 40.7491 219.371 29.7877C216.081 24.0858 218.416 16.7316 211.948 11.3237C208.778 7.98724 202.449 9.4702 199.218 6.69717C197.946 5.60574 199.885 2.68581 198.137 2.04945C197.556 1.83808 190.827 0.942661 190.731 1.15569L190.731 1.15569Z" id="Shape" fill="#2F2E41" stroke="none" />
      <path d="M139.17 96.4387C133.585 121.233 119.258 179.123 104.724 191.23C103.802 192.1 102.697 192.752 101.49 193.139C50.4011 205.583 34.0313 173.841 34.0313 173.841C34.0313 173.841 47.7224 167.17 48.0696 154.131L75.68 162.696L99.7486 108.541L103.29 105.237L103.31 105.218L139.17 96.4387Z" id="Shape" fill="#3F3D56" stroke="none" />
      <path d="M248.1 325.397C251.062 322.551 252.61 318.539 252.329 314.442C252.048 310.344 249.966 306.582 246.643 304.167L260.965 256.973L236.391 264.262L226.558 307.961C222.787 313.942 224.087 321.797 229.583 326.246C235.079 330.695 243.034 330.33 248.1 325.397L248.1 325.397Z" id="Shape" fill="#FFB8B8" stroke="none" />
      <path d="M234.992 111.188L246.343 113.828C246.343 113.828 293.262 205.102 281.956 222.493C270.65 239.884 256.799 297.463 256.799 297.463C256.799 297.463 236.313 293.391 228.485 282.956L242.819 214.667L228.034 157.275L234.992 111.188Z" id="Shape" fill="#3F3D56" stroke="none" />
      <path d="M19.6333 246.726L20.0409 99.7239C20.065 93.5291 25.1 88.5226 31.296 88.5327L142.333 88.8405C148.529 88.8647 153.536 93.8989 153.526 100.094L153.118 247.096C153.094 253.29 148.059 258.297 141.863 258.287L30.8263 257.979C24.6303 257.955 19.6231 252.921 19.6333 246.726L19.6333 246.726Z" id="Shape" fill="#E6E6E6" stroke="none" />
      <path d="M28.275 202.349L28.537 107.843C28.5596 102.041 33.2752 97.3526 39.078 97.3623L134.505 97.6268C140.307 97.6493 144.997 102.364 144.988 108.166L144.625 238.977C144.602 244.779 139.887 249.468 134.084 249.458L74.9687 249.295C49.1211 249.194 28.2326 228.193 28.275 202.349L28.275 202.349Z" id="Shape" fill="#FFFFFF" stroke="none" />
      <path d="M123.57 138.875L49.1613 138.875C47.5663 138.875 46.0924 138.024 45.2949 136.643C44.4974 135.262 44.4974 133.56 45.2949 132.179C46.0924 130.798 47.5663 129.947 49.1613 129.947L123.57 129.947C125.165 129.947 126.638 130.798 127.436 132.179C128.233 133.56 128.233 135.262 127.436 136.643C126.638 138.024 125.165 138.875 123.57 138.875L123.57 138.875Z" id="Shape" fill="#F9EA04" stroke="none" />
      <path d="M65.5311 118.292L49.1613 118.292C47.5663 118.292 46.0924 117.442 45.2949 116.06C44.4974 114.679 44.4974 112.978 45.2949 111.597C46.0924 110.216 47.5663 109.365 49.1613 109.365L65.5311 109.365C67.1261 109.365 68.6 110.216 69.3975 111.597C70.195 112.978 70.195 114.679 69.3975 116.06C68.6 117.442 67.1261 118.292 65.5311 118.292L65.5311 118.292Z" id="Shape" fill="#F9EA04" stroke="none" />
      <path d="M123.57 159.457L49.1613 159.457C47.5663 159.457 46.0924 158.607 45.2949 157.225C44.4974 155.844 44.4974 154.143 45.2949 152.762C46.0924 151.381 47.5663 150.53 49.1613 150.53L123.57 150.53C125.165 150.53 126.638 151.381 127.436 152.762C128.233 154.143 128.233 155.844 127.436 157.225C126.638 158.607 125.165 159.457 123.57 159.457L123.57 159.457Z" id="Shape" fill="#F9EA04" stroke="none" />
      <path d="M123.57 180.04L49.1613 180.04C47.5663 180.04 46.0924 179.19 45.2949 177.808C44.4974 176.427 44.4974 174.726 45.2949 173.345C46.0924 171.964 47.5663 171.113 49.1613 171.113L123.57 171.113C125.165 171.113 126.638 171.964 127.436 173.345C128.233 174.726 128.233 176.427 127.436 177.808C126.638 179.19 125.165 180.04 123.57 180.04L123.57 180.04Z" id="Shape" fill="#F9EA04" stroke="none" />
      <path d="M99.7842 216.514C99.7842 206.705 107.738 198.753 117.548 198.753C127.359 198.753 135.313 206.705 135.313 216.514C135.313 226.324 127.359 234.276 117.548 234.276C107.738 234.276 99.7842 226.324 99.7842 216.514Z" id="Circle" fill="#F9EA04" fill-rule="evenodd" stroke="none" />
      <path d="M115.125 225.759C114.503 225.759 113.917 225.466 113.544 224.969L108.698 218.508C108.043 217.635 108.22 216.397 109.093 215.742C109.966 215.087 111.204 215.264 111.859 216.136L115.03 220.364L123.174 208.151C123.565 207.562 124.241 207.227 124.946 207.273C125.651 207.318 126.278 207.736 126.591 208.369C126.904 209.003 126.855 209.755 126.462 210.343L116.769 224.879C116.414 225.413 115.821 225.741 115.18 225.759C115.162 225.759 115.143 225.759 115.125 225.759L115.125 225.759Z" id="Shape" fill="#FFFFFF" stroke="none" />
      <path d="M71.2344 45.8793C71.2344 41.2227 75.0099 37.4478 79.6673 37.4478C84.3247 37.4478 88.1003 41.2227 88.1003 45.8793C88.1003 50.536 84.3247 54.3109 79.6673 54.3109C75.0099 54.3109 71.2344 50.536 71.2344 45.8793Z" id="Circle" fill="#F2F2F2" fill-rule="evenodd" stroke="none" />
      <path d="M40.479 288.412C40.479 283.755 44.2546 279.98 48.9119 279.98C53.5693 279.98 57.3449 283.755 57.3449 288.412C57.3449 293.068 53.5693 296.843 48.9119 296.843C44.2546 296.843 40.479 293.068 40.479 288.412Z" id="Circle" fill="#F2F2F2" fill-rule="evenodd" stroke="none" />
      <path d="M234.437 78.614C234.437 73.9573 238.213 70.1824 242.87 70.1824C247.527 70.1824 251.303 73.9573 251.303 78.614C251.303 83.2706 247.527 87.0456 242.87 87.0456C238.213 87.0456 234.437 83.2706 234.437 78.614Z" id="Circle" fill="#F2F2F2" fill-rule="evenodd" stroke="none" />
    </g>
  </g>
</svg>