<?xml version="1.0" encoding="utf-8"?>
<svg width="456.63525px" height="521.5613px" viewBox="0 0 456.63525 521.5613" version="1.1" xmlns:xlink="http://www.w3.org/1999/xlink" xmlns="http://www.w3.org/2000/svg">
  <defs>
    <path d="M0 0L456.635 0L456.635 521.561L0 521.561L0 0Z" id="path_1" />
    <clipPath id="mask_1">
      <use xlink:href="#path_1" />
    </clipPath>
  </defs>
  <g id="undraw_welcoming_re_x0qo">
    <path d="M0 0L456.635 0L456.635 521.561L0 521.561L0 0Z" id="Background" fill="none" fill-rule="evenodd" stroke="none" />
    <g clip-path="url(#mask_1)">
      <path d="M219.136 489.289L218.554 476.203C218.493 476.171 218.433 476.139 218.372 476.107C212.136 472.835 204.989 478.759 206.981 485.513C208.855 491.869 210.114 498.72 213.545 504.283C217.65 510.828 224.51 515.151 232.185 516.03L240.108 520.881C242.308 508.616 239.027 496.002 231.13 486.364C228.914 483.713 226.374 481.353 223.568 479.337C221.671 484.341 219.136 489.289 219.136 489.289L219.136 489.289Z" id="Shape" fill="#F2F2F2" stroke="none" />
      <path d="M148.204 356.495C132.951 340.765 110.847 331.743 87.56 331.743L86.6618 331.745C71.3233 331.751 56.2585 327.683 43.0082 319.957L41.6294 319.153L42.74 318.009C48.7522 311.789 53.7724 304.681 57.6247 296.935C52.0858 302.099 44.5397 304.537 37.0265 303.589C29.0883 302.643 22.0199 298.116 17.8408 291.301C9.70182 278.095 0 259.357 0 245.082C0.0252647 220.687 10.3092 197.427 28.3367 180.989C39.7534 170.696 46.2507 156.03 46.2053 140.658L46.2007 139.577C46.1959 129.612 47.4153 119.642 49.8319 109.932L50.0876 108.912L51.0964 108.947C57.6016 109.168 64.1103 108.623 70.488 107.322C64.5057 106.588 58.6534 105.032 53.097 102.697L52.0118 102.258L52.3801 101.146C77.7681 85.4263 135.076 93.5665 168.339 17.4622C195.311 -44.2481 290.478 72.2425 290.478 139.577C290.478 146.447 283.678 155.527 288.768 160.068C343.793 209.158 305.827 240.681 293.857 272.401C291.017 279.927 297.175 288.189 297.175 296.331C297.175 297.712 297.14 299.138 297.07 300.569L296.964 302.769L295.129 301.548C291.5 299.171 288.136 296.411 285.094 293.317C291.485 308.025 290.868 324.838 283.414 339.037C277.648 349.921 272.069 357.713 266.833 362.195C232.014 391.992 180.006 389.493 148.204 356.495L148.204 356.495Z" id="Shape" fill="#E6E6E6" stroke="none" />
      <path d="M240.328 520.235C241.103 520.234 241.759 519.663 241.869 518.896C241.935 518.43 248.42 471.655 242.596 409.488C237.216 352.076 219.941 269.382 168.192 201.467C167.855 201.022 167.306 200.791 166.752 200.862C166.199 200.932 165.725 201.293 165.511 201.808C165.296 202.323 165.373 202.913 165.712 203.356C217.015 270.685 234.151 352.772 239.492 409.779C245.283 471.584 238.848 517.995 238.783 518.456C238.719 518.904 238.853 519.357 239.15 519.698C239.446 520.039 239.876 520.235 240.328 520.235L240.328 520.235Z" id="Shape" fill="#3F3D56" stroke="none" />
      <path d="M198.097 297.264C198.772 297.265 199.371 296.83 199.58 296.188C199.789 295.546 199.561 294.842 199.014 294.445C198.827 294.308 179.895 280.668 151.593 270.305C125.43 260.726 85.6444 252.043 44.6863 265.078C44.1556 265.247 43.7553 265.686 43.6362 266.23C43.5171 266.774 43.6972 267.34 44.1088 267.715C44.5203 268.09 45.1007 268.217 45.6313 268.048C85.7504 255.281 124.814 263.821 150.521 273.232C178.419 283.447 196.997 296.833 197.182 296.966C197.448 297.16 197.768 297.264 198.097 297.264L198.097 297.264Z" id="Shape" fill="#3F3D56" stroke="none" />
      <path d="M269.428 119.605C269.477 118.931 269.087 118.302 268.461 118.048C267.836 117.793 267.118 117.97 266.682 118.487C266.533 118.664 251.564 136.564 239.19 164.046C227.752 189.452 216.226 228.509 226.278 270.299C226.479 271.136 227.321 271.651 228.157 271.45C228.994 271.249 229.509 270.407 229.308 269.57C219.463 228.636 230.794 190.288 242.032 165.326C254.229 138.236 268.918 120.67 269.065 120.496C269.277 120.245 269.405 119.933 269.428 119.605L269.428 119.605Z" id="Shape" fill="#3F3D56" stroke="none" />
      <path d="M267.319 199.968C268.634 210.577 275.985 219.325 286.676 219.325C297.366 219.325 306.033 210.659 306.033 199.968C306.033 189.278 297.32 181.6 286.676 180.611C275.381 179.563 265.631 186.347 267.319 199.968L267.319 199.968Z" id="Shape" fill="#2F2E41" stroke="none" />
      <path d="M295.641 511.709L303.012 511.708L306.519 483.276L295.64 483.277L295.641 511.709L295.641 511.709Z" id="Polygon" fill="#FFB6B6" fill-rule="evenodd" stroke="none" />
      <path d="M295.382 519.398L318.049 519.397L318.049 519.111C318.049 514.239 314.1 510.289 309.227 510.288L309.226 510.288L305.085 507.147L297.36 510.289L295.381 510.289L295.382 519.398Z" id="Shape" fill="#2F2E41" stroke="none" />
      <path d="M266.606 511.709L273.977 511.708L277.484 483.276L266.604 483.277L266.606 511.709L266.606 511.709Z" id="Polygon" fill="#FFB6B6" fill-rule="evenodd" stroke="none" />
      <path d="M266.347 519.398L289.014 519.397L289.014 519.111C289.014 514.239 285.064 510.289 280.192 510.288L280.191 510.288L276.05 507.147L268.325 510.289L266.346 510.289L266.347 519.398Z" id="Shape" fill="#2F2E41" stroke="none" />
      <path d="M321.007 333.634L326.219 351.502L320.079 427.175C320.079 427.175 323.241 431.907 321.007 431.907C318.774 431.907 315.91 432.956 317.714 435.781C319.518 438.607 313.351 448.751 313.351 448.751L304.628 502.633L293.514 502.469C293.514 502.469 287.863 499.321 291.034 496.138C294.205 492.955 296.439 492.955 293.461 489.977C290.483 486.999 290.483 487.896 290.483 485.586C290.483 483.276 287.499 455.05 294.575 444.223L292.443 400.078L287.422 443.379L277.082 501.144L266.375 501.056C266.375 501.056 261.43 496.289 261.439 492.761C261.448 489.232 264.494 488.939 262.227 486.852C259.959 484.765 259.959 452.705 266.659 434.885C266.659 434.885 270.449 424.928 266.651 421.516C262.852 418.104 266.646 414.2 266.646 414.2C266.646 414.2 272.663 412.025 266.641 405.759C260.618 399.492 266.608 355.171 266.608 355.171C266.608 355.171 260.025 337.281 266.692 330.246C273.36 323.211 321.007 333.634 321.007 333.634L321.007 333.634Z" id="Shape" fill="#2F2E41" stroke="none" />
      <path d="M228.188 364.418L237.487 341.948L244.812 346.018L240.388 368.876C241.619 372.898 239.583 377.195 235.691 378.79C231.8 380.385 227.334 378.753 225.387 375.025C223.441 371.297 224.655 366.699 228.188 364.418L228.188 364.418Z" id="Shape" fill="#FFB6B6" stroke="none" />
      <path d="M384.214 186.73L370.067 206.509L363.854 200.885L373.342 179.624C373.055 175.428 376.011 171.704 380.163 171.032C384.315 170.36 388.295 172.961 389.346 177.034C390.397 181.106 388.173 185.309 384.214 186.73L384.214 186.73Z" id="Shape" fill="#FFB6B6" stroke="none" />
      <path d="M322.411 335.465C331.588 349.699 285.461 367.762 267.762 360.51C264.663 359.24 254.003 355.046 261.289 349.231C268.576 343.416 260.445 342.598 260.252 338.813C260.124 336.282 262.083 330.731 260.039 330.969C257.995 331.207 255.602 327.707 260.054 326.201C264.506 324.695 260.102 323.322 260.141 321.892C260.567 306.291 272.537 281.476 272.537 281.476L250.968 336.611C250.968 336.611 251.127 346.149 248.377 343.234C245.626 340.319 245.826 349.754 245.826 349.754C245.826 349.754 241.736 352.608 244.088 354.196C246.44 355.785 241.556 360.669 241.556 360.669L230.161 359.855C230.161 359.855 230.339 351.39 232.285 349.517C234.231 347.645 233.275 344.699 233.275 344.699C233.275 344.699 238.341 340.215 234.944 336.574C230.576 331.891 246.502 252.796 251.998 253.58C253.582 245.869 259.358 239.699 266.948 237.609L279.256 234.22L281.441 225.549L298.772 225.549L301.791 231.247L314.966 237.193C317.448 233.691 319.303 230.001 329.466 228.805C329.466 228.805 356.85 203.889 355.513 201.944C354.176 199.998 358.421 195.443 358.421 195.443C358.421 195.443 362.046 194.257 360.001 193.623C357.955 192.99 361.822 191.525 361.822 191.525C361.822 191.525 365.403 190.584 363.714 189.345C362.025 188.106 369.351 187.292 369.351 187.292L378.855 195.047L376.934 198.305C376.934 198.305 378.106 202.74 376.577 201.121C375.048 199.502 374.761 204.201 374.761 204.201C374.761 204.201 373.98 209.347 369.351 210.897C364.721 212.448 361.211 227.177 361.211 227.177C350.293 241.372 337.409 252.446 322.14 259.736C328.091 266.566 322.411 335.465 322.411 335.465L322.411 335.465Z" id="Shape" fill="#F9EA04" stroke="none" />
      <path d="M271.651 203.31C271.651 193.83 279.336 186.145 288.816 186.145C298.295 186.145 305.98 193.83 305.98 203.31C305.98 212.79 298.295 220.475 288.816 220.475C279.336 220.475 271.651 212.79 271.651 203.31Z" id="Circle" fill="#FFB6B6" fill-rule="evenodd" stroke="none" />
      <path d="M271.041 205.18C271.585 208.91 274.764 214.114 274.019 214.114C273.275 214.114 267.981 198.738 273.275 197.735C277.114 197.008 277.972 197.646 281.561 196.09L281.055 196.566C283.43 198.293 286.735 197.229 289.445 196.105C292.162 194.988 295.461 193.923 297.843 195.643C299.339 196.722 299.972 198.599 300.903 200.192C301.833 201.792 303.553 203.304 305.325 202.812C306.747 202.418 307.566 200.825 307.558 199.35C307.551 197.876 305.632 196.474 306.278 195.152C308.194 191.232 306.471 188.561 302.295 186.716C300.776 186.486 299.257 186.25 297.739 186.009C298.535 184.907 299.499 183.937 300.598 183.135C300.134 181.946 299.331 180.918 298.29 180.18C297.076 179.458 295.572 179.51 294.165 179.584C291.023 179.748 287.884 179.912 284.747 180.076C282.425 180.195 280.02 180.336 277.943 181.401C275.352 182.733 273.654 185.332 272.419 187.975C269.649 193.916 270.088 198.695 271.041 205.18L271.041 205.18Z" id="Shape" fill="#2F2E41" stroke="none" />
      <path d="M199.637 521.332L368.45 521.561C368.768 521.562 369.061 521.394 369.22 521.119C369.379 520.844 369.379 520.505 369.22 520.231C369.061 519.956 368.768 519.787 368.45 519.788L199.637 519.56C199.149 519.561 198.753 519.958 198.753 520.446C198.753 520.935 199.149 521.331 199.637 521.332L199.637 521.332Z" id="Shape" fill="#CACACA" stroke="none" />
      <path d="M132.451 447.124C129.376 446.676 127.136 444.58 127.447 442.441C127.758 440.302 130.503 438.931 133.578 439.378C136.652 439.825 138.893 441.922 138.581 444.061C138.27 446.2 135.525 447.571 132.451 447.124Z" id="Ellipse" fill="#E6E6E6" fill-rule="evenodd" stroke="none" />
      <path d="M169.059 443.552C165.984 443.104 163.744 441.008 164.055 438.869C164.366 436.73 167.111 435.358 170.185 435.806C173.26 436.253 175.5 438.35 175.189 440.489C174.878 442.628 172.133 443.999 169.059 443.552Z" id="Ellipse" fill="#3F3D56" fill-rule="evenodd" stroke="none" />
      <path d="M122.427 417.487C119.352 417.04 117.112 414.943 117.423 412.804C117.734 410.665 120.479 409.294 123.554 409.741C126.628 410.189 128.869 412.285 128.557 414.424C128.246 416.563 125.501 417.934 122.427 417.487Z" id="Ellipse" fill="#FF6584" fill-rule="evenodd" stroke="none" />
      <path d="M110.15 405.821C108.784 405.811 107.688 404.211 107.703 402.247C107.718 400.284 108.838 398.7 110.203 398.71C111.57 398.721 112.665 400.321 112.65 402.285C112.635 404.248 111.516 405.832 110.15 405.821Z" id="Ellipse" fill="#E6E6E6" fill-rule="evenodd" stroke="none" />
      <path d="M104.756 383.21C103.39 383.2 102.294 381.6 102.309 379.636C102.324 377.672 103.443 376.089 104.809 376.099C106.175 376.109 107.271 377.71 107.256 379.673C107.241 381.637 106.122 383.22 104.756 383.21Z" id="Ellipse" fill="#3F3D56" fill-rule="evenodd" stroke="none" />
      <path d="M146.704 423.004C145.338 422.994 144.243 421.393 144.257 419.43C144.272 417.466 145.392 415.883 146.758 415.893C148.124 415.903 149.219 417.504 149.204 419.467C149.189 421.431 148.07 423.014 146.704 423.004Z" id="Ellipse" fill="#E6E6E6" fill-rule="evenodd" stroke="none" />
      <path d="M129.014 431.837C127.648 431.827 126.552 430.226 126.567 428.263C126.582 426.299 127.701 424.716 129.067 424.726C130.433 424.736 131.529 426.337 131.514 428.3C131.499 430.264 130.38 431.847 129.014 431.837Z" id="Ellipse" fill="#FF6584" fill-rule="evenodd" stroke="none" />
      <path d="M153.639 448.162C152.273 448.152 151.178 446.552 151.193 444.588C151.208 442.624 152.327 441.041 153.693 441.051C155.059 441.062 156.155 442.662 156.14 444.625C156.125 446.589 155.005 448.173 153.639 448.162Z" id="Ellipse" fill="#3F3D56" fill-rule="evenodd" stroke="none" />
      <path d="M413.868 332.472C410.793 332.025 408.553 329.928 408.864 327.79C409.175 325.651 411.92 324.279 414.995 324.727C418.07 325.174 420.31 327.271 419.999 329.41C419.688 331.548 416.943 332.92 413.868 332.472Z" id="Ellipse" fill="#E6E6E6" fill-rule="evenodd" stroke="none" />
      <path d="M450.475 328.9C447.401 328.453 445.16 326.356 445.472 324.217C445.783 322.078 448.528 320.707 451.602 321.154C454.677 321.602 456.917 323.698 456.606 325.837C456.295 327.976 453.55 329.348 450.475 328.9Z" id="Ellipse" fill="#3F3D56" fill-rule="evenodd" stroke="none" />
      <path d="M403.843 302.836C400.768 302.388 398.528 300.292 398.839 298.153C399.151 296.014 401.895 294.643 404.97 295.09C408.045 295.537 410.285 297.634 409.974 299.773C409.663 301.912 406.918 303.283 403.843 302.836Z" id="Ellipse" fill="#FF6584" fill-rule="evenodd" stroke="none" />
      <path d="M391.567 291.17C390.201 291.16 389.106 289.56 389.121 287.596C389.136 285.632 390.255 284.049 391.621 284.059C392.987 284.069 394.082 285.67 394.067 287.633C394.053 289.597 392.933 291.18 391.567 291.17Z" id="Ellipse" fill="#E6E6E6" fill-rule="evenodd" stroke="none" />
      <path d="M386.173 268.559C384.807 268.548 383.712 266.948 383.727 264.985C383.742 263.021 384.861 261.437 386.227 261.448C387.593 261.458 388.688 263.058 388.673 265.022C388.659 266.986 387.539 268.569 386.173 268.559Z" id="Ellipse" fill="#3F3D56" fill-rule="evenodd" stroke="none" />
      <path d="M428.121 308.353C426.755 308.342 425.66 306.742 425.675 304.779C425.69 302.815 426.809 301.231 428.175 301.242C429.541 301.252 430.636 302.852 430.622 304.816C430.607 306.78 429.487 308.363 428.121 308.353Z" id="Ellipse" fill="#E6E6E6" fill-rule="evenodd" stroke="none" />
      <path d="M410.431 317.186C409.065 317.175 407.97 315.575 407.984 313.612C407.999 311.648 409.119 310.064 410.485 310.075C411.851 310.085 412.946 311.685 412.931 313.649C412.916 315.613 411.797 317.196 410.431 317.186Z" id="Ellipse" fill="#FF6584" fill-rule="evenodd" stroke="none" />
      <path d="M435.056 333.51C433.69 333.5 432.595 331.9 432.61 329.936C432.625 327.973 433.744 326.389 435.11 326.399C436.476 326.41 437.572 328.01 437.557 329.974C437.542 331.937 436.422 333.521 435.056 333.51Z" id="Ellipse" fill="#3F3D56" fill-rule="evenodd" stroke="none" />
      <path d="M277.626 120.292C274.552 119.845 272.311 117.748 272.623 115.609C272.934 113.47 275.679 112.099 278.753 112.547C281.828 112.994 284.068 115.09 283.757 117.229C283.446 119.368 280.701 120.74 277.626 120.292Z" id="Ellipse" fill="#FFFFFF" fill-rule="evenodd" stroke="none" />
      <path d="M314.234 116.72C311.159 116.273 308.919 114.176 309.23 112.037C309.541 109.898 312.286 108.527 315.361 108.974C318.436 109.422 320.676 111.518 320.365 113.657C320.053 115.796 317.309 117.167 314.234 116.72Z" id="Ellipse" fill="#3F3D56" fill-rule="evenodd" stroke="none" />
      <path d="M267.602 90.6555C264.528 90.2082 262.288 88.1116 262.599 85.9726C262.91 83.8337 265.655 82.4624 268.729 82.9098C271.804 83.3572 274.044 85.4538 273.733 87.5927C273.422 89.7316 270.677 91.1029 267.602 90.6555Z" id="Ellipse" fill="#FF6584" fill-rule="evenodd" stroke="none" />
      <path d="M255.326 78.9898C253.96 78.9795 252.864 77.3793 252.879 75.4157C252.894 73.4521 254.013 71.8686 255.379 71.879C256.745 71.8893 257.841 73.4895 257.826 75.4531C257.811 77.4167 256.692 79.0002 255.326 78.9898Z" id="Ellipse" fill="#E6E6E6" fill-rule="evenodd" stroke="none" />
      <path d="M249.931 56.3785C248.565 56.3682 247.47 54.768 247.485 52.8044C247.499 50.8407 248.619 49.2573 249.985 49.2676C251.351 49.278 252.446 50.8782 252.431 52.8418C252.416 54.8054 251.297 56.3888 249.931 56.3785Z" id="Ellipse" fill="#3F3D56" fill-rule="evenodd" stroke="none" />
      <path d="M291.88 96.173C290.514 96.1626 289.418 94.5624 289.433 92.5988C289.448 90.6352 290.568 89.0517 291.934 89.0621C293.3 89.0724 294.395 90.6726 294.38 92.6362C294.365 94.5998 293.246 96.1833 291.88 96.173Z" id="Ellipse" fill="#E6E6E6" fill-rule="evenodd" stroke="none" />
      <path d="M274.189 105.005C272.823 104.995 271.728 103.395 271.743 101.431C271.758 99.4677 272.877 97.8842 274.243 97.8946C275.609 97.9049 276.704 99.5051 276.69 101.469C276.675 103.432 275.555 105.016 274.189 105.005Z" id="Ellipse" fill="#FF6584" fill-rule="evenodd" stroke="none" />
      <path d="M298.815 121.331C297.449 121.32 296.353 119.72 296.368 117.757C296.383 115.793 297.503 114.209 298.869 114.22C300.235 114.23 301.33 115.83 301.315 117.794C301.3 119.758 300.181 121.341 298.815 121.331Z" id="Ellipse" fill="#3F3D56" fill-rule="evenodd" stroke="none" />
    </g>
  </g>
</svg>