<svg id="e2JkT5nlUe71" xmlns="http://www.w3.org/2000/svg" xmlns:xlink="http://www.w3.org/1999/xlink" viewBox="0 0 897 1024" shape-rendering="geometricPrecision" text-rendering="geometricPrecision"><path d="M430.238,960.639l-1.143-25.692c-.12-.063-.238-.126-.357-.188-12.243-6.424-26.275,5.207-22.364,18.467c3.679,12.479,6.151,25.93,12.887,36.852c8.059,12.85,21.528,21.338,36.597,23.063l15.556,9.524c4.319-24.08-2.122-48.846-17.627-67.768-4.351-5.205-9.338-9.838-14.847-13.796-3.724,9.825-8.702,19.539-8.702,19.539v0Z" fill="#f2f2f2"/><path id="e2JkT5nlUe73" d="M290.974,699.919c-29.947-30.883-73.344-48.596-119.065-48.596l-1.763.004c-30.115.012-59.692-7.975-85.707-23.144l-2.707-1.579l2.18-2.246c11.804-12.212,21.66-26.167,29.224-41.375-10.875,10.139-25.69,14.925-40.441,13.064-15.585-1.857-29.463-10.745-37.668-24.125C19.047,545.994,0,509.205,0,481.179c.05-47.896,20.24-93.563,55.634-125.836c22.415-20.209,35.171-49.003,35.082-79.183l-.009-2.122c-.009-19.565,2.385-39.139,7.129-58.203l.502-2.003l1.981.069c12.772.434,25.551-.636,38.072-3.19-11.745-1.441-23.235-4.496-34.144-9.08l-2.131-.862.723-2.183c49.845-30.863,162.36-14.881,227.666-164.299c52.955-121.158,239.8,107.552,239.8,239.752c0,13.488-13.351,31.315-3.357,40.231c108.033,96.38,33.493,158.27,9.991,220.547-5.576,14.776,6.514,30.997,6.514,46.983c0,2.711-.069,5.511-.206,8.321l-.208,4.319-3.603-2.397c-7.125-4.667-13.73-10.086-19.702-16.16c12.548,28.877,11.336,61.886-3.298,89.764-11.321,21.369-22.274,36.667-32.554,45.467-68.361,58.502-170.471,53.595-232.909-11.191v0Z" fill="#e6e6e6"/><path d="M471.845,1021.396c1.522-.002,2.81-1.123,3.026-2.629.13-.915,12.862-92.75,1.427-214.805-10.563-112.719-44.479-275.075-146.08-408.415-.662-.874-1.74-1.327-2.827-1.188-1.086.137-2.016.846-2.436,1.857-.422,1.011-.271,2.169.395,3.039C426.075,531.444,459.719,692.609,470.205,804.533c11.37,121.344-1.264,212.464-1.392,213.369-.126.88.137,1.769.721,2.438.581.669,1.425,1.054,2.313,1.054v0Z" fill="#3f3d56"/><path d="M388.931,583.629c1.325.002,2.501-.852,2.912-2.113s-.037-2.643-1.111-3.422c-.367-.269-37.537-27.049-93.103-47.395-51.367-18.807-129.479-35.854-209.894-10.262-1.042.332-1.828,1.194-2.062,2.262s.12,2.179.928,2.916c.808.736,1.947.986,2.989.654c78.767-25.066,155.462-8.299,205.934,10.178c54.773,20.055,91.248,46.337,91.611,46.598.522.381,1.151.585,1.796.585v0Z" fill="#3f3d56"/><path d="M528.978,234.825c.096-1.323-.669-2.558-1.899-3.057-1.227-.501-2.637-.153-3.493.862-.293.348-29.682,35.491-53.976,89.448-22.457,49.881-45.086,126.563-25.351,208.61.395,1.643,2.048,2.654,3.689,2.26c1.643-.395,2.654-2.048,2.26-3.691-19.329-80.367,2.918-155.657,24.981-204.666c23.947-53.187,52.786-87.675,53.075-88.016.416-.493.668-1.105.713-1.749v0Z" fill="#3f3d56"/><path d="M524.837,392.604c2.582,20.829,17.014,38.004,38.004,38.004c20.988,0,38.004-17.014,38.004-38.004c0-20.988-17.107-36.063-38.004-38.004-22.176-2.058-41.318,11.262-38.004,38.004v0Z" fill="#2f2e41"/><path d="M580.443,1004.657l14.472-.002l6.885-55.822-21.359.002.002,55.822Z" fill="#ffb6b6"/><path d="M579.934,1019.753l44.503-.002v-.562c0-9.565-7.753-17.321-17.321-17.323h-.002l-8.13-6.167-15.167,6.169h-3.885l.002,17.884Z" fill="#2f2e41"/><path d="M523.437,1004.657l14.472-.002l6.885-55.822-21.361.002.004,55.822Z" fill="#ffb6b6"/><path d="M522.929,1019.753l44.503-.002v-.562c0-9.565-7.755-17.321-17.321-17.323h-.002l-8.13-6.167-15.167,6.169h-3.885l.002,17.884Z" fill="#2f2e41"/><path d="M630.245,655.036l10.233,35.081-12.055,148.572c0,0,6.208,9.291,1.822,9.291-4.384,0-10.007,2.06-6.465,7.606c3.542,5.548-8.566,25.464-8.566,25.464L598.088,986.838l-21.821-.322c0,0-11.095-6.181-4.869-12.43s10.612-6.249,4.765-12.096-5.847-4.086-5.847-8.621-5.859-59.952,8.034-81.209l-4.186-86.671-9.858,85.014-20.301,113.412-21.021-.173c0,0-9.709-9.359-9.691-16.286.018-6.929,5.998-7.504,1.547-11.601-4.453-4.097-4.453-67.042,8.702-102.029c0,0,7.441-19.549-.016-26.248-7.459-6.699-.01-14.364-.01-14.364s11.813-4.27-.01-16.573c-11.825-12.304-.065-99.321-.065-99.321s-12.925-35.124.165-48.936c13.092-13.812,106.639,6.652,106.639,6.652v0Z" fill="#2f2e41"/><path d="M448.01,715.475l18.257-44.116l14.381,7.991-8.686,44.878c2.417,7.897-1.58,16.333-9.222,19.465-7.639,3.132-16.408-.073-20.23-7.392s-1.437-16.347,5.499-20.825v0Z" fill="#ffb6b6"/><path id="e2JkT5nlUe714" d="M754.341,366.614l-27.775,38.833-12.198-11.042l18.628-41.742c-.563-8.238,5.24-15.55,13.392-16.869s15.966,3.787,18.029,11.784c2.063,7.995-2.303,16.247-10.076,19.037v0Z" transform="translate(-24.876331 7.546654)" fill="#ffb6b6"/><path d="M743.822,382.946l-3.772,6.397" fill="#f9ea04"/><path d="M632.471,509.952c11.684,13.41.532,148.681.532,148.681v0l-.002-.003c18.018,27.946-72.545,63.41-107.294,49.172-6.084-2.493-27.014-10.728-12.709-22.144c14.307-11.417-1.657-13.023-2.036-20.454-.251-4.969,3.595-15.868-.418-15.4s-8.711-6.404.029-9.361c8.741-2.957.094-5.652.171-8.46.836-30.63,24.338-79.35,24.338-79.35L492.735,660.882c0,0,.312,18.726-5.087,13.003-5.401-5.723-5.008,12.801-5.008,12.801s-8.03,5.603-3.412,8.721c4.618,3.12-4.971,12.709-4.971,12.709l-22.372-1.598c0,0,.349-16.62,4.17-20.297c3.821-3.675,1.944-9.459,1.944-9.459s9.946-8.804,3.277-15.952c-8.576-9.194,22.692-164.484,33.483-162.945c3.11-15.139,14.45-27.253,29.352-31.356l24.165-6.654l4.29-17.024h34.027l5.927,11.187l25.867,11.674c4.873-6.876,28.725314-3.555813,33.03711,8.118187" transform="translate(0 2.260098)" fill="#f9ea04"/><path d="" transform="translate(-560.446896 255.023)" fill="#f9ea04"/><path id="e2JkT5nlUe718" d="M618.387,465.692c4.873-6.876,8.515-14.12,28.468-16.468c0,0,53.764-48.918,51.139-52.737-2.625-3.821,5.709-12.764,5.709-12.764s7.117-2.329,3.102-3.573c-4.017-1.243,3.575-4.119,3.575-4.119s7.031-1.847,3.715-4.28s11.067-4.031,11.067-4.031l18.66,15.226-3.772,6.397c0,0,2.301,8.707-.701,5.529s-3.565,6.047-3.565,6.047-1.533,10.103-10.622,13.146c-9.09,3.045-15.982,31.963-15.982,31.963-21.436,27.87-46.731,49.612-76.709,63.924" transform="translate(-13.49495-3.771275)" fill="#f9ea04"/><path d="M533.342,399.166c0-18.612,15.088-33.701,33.701-33.701c18.61,0,33.699,15.088,33.699,33.701s-15.088,33.701-33.699,33.701c-18.612,0-33.701-15.088-33.701-33.701Z" fill="#ffb6b6"/><path d="M532.145,402.837c1.068,7.323,7.309,17.54,5.847,17.54s-11.855-30.188-1.461-32.157c7.537-1.427,9.222-.175,16.268-3.23l-.993.935c4.663,3.391,11.152,1.302,16.472-.905c5.334-2.193,11.811-4.284,16.488-.907c2.937,2.118,4.18,5.804,6.008,8.931c1.826,3.141,5.203,6.11,8.682,5.144c2.792-.774,4.4-3.901,4.384-6.797-.014-2.894-3.781-5.647-2.513-8.242c3.762-7.696.379-12.94-7.82-16.563-2.982-.452-5.965-.915-8.945-1.388c1.563-2.164,3.455-4.068,5.613-5.643-.911-2.334-2.488-4.353-4.531-5.802-2.383-1.418-5.336-1.315-8.099-1.17-6.169.322-12.332.644-18.491.966-4.559.234-9.281.51-13.359,2.601-5.087,2.615-8.421,7.718-10.845,12.907-5.438,11.664-4.577,21.047-2.705,33.779v0Z" fill="#2f2e41"/><path d="M391.955,1023.55l331.437.45c.624.002,1.2-.328,1.512-.868s.312-1.205,0-1.743c-.312-.54-.887-.872-1.512-.87l-331.437-.448c-.958.002-1.736.781-1.736,1.74s.777,1.738,1.736,1.74v0Z" fill="#cacaca"/><path d="M260.046,877.855c-6.037-.88-10.435-4.995-9.825-9.194s6-6.891,12.037-6.014c6.035.878,10.435,4.995,9.823,9.194-.611,4.2-6,6.891-12.035,6.014Z" fill="#e6e6e6"/><path d="M331.92,870.842c-6.037-.88-10.435-4.995-9.825-9.194s6-6.893,12.035-6.014c6.037.878,10.435,4.995,9.825,9.194s-6,6.891-12.035,6.014Z" fill="#3f3d56"/><path d="M240.365,819.667c-6.037-.878-10.435-4.995-9.825-9.194s6-6.891,12.037-6.014c6.035.88,10.435,4.995,9.823,9.194-.611,4.2-6,6.891-12.035,6.014Z" fill="#ff6584"/><path d="M216.261,796.763c-2.682-.02-4.834-3.161-4.804-7.017.029-3.854,2.228-6.964,4.908-6.944c2.684.022,4.834,3.163,4.804,7.019-.029,3.854-2.226,6.964-4.908,6.942Z" fill="#e6e6e6"/><path d="M205.671,752.37c-2.682-.02-4.834-3.161-4.804-7.017s2.226-6.964,4.908-6.944s4.834,3.163,4.804,7.017c-.029,3.856-2.226,6.964-4.908,6.944Z" fill="#3f3d56"/><path d="M288.029,830.499c-2.682-.02-4.832-3.163-4.804-7.017.029-3.856,2.228-6.964,4.91-6.944s4.832,3.163,4.802,7.017c-.029,3.856-2.226,6.964-4.908,6.944Z" fill="#e6e6e6"/><path d="M253.298,847.841c-2.682-.02-4.834-3.163-4.804-7.017.029-3.856,2.226-6.964,4.908-6.944s4.834,3.163,4.804,7.017c-.029,3.856-2.226,6.964-4.908,6.944Z" fill="#ff6584"/><path d="M301.645,879.893c-2.682-.02-4.832-3.161-4.802-7.017s2.226-6.964,4.908-6.944c2.682.022,4.834,3.163,4.804,7.017-.029,3.856-2.228,6.966-4.91,6.944Z" fill="#3f3d56"/><path d="M812.562,652.754c-6.037-.878-10.435-4.995-9.825-9.192.611-4.2,6-6.893,12.037-6.014s10.435,4.995,9.825,9.194c-.611,4.198-6,6.891-12.037,6.012Z" fill="#e6e6e6"/><path d="M884.434,645.741c-6.035-.878-10.435-4.995-9.823-9.194.611-4.2,6-6.891,12.035-6.014c6.037.88,10.435,4.995,9.825,9.194s-6,6.893-12.037,6.014Z" fill="#3f3d56"/><path d="M792.879,594.569c-6.037-.88-10.435-4.995-9.825-9.194.613-4.2,6-6.891,12.037-6.014s10.435,4.995,9.825,9.194c-.611,4.2-6,6.891-12.037,6.014Z" fill="#ff6584"/><path d="M768.778,571.665c-2.682-.02-4.832-3.161-4.802-7.017s2.226-6.964,4.908-6.944s4.832,3.163,4.802,7.017c-.027,3.856-2.226,6.964-4.908,6.944Z" fill="#e6e6e6"/><path d="M758.187,527.272c-2.682-.022-4.832-3.163-4.802-7.017.029-3.856,2.226-6.966,4.908-6.944c2.682.02,4.832,3.161,4.802,7.017-.027,3.856-2.226,6.964-4.908,6.944Z" fill="#3f3d56"/><path d="M840.545,605.401c-2.682-.022-4.832-3.163-4.802-7.017.029-3.856,2.226-6.966,4.908-6.944c2.682.02,4.832,3.161,4.804,7.017s-2.228,6.964-4.91,6.944Z" fill="#e6e6e6"/><path d="M805.814,622.743c-2.682-.022-4.832-3.163-4.804-7.017.029-3.856,2.228-6.966,4.91-6.944c2.682.02,4.832,3.161,4.802,7.017s-2.226,6.964-4.908,6.944Z" fill="#ff6584"/><path d="M854.161,654.792c-2.682-.02-4.832-3.161-4.802-7.017.029-3.854,2.226-6.964,4.908-6.944c2.682.022,4.834,3.163,4.804,7.019-.029,3.854-2.228,6.964-4.91,6.942Z" fill="#3f3d56"/><path d="M545.073,236.174c-6.035-.878-10.435-4.995-9.823-9.194.611-4.2,6-6.891,12.035-6.012c6.037.878,10.435,4.993,9.825,9.192s-6,6.893-12.037,6.014Z" fill="#fff"/><path d="M616.947,229.161c-6.037-.878-10.435-4.995-9.825-9.194s6-6.891,12.037-6.014c6.037.88,10.435,4.995,9.825,9.194-.613,4.2-6,6.891-12.037,6.014Z" fill="#3f3d56"/><path d="M525.393,177.987c-6.035-.878-10.433-4.995-9.823-9.194s6-6.892,12.035-6.013c6.037.878,10.435,4.995,9.825,9.194s-6,6.892-12.037,6.013Z" fill="#ff6584"/><path d="M501.291,155.084c-2.682-.02-4.834-3.162-4.804-7.017s2.226-6.964,4.908-6.944s4.834,3.162,4.804,7.017-2.226,6.964-4.908,6.944Z" fill="#e6e6e6"/><path d="M490.699,110.69c-2.682-.02-4.832-3.162-4.802-7.017.027-3.855,2.226-6.964,4.908-6.944s4.832,3.162,4.802,7.017c-.029,3.855-2.226,6.964-4.908,6.944Z" fill="#3f3d56"/><path d="M573.058,188.82c-2.682-.02-4.834-3.162-4.804-7.017s2.228-6.964,4.91-6.944s4.832,3.162,4.802,7.017-2.226,6.964-4.908,6.944Z" fill="#e6e6e6"/><path d="M538.325,206.16c-2.682-.02-4.832-3.161-4.802-7.017.029-3.855,2.226-6.964,4.908-6.943s4.832,3.162,4.804,7.018c-.029,3.854-2.228,6.964-4.91,6.942Z" fill="#ff6584"/><path d="M586.674,238.214c-2.682-.022-4.834-3.163-4.804-7.017.029-3.856,2.228-6.966,4.91-6.944c2.682.02,4.832,3.161,4.802,7.017s-2.226,6.964-4.908,6.944Z" fill="#3f3d56"/><script><![CDATA[!function(t,n){"object"==typeof exports&&"undefined"!=typeof module?module.exports=n():"function"==typeof define&&define.amd?define(n):((t="undefined"!=typeof globalThis?globalThis:t||self).__SVGATOR_PLAYER__=t.__SVGATOR_PLAYER__||{},t.__SVGATOR_PLAYER__["5c7f360c"]=n())}(this,(function(){"use strict";function t(t,n){var e=Object.keys(t);if(Object.getOwnPropertySymbols){var r=Object.getOwnPropertySymbols(t);n&&(r=r.filter((function(n){return Object.getOwnPropertyDescriptor(t,n).enumerable}))),e.push.apply(e,r)}return e}function n(n){for(var e=1;e<arguments.length;e++){var r=null!=arguments[e]?arguments[e]:{};e%2?t(Object(r),!0).forEach((function(t){o(n,t,r[t])})):Object.getOwnPropertyDescriptors?Object.defineProperties(n,Object.getOwnPropertyDescriptors(r)):t(Object(r)).forEach((function(t){Object.defineProperty(n,t,Object.getOwnPropertyDescriptor(r,t))}))}return n}function e(t){return(e="function"==typeof Symbol&&"symbol"==typeof Symbol.iterator?function(t){return typeof t}:function(t){return t&&"function"==typeof Symbol&&t.constructor===Symbol&&t!==Symbol.prototype?"symbol":typeof t})(t)}function r(t,n){if(!(t instanceof n))throw new TypeError("Cannot call a class as a function")}function i(t,n){for(var e=0;e<n.length;e++){var r=n[e];r.enumerable=r.enumerable||!1,r.configurable=!0,"value"in r&&(r.writable=!0),Object.defineProperty(t,r.key,r)}}function u(t,n,e){return n&&i(t.prototype,n),e&&i(t,e),t}function o(t,n,e){return n in t?Object.defineProperty(t,n,{value:e,enumerable:!0,configurable:!0,writable:!0}):t[n]=e,t}function a(t){return(a=Object.setPrototypeOf?Object.getPrototypeOf:function(t){return t.__proto__||Object.getPrototypeOf(t)})(t)}function l(t,n){return(l=Object.setPrototypeOf||function(t,n){return t.__proto__=n,t})(t,n)}function s(){if("undefined"==typeof Reflect||!Reflect.construct)return!1;if(Reflect.construct.sham)return!1;if("function"==typeof Proxy)return!0;try{return Boolean.prototype.valueOf.call(Reflect.construct(Boolean,[],(function(){}))),!0}catch(t){return!1}}function f(t,n,e){return(f=s()?Reflect.construct:function(t,n,e){var r=[null];r.push.apply(r,n);var i=new(Function.bind.apply(t,r));return e&&l(i,e.prototype),i}).apply(null,arguments)}function c(t,n){if(n&&("object"==typeof n||"function"==typeof n))return n;if(void 0!==n)throw new TypeError("Derived constructors may only return object or undefined");return function(t){if(void 0===t)throw new ReferenceError("this hasn't been initialised - super() hasn't been called");return t}(t)}function h(t,n,e){return(h="undefined"!=typeof Reflect&&Reflect.get?Reflect.get:function(t,n,e){var r=function(t,n){for(;!Object.prototype.hasOwnProperty.call(t,n)&&null!==(t=a(t)););return t}(t,n);if(r){var i=Object.getOwnPropertyDescriptor(r,n);return i.get?i.get.call(e):i.value}})(t,n,e||t)}function v(t){return function(t){if(Array.isArray(t))return y(t)}(t)||function(t){if("undefined"!=typeof Symbol&&null!=t[Symbol.iterator]||null!=t["@@iterator"])return Array.from(t)}(t)||function(t,n){if(!t)return;if("string"==typeof t)return y(t,n);var e=Object.prototype.toString.call(t).slice(8,-1);"Object"===e&&t.constructor&&(e=t.constructor.name);if("Map"===e||"Set"===e)return Array.from(t);if("Arguments"===e||/^(?:Ui|I)nt(?:8|16|32)(?:Clamped)?Array$/.test(e))return y(t,n)}(t)||function(){throw new TypeError("Invalid attempt to spread non-iterable instance.\nIn order to be iterable, non-array objects must have a [Symbol.iterator]() method.")}()}function y(t,n){(null==n||n>t.length)&&(n=t.length);for(var e=0,r=new Array(n);e<n;e++)r[e]=t[e];return r}Number.isInteger||(Number.isInteger=function(t){return"number"==typeof t&&isFinite(t)&&Math.floor(t)===t}),Number.EPSILON||(Number.EPSILON=2220446049250313e-31);var g=d(Math.pow(10,-6));function d(t){var n=arguments.length>1&&void 0!==arguments[1]?arguments[1]:6;if(Number.isInteger(t))return t;var e=Math.pow(10,n);return Math.round((+t+Number.EPSILON)*e)/e}function p(t,n){var e=arguments.length>2&&void 0!==arguments[2]?arguments[2]:g;return Math.abs(t-n)<e}var m=Math.PI/180;function b(t){return t}function w(t,n,e){var r=1-e;return 3*e*r*(t*r+n*e)+e*e*e}function x(){var t=arguments.length>0&&void 0!==arguments[0]?arguments[0]:0,n=arguments.length>1&&void 0!==arguments[1]?arguments[1]:0,e=arguments.length>2&&void 0!==arguments[2]?arguments[2]:1,r=arguments.length>3&&void 0!==arguments[3]?arguments[3]:1;return t<0||t>1||e<0||e>1?null:p(t,n)&&p(e,r)?b:function(i){if(i<=0)return t>0?i*n/t:0===n&&e>0?i*r/e:0;if(i>=1)return e<1?1+(i-1)*(r-1)/(e-1):1===e&&t<1?1+(i-1)*(n-1)/(t-1):1;for(var u,o=0,a=1;o<a;){var l=w(t,e,u=(o+a)/2);if(p(i,l))break;l<i?o=u:a=u}return w(n,r,u)}}function A(){return 1}function k(t){return 1===t?1:0}function _(){var t=arguments.length>0&&void 0!==arguments[0]?arguments[0]:1,n=arguments.length>1&&void 0!==arguments[1]?arguments[1]:0;if(1===t){if(0===n)return k;if(1===n)return A}var e=1/t;return function(t){return t>=1?1:(t+=n*e)-t%e}}var S=Math.sin,O=Math.cos,j=Math.acos,M=Math.asin,P=Math.tan,E=Math.atan2,I=Math.PI/180,R=180/Math.PI,F=Math.sqrt,N=function(){function t(){var n=arguments.length>0&&void 0!==arguments[0]?arguments[0]:1,e=arguments.length>1&&void 0!==arguments[1]?arguments[1]:0,i=arguments.length>2&&void 0!==arguments[2]?arguments[2]:0,u=arguments.length>3&&void 0!==arguments[3]?arguments[3]:1,o=arguments.length>4&&void 0!==arguments[4]?arguments[4]:0,a=arguments.length>5&&void 0!==arguments[5]?arguments[5]:0;r(this,t),this.m=[n,e,i,u,o,a],this.i=null,this.w=null,this.s=null}return u(t,[{key:"determinant",get:function(){var t=this.m;return t[0]*t[3]-t[1]*t[2]}},{key:"isIdentity",get:function(){if(null===this.i){var t=this.m;this.i=1===t[0]&&0===t[1]&&0===t[2]&&1===t[3]&&0===t[4]&&0===t[5]}return this.i}},{key:"point",value:function(t,n){var e=this.m;return{x:e[0]*t+e[2]*n+e[4],y:e[1]*t+e[3]*n+e[5]}}},{key:"translateSelf",value:function(){var t=arguments.length>0&&void 0!==arguments[0]?arguments[0]:0,n=arguments.length>1&&void 0!==arguments[1]?arguments[1]:0;if(!t&&!n)return this;var e=this.m;return e[4]+=e[0]*t+e[2]*n,e[5]+=e[1]*t+e[3]*n,this.w=this.s=this.i=null,this}},{key:"rotateSelf",value:function(){var t=arguments.length>0&&void 0!==arguments[0]?arguments[0]:0;if(t%=360){var n=S(t*=I),e=O(t),r=this.m,i=r[0],u=r[1];r[0]=i*e+r[2]*n,r[1]=u*e+r[3]*n,r[2]=r[2]*e-i*n,r[3]=r[3]*e-u*n,this.w=this.s=this.i=null}return this}},{key:"scaleSelf",value:function(){var t=arguments.length>0&&void 0!==arguments[0]?arguments[0]:1,n=arguments.length>1&&void 0!==arguments[1]?arguments[1]:1;if(1!==t||1!==n){var e=this.m;e[0]*=t,e[1]*=t,e[2]*=n,e[3]*=n,this.w=this.s=this.i=null}return this}},{key:"skewSelf",value:function(t,n){if(n%=360,(t%=360)||n){var e=this.m,r=e[0],i=e[1],u=e[2],o=e[3];t&&(t=P(t*I),e[2]+=r*t,e[3]+=i*t),n&&(n=P(n*I),e[0]+=u*n,e[1]+=o*n),this.w=this.s=this.i=null}return this}},{key:"resetSelf",value:function(){var t=arguments.length>0&&void 0!==arguments[0]?arguments[0]:1,n=arguments.length>1&&void 0!==arguments[1]?arguments[1]:0,e=arguments.length>2&&void 0!==arguments[2]?arguments[2]:0,r=arguments.length>3&&void 0!==arguments[3]?arguments[3]:1,i=arguments.length>4&&void 0!==arguments[4]?arguments[4]:0,u=arguments.length>5&&void 0!==arguments[5]?arguments[5]:0,o=this.m;return o[0]=t,o[1]=n,o[2]=e,o[3]=r,o[4]=i,o[5]=u,this.w=this.s=this.i=null,this}},{key:"recomposeSelf",value:function(){var t=arguments.length>0&&void 0!==arguments[0]?arguments[0]:null,n=arguments.length>1&&void 0!==arguments[1]?arguments[1]:null,e=arguments.length>2&&void 0!==arguments[2]?arguments[2]:null,r=arguments.length>3&&void 0!==arguments[3]?arguments[3]:null,i=arguments.length>4&&void 0!==arguments[4]?arguments[4]:null;return this.isIdentity||this.resetSelf(),t&&(t.x||t.y)&&this.translateSelf(t.x,t.y),n&&this.rotateSelf(n),e&&(e.x&&this.skewSelf(e.x,0),e.y&&this.skewSelf(0,e.y)),!r||1===r.x&&1===r.y||this.scaleSelf(r.x,r.y),i&&(i.x||i.y)&&this.translateSelf(i.x,i.y),this}},{key:"decompose",value:function(){var t=arguments.length>0&&void 0!==arguments[0]?arguments[0]:0,n=arguments.length>1&&void 0!==arguments[1]?arguments[1]:0,e=this.m,r=e[0]*e[0]+e[1]*e[1],i=[[e[0],e[1]],[e[2],e[3]]],u=F(r);if(0===u)return{origin:{x:d(e[4]),y:d(e[5])},translate:{x:d(t),y:d(n)},scale:{x:0,y:0},skew:{x:0,y:0},rotate:0};i[0][0]/=u,i[0][1]/=u;var o=e[0]*e[3]-e[1]*e[2]<0;o&&(u=-u);var a=i[0][0]*i[1][0]+i[0][1]*i[1][1];i[1][0]-=i[0][0]*a,i[1][1]-=i[0][1]*a;var l=F(i[1][0]*i[1][0]+i[1][1]*i[1][1]);if(0===l)return{origin:{x:d(e[4]),y:d(e[5])},translate:{x:d(t),y:d(n)},scale:{x:d(u),y:0},skew:{x:0,y:0},rotate:0};i[1][0]/=l,i[1][1]/=l,a/=l;var s=0;return i[1][1]<0?(s=j(i[1][1])*R,i[0][1]<0&&(s=360-s)):s=M(i[0][1])*R,o&&(s=-s),a=E(a,F(i[0][0]*i[0][0]+i[0][1]*i[0][1]))*R,o&&(a=-a),{origin:{x:d(e[4]),y:d(e[5])},translate:{x:d(t),y:d(n)},scale:{x:d(u),y:d(l)},skew:{x:d(a),y:0},rotate:d(s)}}},{key:"clone",value:function(){var t=this.m;return new this.constructor(t[0],t[1],t[2],t[3],t[4],t[5])}},{key:"toString",value:function(){var t=arguments.length>0&&void 0!==arguments[0]?arguments[0]:" ";if(null===this.s){var n=this.m.map((function(t){return d(t)}));1===n[0]&&0===n[1]&&0===n[2]&&1===n[3]?this.s="translate("+n[4]+t+n[5]+")":this.s="matrix("+n.join(t)+")"}return this.s}}],[{key:"create",value:function(t){return t?Array.isArray(t)?f(this,v(t)):t instanceof this?t.clone():(new this).recomposeSelf(t.origin,t.rotate,t.skew,t.scale,t.translate):new this}}]),t}();function T(t,n,e){return t>=.5?e:n}function q(t,n,e){return 0===t||n===e?n:t*(e-n)+n}function B(t,n,e){var r=q(t,n,e);return r<=0?0:r}function L(t,n,e){var r=q(t,n,e);return r<=0?0:r>=1?1:r}function C(t,n,e){return 0===t?n:1===t?e:{x:q(t,n.x,e.x),y:q(t,n.y,e.y)}}function D(t,n,e){var r=function(t,n,e){return Math.round(q(t,n,e))}(t,n,e);return r<=0?0:r>=255?255:r}function z(t,n,e){return 0===t?n:1===t?e:{r:D(t,n.r,e.r),g:D(t,n.g,e.g),b:D(t,n.b,e.b),a:q(t,null==n.a?1:n.a,null==e.a?1:e.a)}}function V(t,n){for(var e=[],r=0;r<t;r++)e.push(n);return e}function G(t,n){if(--n<=0)return t;var e=(t=Object.assign([],t)).length;do{for(var r=0;r<e;r++)t.push(t[r])}while(--n>0);return t}var Y,$=function(){function t(n){r(this,t),this.list=n,this.length=n.length}return u(t,[{key:"setAttribute",value:function(t,n){for(var e=this.list,r=0;r<this.length;r++)e[r].setAttribute(t,n)}},{key:"removeAttribute",value:function(t){for(var n=this.list,e=0;e<this.length;e++)n[e].removeAttribute(t)}},{key:"style",value:function(t,n){for(var e=this.list,r=0;r<this.length;r++)e[r].style[t]=n}}]),t}(),U=/-./g,Q=function(t,n){return n.toUpperCase()};function H(t){return"function"==typeof t?t:T}function J(t){return t?"function"==typeof t?t:Array.isArray(t)?function(t){var n=arguments.length>1&&void 0!==arguments[1]?arguments[1]:b;if(!Array.isArray(t))return n;switch(t.length){case 1:return _(t[0])||n;case 2:return _(t[0],t[1])||n;case 4:return x(t[0],t[1],t[2],t[3])||n}return n}(t,null):function(t,n){var e=arguments.length>2&&void 0!==arguments[2]?arguments[2]:b;switch(t){case"linear":return b;case"steps":return _(n.steps||1,n.jump||0)||e;case"bezier":case"cubic-bezier":return x(n.x1||0,n.y1||0,n.x2||0,n.y2||0)||e}return e}(t.type,t.value,null):null}function Z(t,n,e){var r=arguments.length>3&&void 0!==arguments[3]&&arguments[3],i=n.length-1;if(t<=n[0].t)return r?[0,0,n[0].v]:n[0].v;if(t>=n[i].t)return r?[i,1,n[i].v]:n[i].v;var u,o=n[0],a=null;for(u=1;u<=i;u++){if(!(t>n[u].t)){a=n[u];break}o=n[u]}return null==a?r?[i,1,n[i].v]:n[i].v:o.t===a.t?r?[u,1,a.v]:a.v:(t=(t-o.t)/(a.t-o.t),o.e&&(t=o.e(t)),r?[u,t,e(t,o.v,a.v)]:e(t,o.v,a.v))}function K(t,n){var e=arguments.length>2&&void 0!==arguments[2]?arguments[2]:null;return t&&t.length?"function"!=typeof n?null:("function"!=typeof e&&(e=null),function(r){var i=Z(r,t,n);return null!=i&&e&&(i=e(i)),i}):null}function W(t,n){return t.t-n.t}function X(t,n,r,i,u){var o,a="@"===r[0],l="#"===r[0],s=Y[r],f=T;switch(a?(o=r.substr(1),r=o.replace(U,Q)):l&&(r=r.substr(1)),e(s)){case"function":if(f=s(i,u,Z,J,r,a,n,t),l)return f;break;case"string":f=K(i,H(s));break;case"object":if((f=K(i,H(s.i),s.f))&&"function"==typeof s.u)return s.u(n,f,r,a,t)}return f?function(t,n,e){if(arguments.length>3&&void 0!==arguments[3]&&arguments[3])return t instanceof $?function(r){return t.style(n,e(r))}:function(r){return t.style[n]=e(r)};if(Array.isArray(n)){var r=n.length;return function(i){var u=e(i);if(null==u)for(var o=0;o<r;o++)t[o].removeAttribute(n);else for(var a=0;a<r;a++)t[a].setAttribute(n,u)}}return function(r){var i=e(r);null==i?t.removeAttribute(n):t.setAttribute(n,i)}}(n,r,f,a):null}function tt(t,n,r,i){if(!i||"object"!==e(i))return null;var u=null,o=null;return Array.isArray(i)?o=function(t){if(!t||!t.length)return null;for(var n=0;n<t.length;n++)t[n].e&&(t[n].e=J(t[n].e));return t.sort(W)}(i):(o=i.keys,u=i.data||null),o?X(t,n,r,o,u):null}function nt(t,n,e){if(!e)return null;var r=[];for(var i in e)if(e.hasOwnProperty(i)){var u=tt(t,n,i,e[i]);u&&r.push(u)}return r.length?r:null}function et(t,n){if(!n.settings.duration||n.settings.duration<0)return null;var e,r,i,u,o,a=function(t,n){if(!n)return null;var e=[];if(Array.isArray(n))for(var r=n.length,i=0;i<r;i++){var u=n[i];if(2===u.length){var o=null;if("string"==typeof u[0])o=t.getElementById(u[0]);else if(Array.isArray(u[0])){o=[];for(var a=0;a<u[0].length;a++)if("string"==typeof u[0][a]){var l=t.getElementById(u[0][a]);l&&o.push(l)}o=o.length?1===o.length?o[0]:new $(o):null}if(o){var s=nt(t,o,u[1]);s&&(e=e.concat(s))}}}else for(var f in n)if(n.hasOwnProperty(f)){var c=t.getElementById(f);if(c){var h=nt(t,c,n[f]);h&&(e=e.concat(h))}}return e.length?e:null}(t,n.elements);return a?(e=a,r=n.settings,i=r.duration,u=e.length,o=null,function(t,n){var a=r.iterations||1/0,l=(r.alternate&&a%2==0)^r.direction>0?i:0,s=t%i,f=1+(t-s)/i;n*=r.direction,r.alternate&&f%2==0&&(n=-n);var c=!1;if(f>a)s=l,c=!0,-1===r.fill&&(s=r.direction>0?0:i);else if(n<0&&(s=i-s),s===o)return!1;o=s;for(var h=0;h<u;h++)e[h](s);return c}):null}function rt(t,n){if(Y=n,!t||!t.root||!Array.isArray(t.animations))return null;var e=function(t){for(var n=document.getElementsByTagName("svg"),e=0;e<n.length;e++)if(n[e].id===t.root&&!n[e].svgatorAnimation)return n[e].svgatorAnimation=!0,n[e];return null}(t);if(!e)return null;var r=t.animations.map((function(t){return et(e,t)})).filter((function(t){return!!t}));return r.length?{svg:e,animations:r,animationSettings:t.animationSettings,options:t.options||void 0}:null}function it(t){return+("0x"+(t.replace(/[^0-9a-fA-F]+/g,"")||27))}function ut(t,n,e){return!t||!e||n>t.length?t:t.substring(0,n)+ut(t.substring(n+1),e,e)}function ot(t){var n=arguments.length>1&&void 0!==arguments[1]?arguments[1]:27;return!t||t%n?t%n:ot(t/n,n)}function at(t,n,e){if(t&&t.length){var r=it(e),i=it(n),u=ot(r)+5,o=ut(t,ot(r,5),u);return o=o.replace(/\x7c$/g,"==").replace(/\x2f$/g,"="),o=function(t,n,e){var r=+("0x"+t.substring(0,4));t=t.substring(4);for(var i=n%r+e%27,u=[],o=0;o<t.length;o+=2)if("|"!==t[o]){var a=+("0x"+t[o]+t[o+1])-i;u.push(a)}else{var l=+("0x"+t.substring(o+1,o+1+4))-i;o+=3,u.push(l)}return String.fromCharCode.apply(String,u)}(o=(o=atob(o)).replace(/[\x41-\x5A]/g,""),i,r),o=JSON.parse(o)}}var lt=[{key:"alternate",def:!1},{key:"fill",def:1},{key:"iterations",def:0},{key:"direction",def:1},{key:"speed",def:1},{key:"fps",def:100}],st=function(){function t(n,e){var i=this,u=arguments.length>2&&void 0!==arguments[2]?arguments[2]:null;r(this,t),this._id=0,this._running=!1,this._rollingBack=!1,this._animations=n,this._settings=e,(!u||u<"2022-05-02")&&delete this._settings.speed,lt.forEach((function(t){i._settings[t.key]=i._settings[t.key]||t.def})),this.duration=e.duration,this.offset=e.offset||0,this.rollbackStartOffset=0}return u(t,[{key:"alternate",get:function(){return this._settings.alternate}},{key:"fill",get:function(){return this._settings.fill}},{key:"iterations",get:function(){return this._settings.iterations}},{key:"direction",get:function(){return this._settings.direction}},{key:"speed",get:function(){return this._settings.speed}},{key:"fps",get:function(){return this._settings.fps}},{key:"maxFiniteDuration",get:function(){return this.iterations>0?this.iterations*this.duration:this.duration}},{key:"_apply",value:function(t){for(var n=arguments.length>1&&void 0!==arguments[1]?arguments[1]:{},e=this._animations,r=e.length,i=0,u=0;u<r;u++)n[u]?i++:(n[u]=e[u](t,1),n[u]&&i++);return i}},{key:"_rollback",value:function(t){var n=this,e=1/0,r=null;this.rollbackStartOffset=t,this._rollingBack=!0,this._running=!0;this._id=window.requestAnimationFrame((function i(u){if(n._rollingBack){null==r&&(r=u);var o=Math.round(t-(u-r)*n.speed);if(o>n.duration&&e!==1/0){var a=!!n.alternate&&o/n.duration%2>1,l=o%n.duration;o=(l+=a?n.duration:0)||n.duration}var s=(n.fps?1e3/n.fps:0)*n.speed,f=Math.max(0,o);f<e-s&&(n.offset=f,e=f,n._apply(f));var c=n.iterations>0&&-1===n.fill&&o>=n.maxFiniteDuration;(o<=0||n.offset<o||c)&&n.stop(),n._id=window.requestAnimationFrame(i)}}))}},{key:"_start",value:function(){var t=this,n=arguments.length>0&&void 0!==arguments[0]?arguments[0]:0,e=-1/0,r=null,i={};this._running=!0;var u=function u(o){null==r&&(r=o);var a=Math.round((o-r)*t.speed+n),l=(t.fps?1e3/t.fps:0)*t.speed;if(a>e+l&&!t._rollingBack&&(t.offset=a,e=a,t._apply(a,i)===t._animations.length))return void t.pause(!0);t._id=window.requestAnimationFrame(u)};this._id=window.requestAnimationFrame(u)}},{key:"_pause",value:function(){this._id&&window.cancelAnimationFrame(this._id),this._running=!1}},{key:"play",value:function(){if(!this._running)return this._rollingBack?this._rollback(this.offset):this._start(this.offset)}},{key:"stop",value:function(){this._pause(),this.offset=0,this.rollbackStartOffset=0,this._rollingBack=!1,this._apply(0)}},{key:"reachedToEnd",value:function(){return this.iterations>0&&this.offset>=this.iterations*this.duration}},{key:"restart",value:function(){var t=arguments.length>0&&void 0!==arguments[0]&&arguments[0];this.stop(t),this.play(t)}},{key:"pause",value:function(){this._pause()}},{key:"reverse",value:function(){this.direction=-this.direction}}],[{key:"build",value:function(t,n){delete t.animationSettings,t.options=at(t.options,t.root,"5c7f360c"),t.animations.map((function(n){n.settings=at(n.s,t.root,"5c7f360c"),delete n.s,t.animationSettings||(t.animationSettings=n.settings)}));var e=t.version;if(!(t=rt(t,n)))return null;var r=t.options||{},i=new this(t.animations,t.animationSettings,e);return{el:t.svg,options:r,player:i}}},{key:"push",value:function(t){return this.build(t)}},{key:"init",value:function(){var t=this,n=window.__SVGATOR_PLAYER__&&window.__SVGATOR_PLAYER__["5c7f360c"];Array.isArray(n)&&n.splice(0).forEach((function(n){return t.build(n)}))}}]),t}();function ft(t){return d(t)+""}function ct(t){var n=arguments.length>1&&void 0!==arguments[1]?arguments[1]:" ";return t&&t.length?t.map(ft).join(n):""}function ht(t){if(!t)return"transparent";if(null==t.a||t.a>=1){var n=function(t){return 1===(t=parseInt(t).toString(16)).length?"0"+t:t},e=function(t){return t.charAt(0)===t.charAt(1)},r=n(t.r),i=n(t.g),u=n(t.b);return e(r)&&e(i)&&e(u)&&(r=r.charAt(0),i=i.charAt(0),u=u.charAt(0)),"#"+r+i+u}return"rgba("+t.r+","+t.g+","+t.b+","+t.a+")"}function vt(t){return t?"url(#"+t+")":"none"}!function(){for(var t=0,n=["ms","moz","webkit","o"],e=0;e<n.length&&!window.requestAnimationFrame;++e)window.requestAnimationFrame=window[n[e]+"RequestAnimationFrame"],window.cancelAnimationFrame=window[n[e]+"CancelAnimationFrame"]||window[n[e]+"CancelRequestAnimationFrame"];window.requestAnimationFrame||(window.requestAnimationFrame=function(n){var e=Date.now(),r=Math.max(0,16-(e-t)),i=window.setTimeout((function(){n(e+r)}),r);return t=e+r,i},window.cancelAnimationFrame=window.clearTimeout)}();var yt={f:null,i:function(t,n,e){return 0===t?n:1===t?e:{x:B(t,n.x,e.x),y:B(t,n.y,e.y)}},u:function(t,n){return function(e){var r=n(e);t.setAttribute("rx",ft(r.x)),t.setAttribute("ry",ft(r.y))}}},gt={f:null,i:function(t,n,e){return 0===t?n:1===t?e:{width:B(t,n.width,e.width),height:B(t,n.height,e.height)}},u:function(t,n){return function(e){var r=n(e);t.setAttribute("width",ft(r.width)),t.setAttribute("height",ft(r.height))}}};Object.freeze({M:2,L:2,Z:0,H:1,V:1,C:6,Q:4,T:2,S:4,A:7});var dt={},pt=null;function mt(t){var n=function(){if(pt)return pt;if("object"!==("undefined"==typeof document?"undefined":e(document))||!document.createElementNS)return{};var t=document.createElementNS("http://www.w3.org/2000/svg","svg");return t&&t.style?(t.style.position="absolute",t.style.opacity="0.01",t.style.zIndex="-9999",t.style.left="-9999px",t.style.width="1px",t.style.height="1px",pt={svg:t}):{}}().svg;if(!n)return function(t){return null};var r=document.createElementNS(n.namespaceURI,"path");r.setAttributeNS(null,"d",t),r.setAttributeNS(null,"fill","none"),r.setAttributeNS(null,"stroke","none"),n.appendChild(r);var i=r.getTotalLength();return function(t){var n=r.getPointAtLength(i*t);return{x:n.x,y:n.y}}}function bt(t){return dt[t]?dt[t]:dt[t]=mt(t)}function wt(t,n,e,r){if(!t||!r)return!1;var i=["M",t.x,t.y];if(n&&e&&(i.push("C"),i.push(n.x),i.push(n.y),i.push(e.x),i.push(e.y)),n?!e:e){var u=n||e;i.push("Q"),i.push(u.x),i.push(u.y)}return n||e||i.push("L"),i.push(r.x),i.push(r.y),i.join(" ")}function xt(t,n,e,r){var i=arguments.length>4&&void 0!==arguments[4]?arguments[4]:1,u=wt(t,n,e,r),o=bt(u);try{return o(i)}catch(t){return null}}function At(t,n,e){return t+(n-t)*e}function kt(t,n,e){var r=arguments.length>3&&void 0!==arguments[3]&&arguments[3],i={x:At(t.x,n.x,e),y:At(t.y,n.y,e)};return r&&(i.a=_t(t,n)),i}function _t(t,n){return Math.atan2(n.y-t.y,n.x-t.x)}function St(t,n,e,r){var i=1-r;return i*i*t+2*i*r*n+r*r*e}function Ot(t,n,e,r){return 2*(1-r)*(n-t)+2*r*(e-n)}function jt(t,n,e,r){var i=arguments.length>4&&void 0!==arguments[4]&&arguments[4],u=xt(t,n,null,e,r);return u||(u={x:St(t.x,n.x,e.x,r),y:St(t.y,n.y,e.y,r)}),i&&(u.a=Mt(t,n,e,r)),u}function Mt(t,n,e,r){return Math.atan2(Ot(t.y,n.y,e.y,r),Ot(t.x,n.x,e.x,r))}function Pt(t,n,e,r,i){var u=i*i;return i*u*(r-t+3*(n-e))+3*u*(t+e-2*n)+3*i*(n-t)+t}function Et(t,n,e,r,i){var u=1-i;return 3*(u*u*(n-t)+2*u*i*(e-n)+i*i*(r-e))}function It(t,n,e,r,i){var u=arguments.length>5&&void 0!==arguments[5]&&arguments[5],o=xt(t,n,e,r,i);return o||(o={x:Pt(t.x,n.x,e.x,r.x,i),y:Pt(t.y,n.y,e.y,r.y,i)}),u&&(o.a=Rt(t,n,e,r,i)),o}function Rt(t,n,e,r,i){return Math.atan2(Et(t.y,n.y,e.y,r.y,i),Et(t.x,n.x,e.x,r.x,i))}function Ft(t,n,e){var r=arguments.length>3&&void 0!==arguments[3]&&arguments[3];if(Tt(n)){if(qt(e))return jt(n,e.start,e,t,r)}else if(Tt(e)){if(Bt(n))return jt(n,n.end,e,t,r)}else{if(Bt(n))return qt(e)?It(n,n.end,e.start,e,t,r):jt(n,n.end,e,t,r);if(qt(e))return jt(n,e.start,e,t,r)}return kt(n,e,t,r)}function Nt(t,n,e){var r=Ft(t,n,e,!0);return r.a=function(t){return arguments.length>1&&void 0!==arguments[1]&&arguments[1]?t+Math.PI:t}(r.a)/m,r}function Tt(t){return!t.type||"corner"===t.type}function qt(t){return null!=t.start&&!Tt(t)}function Bt(t){return null!=t.end&&!Tt(t)}var Lt=new N;var Ct={f:ft,i:q},Dt={f:ft,i:L};function zt(t,n,e){return t.map((function(t){return function(t,n,e){var r=t.v;if(!r||"g"!==r.t||r.s||!r.v||!r.r)return t;var i=e.getElementById(r.r),u=i&&i.querySelectorAll("stop")||[];return r.s=r.v.map((function(t,n){var e=u[n]&&u[n].getAttribute("offset");return{c:t,o:e=d(parseInt(e)/100)}})),delete r.v,t}(t,0,e)}))}var Vt={gt:"gradientTransform",c:{x:"cx",y:"cy"},rd:"r",f:{x:"x1",y:"y1"},to:{x:"x2",y:"y2"}};function Gt(t,n,r,i,u,o,a,l){return zt(t,0,l),n=function(t,n,e){for(var r,i,u,o=t.length-1,a={},l=0;l<=o;l++)(r=t[l]).e&&(r.e=n(r.e)),r.v&&"g"===(i=r.v).t&&i.r&&(u=e.getElementById(i.r))&&(a[i.r]={e:u,s:u.querySelectorAll("stop")});return a}(t,i,l),function(i){var u=r(i,t,Yt);if(!u)return"none";if("c"===u.t)return ht(u.v);if("g"===u.t){if(!n[u.r])return vt(u.r);var o=n[u.r];return function(t,n){for(var e=t.s,r=e.length;r<n.length;r++){var i=e[e.length-1].cloneNode();i.id=Qt(i.id),t.e.appendChild(i),e=t.s=t.e.querySelectorAll("stop")}for(var u=0,o=e.length,a=n.length-1;u<o;u++)e[u].setAttribute("stop-color",ht(n[Math.min(u,a)].c)),e[u].setAttribute("offset",n[Math.min(u,a)].o)}(o,u.s),Object.keys(Vt).forEach((function(t){if(void 0!==u[t])if("object"!==e(Vt[t])){var n,r="gt"===t?(n=u[t],Array.isArray(n)?"matrix("+n.join(" ")+")":""):u[t],i=Vt[t];o.e.setAttribute(i,r)}else Object.keys(Vt[t]).forEach((function(n){if(void 0!==u[t][n]){var e=u[t][n],r=Vt[t][n];o.e.setAttribute(r,e)}}))})),vt(u.r)}return"none"}}function Yt(t,e,r){if(0===t)return e;if(1===t)return r;if(e&&r){var i=e.t;if(i===r.t)switch(e.t){case"c":return{t:i,v:z(t,e.v,r.v)};case"g":if(e.r===r.r){var u={t:i,s:$t(t,e.s,r.s),r:e.r};return e.gt&&r.gt&&(u.gt=function(t,n,e){var r=n.length;if(r!==e.length)return T(t,n,e);for(var i=new Array(r),u=0;u<r;u++)i[u]=q(t,n[u],e[u]);return i}(t,e.gt,r.gt)),e.c?(u.c=C(t,e.c,r.c),u.rd=B(t,e.rd,r.rd)):e.f&&(u.f=C(t,e.f,r.f),u.to=C(t,e.to,r.to)),u}}if("c"===e.t&&"g"===r.t||"c"===r.t&&"g"===e.t){var o="c"===e.t?e:r,a="g"===e.t?n({},e):n({},r),l=a.s.map((function(t){return{c:o.v,o:t.o}}));return a.s="c"===e.t?$t(t,l,a.s):$t(t,a.s,l),a}}return T(t,e,r)}function $t(t,n,e){if(n.length===e.length)return n.map((function(n,r){return Ut(t,n,e[r])}));for(var r=Math.max(n.length,e.length),i=[],u=0;u<r;u++){var o=Ut(t,n[Math.min(u,n.length-1)],e[Math.min(u,e.length-1)]);i.push(o)}return i}function Ut(t,n,e){return{o:L(t,n.o,e.o||0),c:z(t,n.c,e.c||{})}}function Qt(t){return t.replace(/-fill-([0-9]+)$/,(function(t,n){return"-fill-"+(+n+1)}))}var Ht={fill:Gt,"fill-opacity":Dt,stroke:Gt,"stroke-opacity":Dt,"stroke-width":Ct,"stroke-dashoffset":{f:ft,i:q},"stroke-dasharray":{f:function(t){var n=arguments.length>1&&void 0!==arguments[1]?arguments[1]:" ";return t&&t.length>0&&(t=t.map((function(t){return d(t,4)}))),ct(t,n)},i:function(t,n,e){var r,i,u,o=n.length,a=e.length;if(o!==a)if(0===o)n=V(o=a,0);else if(0===a)a=o,e=V(o,0);else{var l=(u=(r=o)*(i=a)/function(t,n){for(var e;n;)e=n,n=t%n,t=e;return t||1}(r,i))<0?-u:u;n=G(n,Math.floor(l/o)),e=G(e,Math.floor(l/a)),o=a=l}for(var s=[],f=0;f<o;f++)s.push(d(B(t,n[f],e[f])));return s}},opacity:Dt,transform:function(t,n,r,i){if(!(t=function(t,n){if(!t||"object"!==e(t))return null;var r=!1;for(var i in t)t.hasOwnProperty(i)&&(t[i]&&t[i].length?(t[i].forEach((function(t){t.e&&(t.e=n(t.e))})),r=!0):delete t[i]);return r?t:null}(t,i)))return null;var u=function(e,i,u){var o=arguments.length>3&&void 0!==arguments[3]?arguments[3]:null;return t[e]?r(i,t[e],u):n&&n[e]?n[e]:o};return n&&n.a&&t.o?function(n){var e=r(n,t.o,Nt);return Lt.recomposeSelf(e,u("r",n,q,0)+e.a,u("k",n,C),u("s",n,C),u("t",n,C)).toString()}:function(t){return Lt.recomposeSelf(u("o",t,Ft,null),u("r",t,q,0),u("k",t,C),u("s",t,C),u("t",t,C)).toString()}},r:Ct,"#size":gt,"#radius":yt,_:function(t,n){if(Array.isArray(t))for(var e=0;e<t.length;e++)this[t[e]]=n;else this[t]=n}},Jt=function(t){!function(t,n){if("function"!=typeof n&&null!==n)throw new TypeError("Super expression must either be null or a function");t.prototype=Object.create(n&&n.prototype,{constructor:{value:t,writable:!0,configurable:!0}}),n&&l(t,n)}(o,t);var n,e,i=(n=o,e=s(),function(){var t,r=a(n);if(e){var i=a(this).constructor;t=Reflect.construct(r,arguments,i)}else t=r.apply(this,arguments);return c(this,t)});function o(){return r(this,o),i.apply(this,arguments)}return u(o,null,[{key:"build",value:function(t){var n=h(a(o),"build",this).call(this,t,Ht);if(!n)return null;n.el,n.options,function(t,n,e){t.play()}(n.player)}}]),o}(st);return Jt.init(),Jt}));
(function(s,i,o,w,a,b){w[o]=w[o]||{};w[o][s]=w[o][s]||[];w[o][s].push(i);})('5c7f360c',{"root":"e2JkT5nlUe71","version":"2022-05-04","animations":[{"elements":{"e2JkT5nlUe73":{"transform":{"data":{"t":{"x":-311.953575,"y":-375.975807}},"keys":{"o":[{"t":0,"v":{"x":311.953575,"y":375.975807,"type":"corner"}},{"t":1000,"v":{"x":348.143044,"y":373.476993,"type":"corner"}},{"t":1900,"v":{"x":315.682094,"y":373.476993,"type":"corner"}}],"r":[{"t":0,"v":0},{"t":1000,"v":5.76524,"e":[0.42,0,0.58,1]},{"t":1900,"v":0.57057}]}}},"e2JkT5nlUe714":{"transform":{"data":{"t":{"x":-739.647369,"y":-370.516983}},"keys":{"o":[{"t":0,"v":{"x":714.771038,"y":378.063637,"type":"corner"}},{"t":700,"v":{"x":748.407038,"y":421.370003,"type":"corner"}},{"t":1400,"v":{"x":716.657038,"y":372.355852,"type":"corner"}}]}}},"e2JkT5nlUe718":{"transform":{"data":{"o":{"x":581.686275,"y":490.681775,"type":"corner"},"t":{"x":-595.181225,"y":-494.45305}},"keys":{"r":[{"t":0,"v":0},{"t":700,"v":18.686068},{"t":1400,"v":-0.661038}]}}}},"s":"MIDA1M2MyNjlhYmJjVmQI5YThiYkpiMGI2YjUB2OTgxN2E3Nzc3Szc3XNzM2OWFiYjBNYjlhYK2FhYmJiMGI2YjVBNjBk4MUg3OEY3MzY5YjBHiYmFjYjlhOGJiYjBiNNmI1YmE2OTgxNzc3MVzY5YWRiMGIzYjM2OULc4MTc4NzM2OWE4VWIXzYmJhY2I5YjVhOGJiAYWM2OTgxU2FkYThiML2JhYWM3MzY5YmFiN2YFjYWNhYjY5ODE3OFNLjNA|"}],"options":"MHDAxMDg4MmY4MDgxNmPU3ZjgxMmY0NzJmNzkN3YzZlNzEyZjhh"},'__SVGATOR_PLAYER__',window)]]></script></svg>