<svg aria-hidden="true" style="position: absolute; width: 0; height: 0; overflow: hidden;" version="1.1" xmlns="http://www.w3.org/2000/svg" xmlns:xlink="http://www.w3.org/1999/xlink">
<defs>
<symbol id="icon-academic" viewBox="0 0 32 32">
<path d="M29.154 23.402v-9.602l-11.754 6.615q-0.176 0.099-0.364 0.175t-0.384 0.126-0.397 0.076-0.403 0.024-0.403-0.028-0.396-0.080-0.382-0.131-0.362-0.179l-13.139-7.579q-0.066-0.038-0.13-0.081t-0.125-0.089-0.118-0.097-0.112-0.105-0.105-0.112-0.097-0.118-0.089-0.125-0.081-0.13-0.072-0.135-0.063-0.14-0.054-0.143-0.044-0.147-0.035-0.149-0.025-0.151-0.015-0.152-0.005-0.153 0.005-0.153 0.015-0.152 0.025-0.151 0.035-0.149 0.044-0.147 0.054-0.143 0.063-0.14 0.072-0.135 0.081-0.13 0.089-0.125 0.097-0.118 0.105-0.112 0.112-0.105 0.118-0.097 0.125-0.089 0.13-0.081l13.118-7.567q0.177-0.102 0.366-0.18t0.387-0.131 0.401-0.079 0.408-0.026 0.408 0.027 0.4 0.080 0.387 0.131 0.366 0.181l13.451 7.777q0.088 0.051 0.17 0.113t0.153 0.135 0.134 0.153 0.113 0.17 0.090 0.183 0.066 0.193 0.040 0.2 0.013 0.203v13.075q0 0.061-0.006 0.122t-0.018 0.121-0.030 0.118-0.041 0.115-0.052 0.11-0.063 0.105-0.073 0.098-0.082 0.090-0.090 0.082-0.098 0.073-0.105 0.063-0.11 0.052-0.115 0.041-0.118 0.030-0.121 0.018-0.122 0.006h-0.002q-0.061 0-0.122-0.006t-0.121-0.018-0.118-0.030-0.115-0.041-0.11-0.052-0.105-0.063-0.098-0.073-0.090-0.082-0.082-0.090-0.073-0.098-0.063-0.105-0.052-0.11-0.041-0.115-0.030-0.118-0.018-0.121-0.006-0.122v0zM15.819 31.198c-4.437 0-8.307-3.025-9.719-4.277-0.322-0.286-0.569-0.882-0.569-1.312v-6.64q0-0.051 0.007-0.101t0.020-0.099 0.032-0.096 0.044-0.091 0.056-0.084 0.066-0.076 0.076-0.067 0.084-0.057 0.090-0.046 0.096-0.033 0.099-0.021 0.101-0.008 0.101 0.005 0.1 0.018 0.096 0.031 0.091 0.043l8.022 4.46q0.127 0.071 0.262 0.125t0.275 0.092 0.285 0.057 0.289 0.021 0.29-0.015 0.286-0.051 0.277-0.085 0.265-0.119l7.755-4.088q0.044-0.023 0.091-0.041t0.096-0.029 0.099-0.016 0.1-0.003 0.1 0.009 0.098 0.022 0.094 0.034 0.089 0.046 0.082 0.057 0.074 0.067 0.065 0.076 0.055 0.084 0.044 0.090 0.032 0.095 0.019 0.098 0.006 0.1v6.236c0 0.431-0.24 1.034-0.555 1.327-1.355 1.261-5.044 4.263-9.464 4.263z"></path>
</symbol>
<symbol id="icon-academic-circle" viewBox="0 0 32 32">
<path fill="none" stroke="currentColor" stroke-linejoin="miter" stroke-linecap="round" stroke-miterlimit="4" stroke-width="2" d="M1.091 16c0-8.234 6.675-14.909 14.909-14.909s14.909 6.675 14.909 14.909c0 8.234-6.675 14.909-14.909 14.909s-14.909-6.675-14.909-14.909z"></path>
<path d="M15.649 23.273c-2.708 0-4.984-1.764-5.965-2.66-0.296-0.271-0.518-0.834-0.518-1.236v-3.278l-2.254-1.252q-0.041-0.023-0.081-0.049t-0.078-0.054-0.074-0.059-0.070-0.064-0.065-0.068-0.061-0.073-0.056-0.076-0.051-0.080-0.045-0.083-0.039-0.086-0.034-0.088-0.028-0.091-0.022-0.092-0.015-0.093-0.009-0.094-0.003-0.095 0.003-0.095 0.010-0.094 0.016-0.093 0.022-0.092 0.028-0.090 0.034-0.088 0.040-0.086 0.046-0.083 0.051-0.080 0.056-0.076 0.061-0.072 0.066-0.068 0.070-0.063 0.074-0.059 0.078-0.053 0.082-0.048l6.292-3.44q0.279-0.153 0.575-0.269t0.604-0.196 0.624-0.119 0.634-0.040 0.634 0.039 0.624 0.118 0.605 0.194 0.576 0.268l6.245 3.399q0.086 0.047 0.164 0.104t0.149 0.125 0.131 0.144 0.11 0.16 0.088 0.174 0.064 0.184 0.039 0.191 0.013 0.194v5.674q0 0.042-0.004 0.083t-0.012 0.082-0.020 0.081-0.027 0.079-0.035 0.076-0.042 0.072-0.049 0.068-0.055 0.063-0.061 0.057-0.066 0.051-0.070 0.044-0.074 0.037-0.078 0.030-0.080 0.022-0.082 0.015-0.083 0.007l-0.001 0q-0.041 0.001-0.081-0.001t-0.081-0.009-0.079-0.018-0.077-0.025-0.074-0.033-0.071-0.040-0.066-0.047-0.061-0.053-0.055-0.059-0.049-0.065-0.043-0.069-0.035-0.073-0.028-0.076-0.020-0.079-0.012-0.080-0.004-0.081v-4.253l-1.233 1.029v3.278c0 0.401-0.224 0.963-0.522 1.232-0.993 0.895-3.299 2.664-6.011 2.664zM16.581 16.637l5.018-2.412q0.023-0.011 0.044-0.023t0.043-0.026 0.041-0.029 0.039-0.032 0.036-0.035 0.034-0.037 0.031-0.039 0.029-0.041 0.026-0.043 0.023-0.045 0.019-0.046 0.016-0.048 0.013-0.049 0.009-0.049 0.006-0.050 0.003-0.050-0.001-0.050-0.004-0.050-0.008-0.050-0.011-0.049-0.015-0.048-0.018-0.047-0.021-0.046-0.024-0.044-0.027-0.042-0.030-0.040-0.033-0.038-0.035-0.036-0.038-0.033-0.040-0.030-0.042-0.028-0.044-0.025l-4.978-2.585q-0.116-0.060-0.238-0.106t-0.249-0.077-0.257-0.047-0.261-0.016-0.261 0.016-0.257 0.047-0.249 0.077-0.238 0.106l-4.978 2.585q-0.022 0.012-0.044 0.025t-0.042 0.028-0.040 0.030-0.038 0.033-0.035 0.036-0.033 0.038-0.030 0.040-0.027 0.042-0.024 0.044-0.021 0.046-0.018 0.047-0.015 0.048-0.011 0.049-0.008 0.050-0.004 0.050-0.001 0.050 0.003 0.050 0.006 0.050 0.009 0.049 0.013 0.049 0.016 0.048 0.019 0.046 0.023 0.045 0.026 0.043 0.028 0.041 0.031 0.039 0.034 0.037 0.036 0.035 0.039 0.032 0.041 0.029 0.043 0.026 0.044 0.023l5.018 2.412q0.11 0.053 0.226 0.093t0.235 0.067 0.241 0.041 0.244 0.014 0.244-0.014 0.241-0.041 0.235-0.067 0.226-0.093zM15.649 21.455c2.978 0 4.715-2.178 4.715-2.178v-2.186l-2.58 1.196q-0.25 0.116-0.512 0.204t-0.531 0.148-0.544 0.090-0.55 0.030-0.55-0.029-0.544-0.089-0.531-0.147-0.512-0.203l-2.603-1.2c0 0 0 2.186 0 2.186s1.761 2.178 4.74 2.178z"></path>
</symbol>
<symbol id="icon-cert-date-icon" viewBox="0 0 32 32">
<path stroke="none" d="M16 0c-8.817 0-16 7.183-16 16s7.183 16 16 16c8.817 0 16-7.183 16-16s-7.183-16-16-16v0zM16 2.462c7.49 0 13.538 6.048 13.538 13.538s-6.048 13.538-13.538 13.538c-7.49 0-13.538-6.048-13.538-13.538s6.048-13.538 13.538-13.538v0zM22.425 9.955c-0.042-0.004-8.792 9.333-8.792 9.333s-3.332-3.494-3.622-3.747c-0.829-0.502-1.623-0.126-1.822 0.051s-0.707 0.745-0.104 1.945c0.135 0.162 2.897 3.021 4.472 4.65 0 0 0.822 0.819 2.203-0.055 0.015 0.030 9.924-10.285 9.92-10.286 0.474-1.155-0.021-1.801-0.096-1.89-0.124-0.147-0.981-0.754-2.159-0z"></path>
</symbol>
<symbol id="icon-cert-duration-icon" viewBox="0 0 32 32">
<path fill="none" stroke-linejoin="round" stroke-linecap="round" stroke-miterlimit="4" stroke-width="3.1998" d="M5.269 6.4c-2.329 2.601-3.632 5.959-3.668 9.45-0.089 7.976 6.424 14.535 14.4 14.55 7.965 0.015 14.4-6.437 14.4-14.4 0-7.84-6.266-14.221-14.062-14.4-0.089-0.003-0.175 0.030-0.238 0.092s-0.099 0.147-0.099 0.236v6.272"></path>
<path fill="#1e74ff" style="fill: var(--color-secondary, #1e74ff)" d="M14.305 17.697l-5.925-8.475c-0.169-0.242-0.14-0.571 0.069-0.78s0.538-0.238 0.78-0.069l8.475 5.925c1.082 0.779 1.337 2.283 0.573 3.375s-2.264 1.368-3.367 0.62c-0.234-0.162-0.439-0.364-0.605-0.595v0z"></path>
</symbol>
<symbol id="icon-close-outline" viewBox="0 0 32 32">
<path stroke="#ffffff" style="stroke: var(--color-white)" stroke-linejoin="round" stroke-linecap="round" stroke-miterlimit="4" stroke-width="2" d="M23 23l-14-14M23 9l-14 14"></path>
</symbol>
<symbol id="icon-edu-duration" viewBox="0 0 32 32">
<path fill="none" style="stroke: var(--color-green)" stroke-linejoin="round" stroke-linecap="round" stroke-miterlimit="4" stroke-width="4.5" d="M5.78 6.857c-2.218 2.477-3.459 5.675-3.494 9-0.084 7.596 6.118 13.843 13.714 13.857 7.586 0.014 13.714-6.131 13.714-13.714 0-7.467-5.968-13.543-13.393-13.714-0.084-0.003-0.166 0.029-0.227 0.088s-0.095 0.14-0.094 0.224v5.974"></path>
<path style="fill: var(--color-green)" d="M14.385 17.616l-5.643-8.071c-0.161-0.231-0.134-0.544 0.066-0.743s0.512-0.227 0.743-0.066l8.071 5.643c1.030 0.742 1.273 2.174 0.546 3.214s-2.156 1.303-3.206 0.59c-0.223-0.155-0.418-0.346-0.576-0.567v0z"></path>
</symbol>
<symbol id="icon-edu-location" viewBox="0 0 32 32">
<path style="fill: var(--color-green)" d="M16.302 0.615h0.004q0.316 0 0.631 0.020t0.628 0.061 0.623 0.101 0.615 0.141 0.605 0.18 0.592 0.219 0.577 0.256 0.559 0.293 0.539 0.328 0.517 0.362 0.492 0.394 0.466 0.425 0.438 0.454 0.408 0.482 0.376 0.507 0.343 0.53 0.308 0.551 0.272 0.569 0.234 0.586 0.197 0.6 0.158 0.611 0.118 0.62 0.078 0.626 0.038 0.63-0.003 0.631-0.044 0.629-0.084 0.625-0.124 0.619-0.164 0.609-0.202 0.598-0.24 0.583-0.277 0.567l-8.671 16.364-8.671-16.364q-0.148-0.279-0.277-0.567t-0.24-0.583-0.202-0.598-0.164-0.609-0.124-0.619-0.084-0.625-0.044-0.629-0.003-0.631 0.037-0.63 0.078-0.626 0.118-0.62 0.158-0.611 0.196-0.6 0.235-0.586 0.272-0.569 0.308-0.551 0.343-0.53 0.376-0.507 0.408-0.482 0.438-0.454 0.466-0.425 0.492-0.394 0.517-0.362 0.539-0.328 0.559-0.293 0.577-0.256 0.592-0.219 0.605-0.18 0.615-0.141 0.623-0.101 0.628-0.061 0.631-0.020z"></path>
<path fill="#ffffff" d="M12.207 10.482c0-2.309 1.872-4.181 4.181-4.181s4.181 1.872 4.181 4.181c0 2.309-1.872 4.181-4.181 4.181s-4.181-1.872-4.181-4.181z"></path>
</symbol>
<symbol id="icon-email" viewBox="0 0 32 32">
<path fill="none" stroke-linejoin="miter" stroke-linecap="round" stroke-miterlimit="4" stroke-width="1.2152" d="M0.608 16c0-8.501 6.891-15.392 15.392-15.392s15.392 6.891 15.392 15.392c0 8.501-6.891 15.392-15.392 15.392s-15.392-6.891-15.392-15.392z"></path>
<path d="M17.978 18.917q-0.496 0-0.886-0.233t-0.543-0.751q-0.43 0.525-0.911 0.751t-1.035 0.226q-0.459 0-0.798-0.16t-0.569-0.441-0.343-0.663-0.113-0.835q0-0.416 0.106-0.842t0.317-0.824 0.529-0.744 0.747-0.605 0.962-0.408 1.181-0.149q0.561 0 0.962 0.088t0.773 0.248l-0.7 2.705q-0.117 0.467-0.117 0.78 0 0.219 0.055 0.365t0.146 0.233 0.222 0.12 0.284 0.033q0.306 0 0.58-0.193t0.478-0.543 0.324-0.831 0.12-1.050q0-0.948-0.295-1.67t-0.824-1.207-1.265-0.729-1.611-0.244q-0.955 0-1.775 0.361t-1.422 0.988-0.941 1.48-0.339 1.837q0 1.196 0.372 2.104t1.021 1.517c0.433 0.406 0.942 0.711 1.527 0.915q0.879 0.306 1.899 0.306 0.561 0 1.050-0.062t0.897-0.168 0.744-0.241 0.598-0.288q0.146-0.080 0.248-0.080 0.211 0 0.299 0.233l0.248 0.649q-0.758 0.496-1.772 0.809t-2.311 0.314q-1.32 0-2.443-0.416t-1.943-1.192-1.283-1.892-0.463-2.508q0-0.78 0.2-1.517t0.572-1.382 0.897-1.185 1.167-0.926 1.389-0.602 1.564-0.215q1.035 0 1.987 0.346t1.684 0.992 1.17 1.575 0.437 2.096q0 0.78-0.23 1.462t-0.642 1.185-0.97 0.791-1.214 0.288zM14.959 17.751q0.19 0 0.383-0.058t0.368-0.208 0.321-0.397 0.241-0.62l0.532-2.056q-0.233-0.044-0.481-0.044-0.452 0-0.846 0.197t-0.682 0.532-0.456 0.769-0.168 0.9 0.2 0.725 0.587 0.259z"></path>
</symbol>
<symbol id="icon-gears" viewBox="0 0 32 32">
<path d="M22.667 14.193v-3.053c-1.56-0.556-2.543-0.711-3.040-1.908-0.497-1.2 0.093-2.015 0.8-3.499l-2.157-2.159c-1.473 0.7-2.297 1.297-3.501 0.799-1.2-0.497-1.356-1.487-1.908-3.039h-3.053c-0.549 1.544-0.707 2.541-1.908 3.039h-0.001c-1.2 0.499-2.013-0.092-3.5-0.799l-2.156 2.159c0.703 1.48 1.297 2.297 0.8 3.499-0.5 1.201-1.497 1.36-3.041 1.909v3.052c1.54 0.549 2.543 0.707 3.040 1.907 0.501 1.211-0.108 2.045-0.8 3.5l2.157 2.159c1.476-0.7 2.299-1.299 3.5-0.8h0.001c1.2 0.497 1.357 1.491 1.908 3.040h3.052c0.549-1.544 0.707-2.54 1.916-3.043h0.001c1.192-0.496 2.001 0.095 3.492 0.803l2.157-2.159c-0.7-1.476-1.299-2.297-0.801-3.5 0.499-1.199 1.501-1.359 3.043-1.907v0zM11.333 16.445c-2.085 0-3.777-1.692-3.777-3.779s1.692-3.779 3.777-3.779c2.085 0 3.777 1.692 3.777 3.779s-1.692 3.779-3.777 3.779v0zM32 22.052v-1.436c-0.733-0.261-1.196-0.335-1.431-0.897-0.235-0.565 0.044-0.948 0.376-1.648l-1.016-1.016c-0.693 0.331-1.081 0.611-1.647 0.377s-0.639-0.7-0.899-1.431h-1.435c-0.259 0.727-0.333 1.196-0.899 1.431s-0.948-0.044-1.647-0.377l-1.016 1.016c0.331 0.697 0.611 1.083 0.376 1.648s-0.704 0.639-1.431 0.897v1.436c0.725 0.257 1.196 0.333 1.431 0.897 0.236 0.569-0.051 0.963-0.376 1.648l1.016 1.016c0.695-0.331 1.083-0.611 1.647-0.377 0.565 0.233 0.639 0.701 0.899 1.431h1.435c0.259-0.727 0.333-1.196 0.901-1.432h0.001c0.561-0.233 0.941 0.045 1.643 0.379l1.016-1.016c-0.329-0.695-0.611-1.083-0.376-1.647s0.705-0.641 1.431-0.899v0zM26.667 23.111c-0.981 0-1.777-0.796-1.777-1.777s0.796-1.777 1.777-1.777c0.981 0 1.777 0.796 1.777 1.777s-0.796 1.777-1.777 1.777v0zM21.333 27.205v-1.077c-0.549-0.196-0.897-0.251-1.073-0.673s0.032-0.711 0.283-1.236l-0.763-0.761c-0.519 0.248-0.809 0.459-1.235 0.283s-0.479-0.525-0.675-1.073h-1.076c-0.195 0.545-0.251 0.897-0.675 1.073-0.423 0.176-0.711-0.032-1.235-0.283l-0.763 0.761c0.249 0.524 0.459 0.812 0.283 1.236s-0.528 0.479-1.073 0.673v1.077c0.544 0.193 0.897 0.251 1.073 0.673 0.177 0.427-0.037 0.723-0.283 1.236l0.763 0.761c0.52-0.248 0.811-0.459 1.235-0.283s0.479 0.527 0.675 1.073h1.076c0.195-0.545 0.251-0.897 0.676-1.073h0.001c0.42-0.175 0.705 0.033 1.232 0.284l0.763-0.761c-0.248-0.521-0.459-0.812-0.283-1.236s0.529-0.481 1.073-0.675v0zM17.333 28c-0.736 0-1.333-0.596-1.333-1.333s0.597-1.333 1.333-1.333c0.736 0 1.333 0.596 1.333 1.333s-0.597 1.333-1.333 1.333v0z"></path>
</symbol>
<symbol id="icon-handshake-circle" viewBox="0 0 32 32">
<path stroke-linejoin="round" stroke-linecap="round" stroke-miterlimit="4" stroke-width="0.3636" d="M15.9 23.57c0.066 0 0.143-0.017 0.229-0.050s0.156-0.077 0.209-0.131l6.707-6.812c0.172-0.175 0.302-0.373 0.388-0.595s0.129-0.447 0.129-0.675-0.043-0.457-0.129-0.685c-0.086-0.228-0.216-0.43-0.388-0.605l-3.583-3.628c-0.172-0.175-0.372-0.306-0.597-0.393s-0.451-0.131-0.677-0.131c-0.226 0-0.448 0.044-0.667 0.131s-0.415 0.218-0.587 0.393l-0.358 0.363 1.612 1.653c0.172 0.188 0.325 0.406 0.458 0.655s0.199 0.521 0.199 0.816c0 0.511-0.196 0.961-0.587 1.35s-0.839 0.585-1.343 0.585c-0.332 0-0.607-0.050-0.826-0.151s-0.421-0.245-0.607-0.433l-1.453-1.471-3.603 3.648c-0.066 0.067-0.113 0.138-0.139 0.212s-0.040 0.151-0.040 0.232c0 0.175 0.056 0.319 0.169 0.433s0.255 0.171 0.428 0.171c0.080 0 0.156-0.020 0.229-0.061s0.136-0.087 0.189-0.141l2.747-2.781 0.836 0.847-2.727 2.761c-0.066 0.067-0.113 0.141-0.139 0.222s-0.040 0.161-0.040 0.242c0 0.161 0.060 0.302 0.179 0.423s0.259 0.181 0.418 0.181c0.080 0 0.156-0.017 0.229-0.050s0.136-0.077 0.189-0.131l2.747-2.781 0.836 0.847-2.727 2.761c-0.053 0.054-0.096 0.124-0.129 0.212s-0.050 0.171-0.050 0.252c0 0.161 0.060 0.302 0.179 0.423s0.259 0.181 0.418 0.181c0.080 0 0.153-0.013 0.219-0.040s0.133-0.074 0.199-0.141l2.747-2.781 0.836 0.847-2.747 2.781c-0.066 0.067-0.113 0.141-0.139 0.222s-0.040 0.155-0.040 0.222c0 0.188 0.053 0.336 0.159 0.443s0.252 0.161 0.438 0.161v0zM15.901 24.779c-0.438 0-0.829-0.165-1.174-0.494s-0.551-0.736-0.617-1.219c-0.451-0.067-0.829-0.255-1.135-0.564s-0.491-0.692-0.557-1.149c-0.451-0.067-0.826-0.259-1.125-0.574s-0.481-0.695-0.547-1.139c-0.491-0.067-0.896-0.269-1.214-0.605s-0.478-0.739-0.478-1.209c0-0.228 0.043-0.457 0.129-0.685s0.216-0.43 0.388-0.605l4.458-4.515 2.189 2.217c0.106 0.107 0.222 0.191 0.348 0.252s0.388-0 0.508-0c0.172 0 0.196 0.013 0.348-0.141s0.229-0.319 0.229-0.494c0-0.081-0.023-0.171-0.070-0.272s-0.123-0.205-0.229-0.312l-2.846-2.882c-0.172-0.175-0.372-0.306-0.597-0.393s-0.451-0.131-0.677-0.131c-0.226 0-0.448 0.044-0.667 0.131s-0.415 0.218-0.587 0.393l-3.025 3.064c-0.186 0.188-0.315 0.386-0.388 0.595s-0.116 0.44-0.129 0.695c-0.013 0.269 0.037 0.527 0.149 0.776s0.249 0.474 0.408 0.675l-0.856 0.867c-0.265-0.296-0.481-0.652-0.647-1.068s-0.249-0.84-0.249-1.27c0-0.403 0.076-0.789 0.229-1.159s0.368-0.695 0.647-0.977l3.005-3.043c0.292-0.296 0.624-0.514 0.995-0.655s0.75-0.212 1.134-0.212c0.385 0 0.76 0.071 1.125 0.212s0.693 0.359 0.985 0.655l0.358 0.363 0.358-0.363c0.292-0.296 0.624-0.514 0.995-0.655s0.75-0.212 1.134-0.212c0.385 0 0.76 0.071 1.125 0.212s0.693 0.359 0.985 0.655l3.563 3.608c0.292 0.296 0.511 0.632 0.657 1.008s0.219 0.759 0.219 1.149c0 0.39-0.073 0.769-0.219 1.139s-0.365 0.702-0.657 0.998l-6.708 6.792c-0.172 0.175-0.368 0.309-0.587 0.403s-0.448 0.141-0.687 0.141v0z"></path>
<path stroke-linejoin="miter" fill="#00000000" stroke-linecap="round" stroke="currentColor" stroke-miterlimit="4" stroke-width="2" d="M1.091 16c0-8.234 6.675-14.909 14.909-14.909s14.909 6.675 14.909 14.909c0 8.234-6.675 14.909-14.909 14.909s-14.909-6.675-14.909-14.909z"></path>
</symbol>
<symbol id="icon-linkedin" viewBox="0 0 32 32">
<path fill="none" stroke-linejoin="miter" stroke-linecap="round" stroke-miterlimit="4" stroke-width="1.2152" d="M0.608 16c0-8.501 6.891-15.392 15.392-15.392s15.392 6.891 15.392 15.392c0 8.501-6.891 15.392-15.392 15.392s-15.392-6.891-15.392-15.392z"></path>
<path d="M12.085 11.98q0.095-0.204 0.095-0.437 0-0.241-0.095-0.452t-0.252-0.365-0.368-0.244-0.452-0.091q-0.233 0-0.441 0.091t-0.361 0.244-0.244 0.365-0.091 0.452q0 0.233 0.091 0.437t0.244 0.357 0.361 0.244 0.441 0.091q0.241 0 0.452-0.091t0.368-0.244 0.252-0.357zM14.755 13.723v7.481h1.801v-5.41q0.365-0.365 0.773-0.576t0.875-0.211q0.634 0 0.951 0.376t0.317 1.061v4.761h1.801v-4.761q0-0.627-0.164-1.148t-0.481-0.897-0.791-0.583-1.086-0.208q-0.379 0-0.7 0.073t-0.602 0.211-0.532 0.328-0.478 0.423l-0.124-0.591q-0.109-0.328-0.459-0.328h-1.101zM11.91 21.203v-7.481h-1.801v7.481h1.801z"></path>
</symbol>
<symbol id="icon-logo" viewBox="0 0 32 32">
<path fill="#b6b6b6" style="fill: var(--color8, #b6b6b6)" d="M9.552 5.153h14.135q0.069 0 0.138 0.003t0.138 0.010 0.137 0.017 0.136 0.024 0.135 0.030 0.133 0.037 0.131 0.043 0.129 0.050 0.127 0.056 0.124 0.062 0.12 0.068 0.117 0.074 0.113 0.080 0.109 0.085 0.105 0.090 0.1 0.095 0.095 0.1 0.090 0.105 0.085 0.109 0.080 0.113 0.074 0.117 0.068 0.12 0.062 0.124 0.056 0.127 0.050 0.129 0.043 0.131 0.037 0.133 0.030 0.135 0.024 0.136 0.017 0.137 0.010 0.138 0.003 0.138v0.001q0 0.069-0.003 0.138t-0.010 0.138-0.017 0.137-0.024 0.136-0.030 0.135-0.037 0.133-0.043 0.131-0.050 0.129-0.056 0.127-0.062 0.124-0.068 0.12-0.074 0.117-0.080 0.113-0.085 0.109-0.090 0.105-0.095 0.1-0.1 0.095-0.105 0.090-0.109 0.085-0.113 0.080-0.117 0.074-0.12 0.068-0.124 0.062-0.127 0.056-0.129 0.050-0.131 0.043-0.133 0.037-0.135 0.030-0.136 0.024-0.137 0.017-0.138 0.010-0.138 0.003h-14.135q-0.069 0-0.138-0.003t-0.138-0.010-0.137-0.017-0.136-0.024-0.135-0.030-0.133-0.037-0.131-0.043-0.129-0.050-0.126-0.056-0.124-0.062-0.12-0.068-0.117-0.074-0.113-0.080-0.109-0.085-0.105-0.090-0.1-0.095-0.095-0.1-0.090-0.105-0.085-0.109-0.080-0.113-0.074-0.117-0.068-0.12-0.062-0.124-0.056-0.127-0.050-0.129-0.043-0.131-0.037-0.133-0.030-0.135-0.024-0.136-0.017-0.137-0.010-0.138-0.003-0.138v-0.001q0-0.069 0.003-0.138t0.010-0.138 0.017-0.137 0.024-0.136 0.030-0.135 0.037-0.133 0.043-0.131 0.050-0.129 0.056-0.127 0.062-0.124 0.068-0.12 0.074-0.117 0.080-0.113 0.085-0.109 0.090-0.105 0.095-0.1 0.1-0.095 0.105-0.090 0.109-0.085 0.113-0.080 0.117-0.074 0.12-0.068 0.124-0.062 0.126-0.056 0.129-0.050 0.131-0.043 0.133-0.037 0.135-0.030 0.136-0.024 0.137-0.017 0.138-0.010 0.138-0.003z"></path>
<path fill="#b6b6b6" style="fill: var(--color8, #b6b6b6)" d="M17.418 7.756h0.001q0.062 0 0.124 0.003t0.124 0.009 0.123 0.015 0.122 0.021 0.121 0.027 0.119 0.033 0.118 0.039 0.116 0.045 0.113 0.050 0.111 0.056 0.108 0.061 0.105 0.066 0.101 0.071 0.098 0.076 0.094 0.081 0.090 0.085 0.085 0.090 0.081 0.094 0.076 0.098 0.071 0.101 0.066 0.105 0.061 0.108 0.056 0.111 0.050 0.113 0.045 0.116 0.039 0.118 0.033 0.119 0.027 0.121 0.021 0.122 0.015 0.123 0.009 0.124 0.003 0.124v13.61q0 0.062-0.003 0.124t-0.009 0.124-0.015 0.123-0.021 0.122-0.027 0.121-0.033 0.119-0.039 0.118-0.045 0.116-0.050 0.113-0.056 0.111-0.061 0.108-0.066 0.105-0.071 0.101-0.076 0.098-0.081 0.094-0.085 0.090-0.090 0.085-0.094 0.081-0.098 0.076-0.101 0.071-0.105 0.066-0.108 0.061-0.111 0.056-0.113 0.050-0.116 0.045-0.118 0.039-0.119 0.033-0.121 0.027-0.122 0.021-0.123 0.015-0.124 0.009-0.124 0.003h-0.001q-0.062 0-0.124-0.003t-0.124-0.009-0.123-0.015-0.122-0.021-0.121-0.027-0.119-0.033-0.118-0.039-0.116-0.045-0.113-0.050-0.111-0.056-0.108-0.061-0.105-0.066-0.101-0.071-0.098-0.076-0.094-0.081-0.090-0.085-0.085-0.090-0.081-0.094-0.076-0.098-0.071-0.101-0.066-0.105-0.061-0.108-0.056-0.111-0.050-0.113-0.045-0.116-0.039-0.118-0.033-0.119-0.027-0.121-0.021-0.122-0.015-0.123-0.009-0.124-0.003-0.124v-13.61q0-0.062 0.003-0.124t0.009-0.124 0.015-0.123 0.021-0.122 0.027-0.121 0.033-0.119 0.039-0.118 0.045-0.116 0.050-0.113 0.056-0.111 0.061-0.108 0.066-0.105 0.071-0.101 0.076-0.098 0.081-0.094 0.085-0.090 0.090-0.085 0.094-0.081 0.098-0.076 0.101-0.071 0.105-0.066 0.108-0.061 0.111-0.056 0.113-0.050 0.116-0.045 0.118-0.039 0.119-0.033 0.121-0.027 0.122-0.021 0.123-0.015 0.124-0.009 0.124-0.003z"></path>
<path fill="#fff600" style="fill: var(--color9, #fff600)" d="M8.793 2.115h0.001q0.139 0 0.279 0.007t0.278 0.021 0.277 0.034 0.275 0.048 0.272 0.061 0.269 0.074 0.265 0.087 0.26 0.1 0.255 0.113 0.249 0.125 0.242 0.137 0.236 0.149 0.228 0.16 0.22 0.171 0.211 0.182 0.202 0.192 0.192 0.202 0.182 0.211 0.171 0.22 0.161 0.228 0.149 0.236 0.137 0.243 0.125 0.249 0.113 0.255 0.1 0.26 0.087 0.265 0.074 0.269 0.061 0.272 0.048 0.275 0.034 0.277 0.021 0.278 0.007 0.279v0.357q0 0.139-0.007 0.279t-0.021 0.278-0.034 0.277-0.048 0.275-0.061 0.272-0.074 0.269-0.087 0.265-0.1 0.26-0.113 0.255-0.125 0.249-0.137 0.243-0.149 0.236-0.161 0.228-0.171 0.22-0.182 0.211-0.192 0.202-0.202 0.192-0.211 0.182-0.22 0.171-0.228 0.161-0.236 0.149-0.242 0.137-0.249 0.125-0.255 0.113-0.26 0.1-0.265 0.087-0.269 0.074-0.272 0.061-0.275 0.048-0.277 0.034-0.278 0.021-0.279 0.007h-0.001q-0.139 0-0.279-0.007t-0.278-0.021-0.277-0.034-0.275-0.048-0.272-0.061-0.269-0.074-0.265-0.087-0.26-0.1-0.255-0.113-0.249-0.125-0.243-0.137-0.236-0.149-0.228-0.161-0.22-0.171-0.211-0.182-0.202-0.192-0.192-0.202-0.182-0.211-0.171-0.22-0.16-0.228-0.149-0.236-0.137-0.243-0.125-0.249-0.113-0.255-0.1-0.26-0.087-0.265-0.074-0.269-0.061-0.272-0.048-0.275-0.034-0.277-0.021-0.278-0.007-0.279v-0.357q0-0.139 0.007-0.279t0.021-0.278 0.034-0.277 0.048-0.275 0.061-0.272 0.074-0.269 0.087-0.265 0.1-0.26 0.113-0.255 0.125-0.249 0.137-0.243 0.149-0.236 0.16-0.228 0.171-0.22 0.182-0.211 0.192-0.202 0.202-0.192 0.211-0.182 0.22-0.171 0.228-0.16 0.236-0.149 0.243-0.137 0.249-0.125 0.255-0.113 0.26-0.1 0.265-0.087 0.269-0.074 0.272-0.061 0.275-0.048 0.277-0.034 0.278-0.021 0.279-0.007z"></path>
<path fill="#b6b6b6" style="fill: var(--color8, #b6b6b6)" d="M9.082 22.075h8.258q0.064 0 0.128 0.003t0.127 0.009 0.127 0.016 0.126 0.022 0.125 0.028 0.123 0.034 0.121 0.040 0.119 0.046 0.117 0.052 0.114 0.058 0.111 0.063 0.108 0.068 0.104 0.074 0.101 0.079 0.097 0.083 0.093 0.088 0.088 0.093 0.083 0.097 0.079 0.101 0.074 0.104 0.068 0.108 0.063 0.111 0.057 0.114 0.052 0.117 0.046 0.119 0.040 0.121 0.034 0.123 0.028 0.125 0.022 0.126 0.016 0.127 0.009 0.127 0.003 0.128v0.001q0 0.064-0.003 0.128t-0.009 0.127-0.016 0.127-0.022 0.126-0.028 0.125-0.034 0.123-0.040 0.121-0.046 0.119-0.052 0.117-0.057 0.114-0.063 0.111-0.068 0.108-0.074 0.104-0.079 0.101-0.083 0.097-0.088 0.093-0.093 0.088-0.097 0.083-0.101 0.079-0.104 0.074-0.108 0.068-0.111 0.063-0.114 0.057-0.117 0.052-0.119 0.046-0.121 0.040-0.123 0.034-0.125 0.028-0.126 0.022-0.127 0.016-0.127 0.009-0.128 0.003h-8.258q-0.064 0-0.128-0.003t-0.127-0.009-0.127-0.016-0.126-0.022-0.125-0.028-0.123-0.034-0.121-0.040-0.119-0.046-0.117-0.052-0.114-0.057-0.111-0.063-0.108-0.068-0.104-0.074-0.101-0.079-0.097-0.083-0.093-0.088-0.088-0.093-0.083-0.097-0.079-0.101-0.074-0.104-0.068-0.108-0.063-0.111-0.057-0.114-0.052-0.117-0.046-0.119-0.040-0.121-0.034-0.123-0.028-0.125-0.022-0.126-0.016-0.127-0.009-0.127-0.003-0.128v-0.001q0-0.064 0.003-0.128t0.009-0.127 0.016-0.127 0.022-0.126 0.028-0.125 0.034-0.123 0.040-0.121 0.046-0.119 0.052-0.117 0.057-0.114 0.063-0.111 0.068-0.108 0.074-0.104 0.079-0.101 0.083-0.097 0.088-0.093 0.093-0.088 0.097-0.083 0.101-0.079 0.104-0.074 0.108-0.068 0.111-0.063 0.114-0.058 0.117-0.052 0.119-0.046 0.121-0.040 0.123-0.034 0.125-0.028 0.126-0.022 0.127-0.016 0.127-0.009 0.128-0.003z"></path>
<path fill="#0a4bff" style="fill: var(--color10, #0a4bff)" d="M5.679 18.386h0.001q0.139 0 0.279 0.007t0.278 0.020 0.277 0.034 0.275 0.048 0.272 0.061 0.269 0.074 0.265 0.087 0.26 0.1 0.255 0.113 0.249 0.125 0.243 0.137 0.236 0.149 0.228 0.161 0.22 0.172 0.211 0.182 0.202 0.192 0.192 0.202 0.182 0.211 0.171 0.22 0.161 0.228 0.149 0.236 0.137 0.243 0.125 0.249 0.113 0.255 0.1 0.26 0.087 0.265 0.074 0.269 0.061 0.272 0.048 0.275 0.034 0.277 0.021 0.278 0.007 0.279v0.357q0 0.139-0.007 0.279t-0.021 0.278-0.034 0.277-0.048 0.275-0.061 0.272-0.074 0.269-0.087 0.265-0.1 0.26-0.113 0.255-0.125 0.249-0.137 0.243-0.149 0.235-0.161 0.228-0.171 0.22-0.182 0.211-0.192 0.202-0.202 0.192-0.211 0.182-0.22 0.172-0.228 0.161-0.236 0.149-0.243 0.137-0.249 0.125-0.255 0.113-0.26 0.1-0.265 0.087-0.269 0.074-0.272 0.061-0.275 0.048-0.277 0.034-0.278 0.020-0.279 0.007h-0.001q-0.139 0-0.279-0.007t-0.278-0.020-0.277-0.034-0.275-0.048-0.272-0.061-0.269-0.074-0.265-0.087-0.26-0.1-0.255-0.113-0.249-0.125-0.243-0.137-0.236-0.149-0.228-0.161-0.22-0.172-0.211-0.182-0.202-0.192-0.192-0.202-0.182-0.211-0.171-0.22-0.16-0.228-0.149-0.235-0.137-0.243-0.125-0.249-0.113-0.255-0.1-0.26-0.087-0.265-0.074-0.269-0.061-0.272-0.048-0.275-0.034-0.277-0.021-0.278-0.007-0.279v-0.357q0-0.139 0.007-0.279t0.021-0.278 0.034-0.277 0.048-0.275 0.061-0.272 0.074-0.269 0.087-0.265 0.1-0.26 0.113-0.255 0.125-0.249 0.137-0.243 0.149-0.236 0.161-0.228 0.171-0.22 0.182-0.211 0.192-0.202 0.202-0.192 0.211-0.182 0.22-0.172 0.228-0.161 0.236-0.149 0.243-0.137 0.249-0.125 0.255-0.113 0.26-0.1 0.265-0.087 0.269-0.074 0.272-0.061 0.275-0.048 0.277-0.034 0.278-0.020 0.279-0.007z"></path>
<path fill="#0a4bff" style="fill: var(--color10, #0a4bff)" d="M26.211 1.898h0.001q0.139 0 0.279 0.007t0.278 0.020 0.277 0.034 0.275 0.048 0.272 0.061 0.269 0.074 0.265 0.087 0.26 0.1 0.255 0.113 0.249 0.125 0.243 0.137 0.235 0.149 0.228 0.16 0.22 0.171 0.211 0.182 0.202 0.192 0.192 0.202 0.182 0.211 0.172 0.22 0.161 0.228 0.149 0.236 0.137 0.243 0.125 0.249 0.113 0.255 0.1 0.26 0.087 0.265 0.074 0.269 0.061 0.272 0.048 0.275 0.034 0.277 0.020 0.278 0.007 0.279v0.357q0 0.139-0.007 0.279t-0.020 0.278-0.034 0.277-0.048 0.275-0.061 0.272-0.074 0.269-0.087 0.265-0.1 0.26-0.113 0.255-0.125 0.249-0.137 0.243-0.149 0.236-0.161 0.228-0.172 0.22-0.182 0.211-0.192 0.202-0.202 0.192-0.211 0.182-0.22 0.171-0.228 0.161-0.235 0.149-0.243 0.137-0.249 0.125-0.255 0.113-0.26 0.1-0.265 0.087-0.269 0.074-0.272 0.061-0.275 0.048-0.277 0.034-0.278 0.021-0.279 0.007h-0.001q-0.139 0-0.279-0.007t-0.278-0.021-0.277-0.034-0.275-0.048-0.272-0.061-0.269-0.074-0.265-0.087-0.26-0.1-0.255-0.113-0.249-0.125-0.243-0.137-0.235-0.149-0.228-0.161-0.22-0.171-0.211-0.182-0.202-0.192-0.192-0.202-0.182-0.211-0.172-0.22-0.161-0.228-0.149-0.236-0.137-0.243-0.125-0.249-0.113-0.255-0.1-0.26-0.087-0.265-0.074-0.269-0.061-0.272-0.048-0.275-0.034-0.277-0.020-0.278-0.007-0.279v-0.357q0-0.139 0.007-0.279t0.020-0.278 0.034-0.277 0.048-0.275 0.061-0.272 0.074-0.269 0.087-0.265 0.1-0.26 0.113-0.255 0.125-0.249 0.137-0.243 0.149-0.236 0.161-0.228 0.172-0.22 0.182-0.211 0.192-0.202 0.202-0.192 0.211-0.182 0.22-0.171 0.228-0.16 0.235-0.149 0.243-0.137 0.249-0.125 0.255-0.113 0.26-0.1 0.265-0.087 0.269-0.074 0.272-0.061 0.275-0.048 0.277-0.034 0.278-0.020 0.279-0.007z"></path>
<path fill="#1f61e3" style="fill: var(--color11, #1f61e3)" d="M20.447 25.763c0-0.839 0.659-1.519 1.473-1.519s1.473 0.68 1.473 1.519c0 0.839-0.659 1.519-1.473 1.519s-1.473-0.68-1.473-1.519z"></path>
<path fill="#8e95d7" style="fill: var(--color12, #8e95d7)" d="M23.813 25.763c0-0.839 0.659-1.519 1.473-1.519s1.473 0.68 1.473 1.519c0 0.839-0.659 1.519-1.473 1.519s-1.473-0.68-1.473-1.519z"></path>
<path fill="#a3a7f9" style="fill: var(--color13, #a3a7f9)" d="M27.179 25.763c0-0.839 0.659-1.519 1.473-1.519s1.473 0.68 1.473 1.519c0 0.839-0.659 1.519-1.473 1.519s-1.473-0.68-1.473-1.519z"></path>
</symbol>
<symbol id="icon-moon" viewBox="0 0 32 32">
<path stroke-linejoin="miter" stroke-linecap="round" stroke-miterlimit="1" d="M27.669 21.269c-4.854 2.195-10.559 1.155-14.326-2.611s-4.807-9.473-2.611-14.326c-5.188 2.345-8.205 7.834-7.402 13.471s5.232 10.066 10.868 10.869c5.637 0.803 11.126-2.213 13.471-7.402v-0z"></path>
</symbol>
<symbol id="icon-node-icon" viewBox="0 0 32 32">
<path fill="none" stroke="#444343" style="stroke: var(--color7, #444343)" stroke-linejoin="miter" stroke-linecap="round" stroke-miterlimit="4" stroke-width="1.2152" d="M0.608 16c0-8.501 6.891-15.392 15.392-15.392s15.392 6.891 15.392 15.392c0 8.501-6.891 15.392-15.392 15.392s-15.392-6.891-15.392-15.392z"></path>
<path fill="#388e3c" style="fill: var(--color14, #388e3c)" d="M13.217 13.37l-2.36 1.306c-0.088 0.049-0.143 0.139-0.143 0.237v2.613c0 0.098 0.054 0.188 0.143 0.237l2.361 1.307c0.088 0.049 0.197 0.049 0.285 0l2.36-1.307c0.088-0.049 0.142-0.139 0.142-0.237v-2.613c0-0.098-0.054-0.188-0.143-0.237l-2.36-1.306c-0.044-0.025-0.094-0.037-0.143-0.037s-0.099 0.012-0.143 0.037zM25.361 15.723l-0.393 0.217c-0.015 0.008-0.024 0.023-0.024 0.039v0.436c0 0.016 0.009 0.031 0.024 0.039l0.393 0.218c0.015 0.008 0.033 0.008 0.048 0l0.393-0.218c0.014-0.008 0.024-0.023 0.024-0.039v-0.436c0-0.016-0.009-0.031-0.024-0.039l-0.393-0.217c-0.007-0.004-0.015-0.006-0.024-0.006s-0.016 0.002-0.024 0.006z"></path>
<path fill="#37474f" style="fill: var(--color15, #37474f)" d="M22.139 10.6l-1.149-0.641c-0.036-0.020-0.080-0.020-0.116 0.001s-0.058 0.059-0.058 0.101l-0 3.873-1.060-0.586c-0.044-0.024-0.094-0.037-0.143-0.037s-0.099 0.012-0.143 0.037h0l-2.36 1.306c-0.088 0.049-0.143 0.139-0.143 0.236v2.613c0 0.098 0.054 0.188 0.143 0.237l2.361 1.307c0.088 0.049 0.197 0.049 0.285 0l2.36-1.307c0.088-0.049 0.142-0.139 0.142-0.237v-6.699c0-0.085-0.046-0.163-0.12-0.204v0zM20.751 16.899l-1.073 0.594c-0.040 0.022-0.089 0.022-0.129 0l-1.073-0.594c-0.041-0.022-0.065-0.064-0.065-0.108v-1.188c0-0.044 0.025-0.085 0.065-0.108l1.073-0.594c0.020-0.011 0.042-0.016 0.065-0.016s0.045 0.006 0.065 0.016l1.073 0.594c0.040 0.023 0.065 0.064 0.065 0.108v1.188c0 0.044-0.025 0.085-0.064 0.107v0z"></path>
<path fill="#2e7d32" style="fill: var(--color16, #2e7d32)" d="M13.217 13.37l-2.503 4.156c0 0.098 0.054 0.188 0.143 0.237l2.361 1.307c0.088 0.049 0.197 0.049 0.285 0l2.502-4.157c0-0.098-0.054-0.188-0.143-0.237l-2.36-1.306c-0.044-0.025-0.094-0.037-0.143-0.037s-0.099 0.012-0.143 0.037z"></path>
<path fill="#4caf50" style="fill: var(--color17, #4caf50)" d="M13.217 13.37l-2.36 1.306c-0.088 0.049-0.143 0.139-0.143 0.237l2.503 4.157c0.088 0.049 0.197 0.049 0.285 0l2.36-1.307c0.088-0.049 0.142-0.139 0.142-0.237l-2.503-4.156c-0.044-0.025-0.094-0.037-0.143-0.037s-0.099 0.012-0.143 0.037z"></path>
<path fill="#37474f" style="fill: var(--color15, #37474f)" d="M27.888 14.654l-2.36-1.306c-0.044-0.025-0.094-0.037-0.143-0.037s-0.099 0.012-0.143 0.037h0l-2.36 1.306c-0.088 0.049-0.143 0.141-0.143 0.242v2.603c0 0.101 0.055 0.193 0.143 0.242l2.361 1.307c0.088 0.049 0.197 0.049 0.285 0l1.089-0.603c0.1-0.055 0.099-0.198-0.001-0.253l-2.369-1.292c-0.040-0.023-0.065-0.064-0.065-0.11v-1.186c0-0.044 0.024-0.085 0.063-0.106l1.075-0.595c0.020-0.011 0.042-0.016 0.065-0.016s0.045 0.006 0.065 0.016l1.075 0.595c0.038 0.021 0.063 0.062 0.063 0.106v0.968c0 0.041 0.022 0.080 0.058 0.101s0.080 0.020 0.116-0l1.153-0.67c0.071-0.041 0.115-0.118 0.115-0.201v-0.904c0-0.101-0.055-0.194-0.143-0.243v0zM10.090 14.654l-2.36-1.306c-0.044-0.025-0.094-0.037-0.143-0.037s-0.099 0.012-0.143 0.037h0l-2.36 1.306c-0.088 0.049-0.143 0.141-0.143 0.242v3.591c0 0.041 0.022 0.080 0.058 0.101s0.080 0.020 0.116-0l1.153-0.67c0.071-0.041 0.115-0.118 0.115-0.201v-2.113c0-0.044 0.024-0.085 0.063-0.106l1.075-0.595c0.020-0.011 0.042-0.016 0.065-0.016s0.045 0.006 0.065 0.016l1.075 0.595c0.038 0.021 0.063 0.062 0.063 0.106v2.113c0 0.083 0.044 0.159 0.115 0.201l1.153 0.67c0.036 0.021 0.080 0.021 0.116 0s0.058-0.060 0.058-0.101v-3.59c0-0.101-0.055-0.194-0.143-0.242v0z"></path>
</symbol>
<symbol id="icon-node-icon-dark" viewBox="0 0 32 32">
<path fill="none" stroke="#444343" style="stroke: var(--color1, #444343)" stroke-linejoin="miter" stroke-linecap="round" stroke-miterlimit="4" stroke-width="1.2152" d="M0.608 16c0-8.501 6.891-15.392 15.392-15.392s15.392 6.891 15.392 15.392c0 8.501-6.891 15.392-15.392 15.392s-15.392-6.891-15.392-15.392z"></path>
<path fill="#9e629b" style="fill: var(--color2, #9e629b)" d="M13.217 13.37l-2.36 1.306c-0.088 0.049-0.143 0.139-0.143 0.237v2.613c0 0.098 0.054 0.188 0.143 0.237l2.361 1.307c0.088 0.049 0.197 0.049 0.285 0l2.36-1.307c0.088-0.049 0.142-0.139 0.142-0.237v-2.613c0-0.098-0.054-0.188-0.143-0.237l-2.36-1.306c-0.044-0.025-0.094-0.037-0.143-0.037s-0.099 0.012-0.143 0.037zM25.361 15.723l-0.393 0.217c-0.015 0.008-0.024 0.023-0.024 0.039v0.436c0 0.016 0.009 0.031 0.024 0.039l0.393 0.218c0.015 0.008 0.033 0.008 0.048 0l0.393-0.218c0.014-0.008 0.024-0.023 0.024-0.039v-0.436c0-0.016-0.009-0.031-0.024-0.039l-0.393-0.217c-0.007-0.004-0.015-0.006-0.024-0.006s-0.016 0.002-0.024 0.006z"></path>
<path fill="#37474f" style="fill: var(--color3, #37474f)" d="M22.139 10.6l-1.149-0.641c-0.036-0.020-0.080-0.020-0.116 0.001s-0.058 0.059-0.058 0.101l-0 3.873-1.060-0.586c-0.044-0.024-0.094-0.037-0.143-0.037s-0.099 0.012-0.143 0.037h0l-2.36 1.306c-0.088 0.049-0.143 0.139-0.143 0.236v2.613c0 0.098 0.054 0.188 0.143 0.237l2.361 1.307c0.088 0.049 0.197 0.049 0.285 0l2.36-1.307c0.088-0.049 0.142-0.139 0.142-0.237v-6.699c0-0.085-0.046-0.163-0.12-0.204v0zM20.751 16.899l-1.073 0.594c-0.040 0.022-0.089 0.022-0.129 0l-1.073-0.594c-0.041-0.022-0.065-0.064-0.065-0.108v-1.188c0-0.044 0.025-0.085 0.065-0.108l1.073-0.594c0.020-0.011 0.042-0.016 0.065-0.016s0.045 0.006 0.065 0.016l1.073 0.594c0.040 0.023 0.065 0.064 0.065 0.108v1.188c0 0.044-0.025 0.085-0.064 0.107v0z"></path>
<path fill="#9d809b" style="fill: var(--color4, #9d809b)" d="M13.217 13.37l-2.503 4.156c0 0.098 0.054 0.188 0.143 0.237l2.361 1.307c0.088 0.049 0.197 0.049 0.285 0l2.502-4.157c0-0.098-0.054-0.188-0.143-0.237l-2.36-1.306c-0.044-0.025-0.094-0.037-0.143-0.037s-0.099 0.012-0.143 0.037z"></path>
<path fill="#9e629b" style="fill: var(--color2, #9e629b)" d="M13.217 13.37l-2.36 1.306c-0.088 0.049-0.143 0.139-0.143 0.237l2.503 4.157c0.088 0.049 0.197 0.049 0.285 0l2.36-1.307c0.088-0.049 0.142-0.139 0.142-0.237l-2.503-4.156c-0.044-0.025-0.094-0.037-0.143-0.037s-0.099 0.012-0.143 0.037z"></path>
<path fill="#37474f" style="fill: var(--color3, #37474f)" d="M27.888 14.654l-2.36-1.306c-0.044-0.025-0.094-0.037-0.143-0.037s-0.099 0.012-0.143 0.037h0l-2.36 1.306c-0.088 0.049-0.143 0.141-0.143 0.242v2.603c0 0.101 0.055 0.193 0.143 0.242l2.361 1.307c0.088 0.049 0.197 0.049 0.285 0l1.089-0.603c0.1-0.055 0.099-0.198-0.001-0.253l-2.369-1.292c-0.040-0.023-0.065-0.064-0.065-0.11v-1.186c0-0.044 0.024-0.085 0.063-0.106l1.075-0.595c0.020-0.011 0.042-0.016 0.065-0.016s0.045 0.006 0.065 0.016l1.075 0.595c0.038 0.021 0.063 0.062 0.063 0.106v0.968c0 0.041 0.022 0.080 0.058 0.101s0.080 0.020 0.116-0l1.153-0.67c0.071-0.041 0.115-0.118 0.115-0.201v-0.904c0-0.101-0.055-0.194-0.143-0.243v0zM10.090 14.654l-2.36-1.306c-0.044-0.025-0.094-0.037-0.143-0.037s-0.099 0.012-0.143 0.037h0l-2.36 1.306c-0.088 0.049-0.143 0.141-0.143 0.242v3.591c0 0.041 0.022 0.080 0.058 0.101s0.080 0.020 0.116-0l1.153-0.67c0.071-0.041 0.115-0.118 0.115-0.201v-2.113c0-0.044 0.024-0.085 0.063-0.106l1.075-0.595c0.020-0.011 0.042-0.016 0.065-0.016s0.045 0.006 0.065 0.016l1.075 0.595c0.038 0.021 0.063 0.062 0.063 0.106v2.113c0 0.083 0.044 0.159 0.115 0.201l1.153 0.67c0.036 0.021 0.080 0.021 0.116 0s0.058-0.060 0.058-0.101v-3.59c0-0.101-0.055-0.194-0.143-0.242v0z"></path>
</symbol>
<symbol id="icon-back-end-icon" viewBox="0 0 32 32">
<path d="M11.046 19.703q-0.16 0-0.248-0.073l-3.762-2.45q-0.204-0.131-0.299-0.335t-0.095-0.365 0.095-0.365 0.299-0.335l3.762-2.464q0.088-0.058 0.248-0.058 0.292 0 0.569 0.255t0.277 0.634q0 0.35-0.233 0.481l-2.829 1.852 2.829 1.837q0.233 0.146 0.233 0.496 0 0.379-0.277 0.634t-0.569 0.255z"></path>
<path d="M13.525 21.19q-0.365 0-0.591-0.248t-0.226-0.525q0-0.131 0.073-0.277l5.118-10.514q0.175-0.365 0.612-0.365 0.306 0 0.583 0.211t0.277 0.561q0 0.16-0.058 0.277l-5.133 10.514q-0.073 0.16-0.262 0.262t-0.394 0.102z"></path>
<path d="M21.035 19.703q-0.277 0-0.561-0.255t-0.284-0.634q0-0.35 0.248-0.496l2.814-1.837-2.814-1.852q-0.248-0.131-0.248-0.481 0-0.379 0.284-0.634t0.561-0.255q0.16 0 0.248 0.058l3.762 2.464q0.204 0.131 0.299 0.335t0.095 0.365-0.095 0.365-0.299 0.335l-3.762 2.45q-0.087 0.073-0.248 0.073z"></path>
<path fill="none" stroke="#444343" style="stroke: var(--color1, #444343)" stroke-linejoin="miter" stroke-linecap="round" stroke-miterlimit="4" stroke-width="1.2152" d="M0.608 16c0-8.501 6.891-15.392 15.392-15.392s15.392 6.891 15.392 15.392c0 8.501-6.891 15.392-15.392 15.392s-15.392-6.891-15.392-15.392z"></path>
</symbol>
<symbol id="icon-design" viewBox="0 0 32 32">
<path fill="none" stroke-linejoin="miter" stroke-linecap="round" stroke-miterlimit="4" stroke-width="1.2152" d="M0.608 16c0-8.501 6.891-15.392 15.392-15.392s15.392 6.891 15.392 15.392c0 8.501-6.891 15.392-15.392 15.392s-15.392-6.891-15.392-15.392z"></path>
<path fill="none" stroke-linejoin="miter" stroke-linecap="round" stroke-miterlimit="4" stroke-width="1.2152" stroke-dashoffset="0" d="M10.086 12.030l-0.81 0.81"></path>
<path fill="none" stroke-linejoin="miter" stroke-linecap="round" stroke-miterlimit="4" stroke-width="1.2152" stroke-dashoffset="0" d="M11.423 13.569l-0.81 0.81"></path>
<path fill="none" stroke-linejoin="miter" stroke-linecap="round" stroke-miterlimit="4" stroke-width="1.2152" stroke-dashoffset="0" d="M19.808 22.157l-0.81 0.81"></path>
<path fill="none" stroke-linejoin="miter" stroke-linecap="butt" stroke-miterlimit="4" stroke-width="1.2152" stroke-dashoffset="0" d="M19.322 9.114c0 0 2.171-1.51 3.646 0s0 3.646 0 3.646l-9.722 9.721c0 0-5.024 1.792-5.266 1.62s1.62-5.266 1.62-5.266l9.722-9.722z"></path>
<path fill="none" stroke-linejoin="miter" stroke-linecap="butt" stroke-miterlimit="4" stroke-width="1.2152" stroke-dashoffset="0" d="M8.229 11.117l2.578-2.578q0.028-0.028 0.059-0.053t0.064-0.047 0.068-0.041 0.072-0.034 0.075-0.027 0.077-0.019 0.079-0.012 0.079-0.004 0.079 0.004 0.079 0.012 0.077 0.019 0.075 0.027 0.072 0.034 0.068 0.041 0.064 0.047 0.059 0.053l11.744 11.744q0.028 0.028 0.053 0.059t0.047 0.064 0.041 0.068 0.034 0.072 0.027 0.075 0.019 0.077 0.012 0.079 0.004 0.079-0.004 0.079-0.012 0.079-0.019 0.077-0.027 0.075-0.034 0.072-0.041 0.068-0.047 0.064-0.053 0.059l-2.578 2.578q-0.028 0.028-0.059 0.053t-0.064 0.047-0.068 0.041-0.072 0.034-0.075 0.027-0.077 0.019-0.079 0.012-0.079 0.004-0.079-0.004-0.079-0.012-0.077-0.019-0.075-0.027-0.072-0.034-0.068-0.041-0.064-0.047-0.059-0.053l-11.744-11.744q-0.028-0.028-0.053-0.059t-0.047-0.064-0.041-0.068-0.034-0.072-0.027-0.075-0.019-0.077-0.012-0.079-0.004-0.079 0.004-0.079 0.012-0.079 0.019-0.077 0.027-0.075 0.034-0.072 0.041-0.068 0.047-0.064 0.053-0.059z"></path>
<path fill="none" stroke-linejoin="miter" stroke-linecap="square" stroke-miterlimit="4" stroke-width="1.2152" stroke-dashoffset="0" d="M18.592 10.005l3.443 3.443"></path>
<path fill="none" stroke-linejoin="miter" stroke-linecap="square" stroke-miterlimit="4" stroke-width="1.2152" stroke-dashoffset="0" d="M8.668 22.764l0.405 0.405"></path>
</symbol>
<symbol id="icon-skill" viewBox="0 0 32 32">
<path d="M20.689 32h-14.196c-0.736 0-1.249-0.591-1.173-1.322 0.254-2.427 0.597-7.515-0.722-9.382-2.221-3.143-3.24-6.323-3.265-9.177-0.060-6.92 5.641-12.152 13.604-12.119 9.648 0.040 12.437 8.208 13.031 10.591 0.453 1.825-1.197 2.492-0.221 3.603 0.795 0.905 1.38 1.819 2.385 2.903 0.389 0.42 0.54 0.861 0.535 1.257-0.008 0.579-0.388 1.064-0.997 1.277-0.572 0.2-1.013 0.427-1.62 0.591-0.193 1.547-0.695 3.429-1.064 4.743-0.983 3.493-3.861 1.412-5.175 3.476-0.568 0.891-0.853 2.317-1.121 3.56zM15.564 6.667h-1.795c-0.324 0.908-0.416 1.496-1.123 1.788-0.707 0.293-1.184-0.055-2.060-0.471l-1.269 1.269c0.415 0.872 0.764 1.353 0.471 2.060-0.292 0.707-0.88 0.799-1.788 1.121v1.796c0.907 0.323 1.496 0.416 1.788 1.123 0.296 0.712-0.063 1.203-0.471 2.059l1.269 1.269c0.869-0.412 1.353-0.764 2.060-0.471v0.001c0.705 0.292 0.799 0.876 1.123 1.788h1.795c0.324-0.909 0.417-1.495 1.127-1.791h0.001c0.701-0.292 1.177 0.056 2.055 0.472l1.269-1.269c-0.413-0.868-0.764-1.352-0.472-2.059 0.292-0.705 0.883-0.8 1.789-1.123v-1.796c-0.917-0.325-1.497-0.417-1.788-1.121-0.293-0.707 0.055-1.187 0.471-2.060l-1.269-1.269c-0.868 0.413-1.352 0.764-2.060 0.471-0.705-0.292-0.797-0.876-1.123-1.788v0zM14.666 15.556c-1.227 0-2.223-0.996-2.223-2.223 0-1.228 0.996-2.223 2.223-2.223s2.223 0.995 2.223 2.223c0 1.227-0.996 2.223-2.223 2.223v0z"></path>
</symbol>
<symbol id="icon-sun" viewBox="0 0 32 32">
<path fill="var(--color-secondary, #ffff55)" stroke-linejoin="miter" stroke-linecap="round" stroke-miterlimit="2" d="M16 3.2c0.884 0 1.6 0.716 1.6 1.6v1.6c0 0.572-0.305 1.1-0.8 1.386s-1.105 0.286-1.6 0c-0.495-0.286-0.8-0.814-0.8-1.386v-1.6c0-0.884 0.716-1.6 1.6-1.6v0zM22.4 16c0 2.287-1.22 4.399-3.2 5.543s-4.42 1.143-6.4 0c-1.98-1.143-3.2-3.256-3.2-5.543s1.22-4.399 3.2-5.543c1.98-1.143 4.42-1.143 6.4 0s3.2 3.256 3.2 5.543v0zM21.658 23.92l1.131 1.131c0.628 0.606 1.626 0.598 2.243-0.020s0.626-1.615 0.020-2.243l-1.131-1.131c-0.628-0.606-1.626-0.598-2.243 0.019s-0.626 1.615-0.019 2.243v0zM25.050 6.949c0.625 0.625 0.625 1.638 0 2.262l-1.13 1.131c-0.402 0.416-0.997 0.583-1.556 0.436s-0.996-0.583-1.143-1.143c-0.146-0.559 0.020-1.154 0.436-1.556l1.131-1.131c0.625-0.625 1.638-0.625 2.262 0h-0.002zM27.2 17.6c0.884 0 1.6-0.716 1.6-1.6s-0.716-1.6-1.6-1.6h-1.6c-0.884 0-1.6 0.716-1.6 1.6s0.716 1.6 1.6 1.6h1.6zM16 24c0.884 0 1.6 0.716 1.6 1.6v1.6c0 0.572-0.305 1.1-0.8 1.386s-1.105 0.286-1.6 0c-0.495-0.286-0.8-0.814-0.8-1.386v-1.6c0-0.884 0.716-1.6 1.6-1.6v0zM8.080 10.342c0.404 0.404 0.994 0.563 1.546 0.415s0.984-0.579 1.132-1.132c0.148-0.552-0.010-1.142-0.414-1.546l-1.132-1.131c-0.628-0.606-1.626-0.598-2.243 0.019s-0.626 1.615-0.019 2.243l1.131 1.131zM10.342 23.92l-1.131 1.131c-0.628 0.606-1.626 0.598-2.243-0.020s-0.626-1.615-0.019-2.243l1.131-1.131c0.628-0.606 1.626-0.598 2.243 0.020s0.626 1.615 0.020 2.243v0zM6.4 17.6c0.884 0 1.6-0.716 1.6-1.6s-0.716-1.6-1.6-1.6h-1.6c-0.884 0-1.6 0.716-1.6 1.6s0.716 1.6 1.6 1.6h1.6z"></path>
</symbol>
<symbol xmlns="http://www.w3.org/2000/svg" fill="currentColor" viewBox="0 0 20 20" id="icon-right-arrow">
  <path fill-rule="evenodd" d="M12.293 5.293a1 1 0 011.414 0l4 4a1 1 0 010 1.414l-4 4a1 1 0 01-1.414-1.414L14.586 11H3a1 1 0 110-2h11.586l-2.293-2.293a1 1 0 010-1.414z" clip-rule="evenodd"></path>
</symbol>
<symbol id="icon-location" viewBox="0 0 32 32">
<path fill="none" stroke="#444343" style="stroke: var(--color1, #444343)" stroke-linejoin="miter" stroke-linecap="round" stroke-miterlimit="4" stroke-width="1.2152" d="M0.608 16c0-8.501 6.891-15.392 15.392-15.392s15.392 6.891 15.392 15.392c0 8.501-6.891 15.392-15.392 15.392s-15.392-6.891-15.392-15.392z"></path>
<path fill="#404040" style="fill: var(--color2, #404040)" d="M15.969 7.923h0.001q0.175 0 0.349 0.011t0.348 0.034 0.345 0.056 0.34 0.078 0.335 0.1 0.328 0.121 0.319 0.142 0.309 0.162 0.298 0.181 0.286 0.2 0.273 0.218 0.258 0.235 0.242 0.251 0.226 0.266 0.208 0.28 0.19 0.293 0.17 0.305 0.15 0.315 0.13 0.324 0.109 0.332 0.087 0.338 0.065 0.343 0.043 0.347 0.021 0.349-0.002 0.349-0.024 0.348-0.047 0.346-0.069 0.342-0.090 0.337-0.112 0.331-0.133 0.323-0.153 0.314l-4.799 9.056-4.799-9.056q-0.082-0.154-0.153-0.314t-0.133-0.323-0.112-0.331-0.091-0.337-0.069-0.342-0.046-0.346-0.024-0.348-0.002-0.349 0.021-0.349 0.043-0.347 0.065-0.343 0.087-0.338 0.109-0.332 0.13-0.324 0.15-0.315 0.17-0.305 0.19-0.293 0.208-0.28 0.226-0.266 0.242-0.251 0.258-0.235 0.273-0.218 0.286-0.2 0.298-0.181 0.309-0.162 0.319-0.142 0.328-0.121 0.335-0.1 0.34-0.078 0.345-0.056 0.348-0.034 0.349-0.011v0z"></path>
<path fill="#fff" style="fill: var(--color3, #fff)" d="M13.702 13.383c0-1.278 1.036-2.314 2.314-2.314s2.314 1.036 2.314 2.314c0 1.278-1.036 2.314-2.314 2.314s-2.314-1.036-2.314-2.314z"></path>
</symbol>
<symbol id="icon-moon-circle" viewBox="0 0 32 32">
<path d="M28.255 21.934c-5.163 2.335-11.233 1.229-15.241-2.778s-5.114-10.077-2.778-15.241c-5.519 2.494-8.728 8.334-7.874 14.331s5.566 10.708 11.562 11.562c5.996 0.854 11.836-2.355 14.331-7.874l0-0z"></path>
<path fill="none" stroke-linejoin="miter" stroke-linecap="butt" stroke-miterlimit="4" stroke-width="1.0213" d="M0.511 16c0-8.555 6.935-15.489 15.489-15.489s15.489 6.935 15.489 15.489c0 8.555-6.935 15.489-15.489 15.489s-15.489-6.935-15.489-15.489z"></path>
</symbol>
<symbol id="icon-sun-circle" viewBox="0 0 32 32">
<path d="M16 2.383c0.94 0 1.702 0.762 1.702 1.702v1.702c0 0.608-0.324 1.17-0.851 1.474s-1.175 0.304-1.702 0c-0.527-0.304-0.851-0.866-0.851-1.474v-1.702c0-0.94 0.762-1.702 1.702-1.702v0zM22.808 16c0 2.432-1.298 4.68-3.404 5.896s-4.702 1.216-6.809 0c-2.107-1.216-3.404-3.464-3.404-5.896s1.298-4.68 3.404-5.896c2.107-1.216 4.702-1.216 6.808 0s3.404 3.464 3.404 5.896v0zM22.019 24.426l1.203 1.203c0.668 0.645 1.73 0.636 2.386-0.021s0.666-1.718 0.021-2.386l-1.203-1.203c-0.668-0.645-1.73-0.636-2.386 0.021s-0.666 1.718-0.021 2.386v0zM25.627 6.371c0.664 0.665 0.664 1.742 0 2.407l-1.202 1.203c-0.427 0.443-1.060 0.62-1.655 0.464s-1.060-0.62-1.216-1.216c-0.156-0.595 0.022-1.228 0.464-1.655l1.203-1.203c0.665-0.664 1.742-0.664 2.407 0h-0.002zM27.915 17.702c0.94 0 1.702-0.762 1.702-1.702s-0.762-1.702-1.702-1.702h-1.702c-0.94 0-1.702 0.762-1.702 1.702s0.762 1.702 1.702 1.702h1.702zM16 24.511c0.94 0 1.702 0.762 1.702 1.702v1.702c0 0.608-0.324 1.17-0.851 1.474s-1.175 0.304-1.702 0c-0.527-0.304-0.851-0.866-0.851-1.474v-1.702c0-0.94 0.762-1.702 1.702-1.702v0zM7.574 9.981c0.43 0.43 1.057 0.598 1.645 0.441s1.047-0.616 1.204-1.204c0.157-0.588-0.011-1.215-0.441-1.645l-1.205-1.203c-0.668-0.645-1.729-0.636-2.386 0.021s-0.666 1.718-0.021 2.386l1.203 1.203zM9.981 24.426l-1.203 1.203c-0.668 0.645-1.729 0.636-2.386-0.021s-0.666-1.718-0.021-2.386l1.203-1.203c0.668-0.645 1.729-0.636 2.386 0.021s0.666 1.718 0.021 2.386v0zM5.787 17.702c0.94 0 1.702-0.762 1.702-1.702s-0.762-1.702-1.702-1.702h-1.702c-0.94 0-1.702 0.762-1.702 1.702s0.762 1.702 1.702 1.702h1.702z"></path>
<path fill="none" stroke-linejoin="miter" stroke-linecap="butt" stroke-miterlimit="4" stroke-width="1.0213" d="M0.511 16c0-8.555 6.935-15.489 15.489-15.489s15.489 6.935 15.489 15.489c0 8.555-6.935 15.489-15.489 15.489s-15.489-6.935-15.489-15.489z"></path>
</symbol>
</defs>
</svg>
