<?xml version="1.0" encoding="utf-8"?>
<svg width="310.29477px" height="204.5127px" viewBox="0 0 310.29477 204.5127" version="1.1" xmlns:xlink="http://www.w3.org/1999/xlink" xmlns="http://www.w3.org/2000/svg">
  <g id="Group-36">
    <path d="M21.8617 13.7518C21.8617 10.0517 24.8612 7.05225 28.5612 7.05225C32.2613 7.05225 35.2608 10.0517 35.2608 13.7518C35.2608 17.4518 32.2613 20.4513 28.5612 20.4513C24.8612 20.4513 21.8617 17.4518 21.8617 13.7518Z" id="Ellipse-9" fill="#D92222" fill-rule="evenodd" stroke="none" />
    <path d="M14.999 7.05225L295.296 7.05225Q295.664 7.05225 296.032 7.07031Q296.4 7.08838 296.766 7.12447Q297.132 7.16056 297.497 7.21459Q297.861 7.26861 298.222 7.34045Q298.583 7.41228 298.94 7.50175Q299.297 7.59121 299.65 7.6981Q300.002 7.80498 300.349 7.92903Q300.695 8.05307 301.036 8.19398Q301.376 8.33488 301.709 8.49231Q302.041 8.64974 302.366 8.82331Q302.691 8.99688 303.007 9.18617Q303.323 9.37547 303.629 9.58003Q303.935 9.7846 304.231 10.0039Q304.526 10.2233 304.811 10.4569Q305.096 10.6904 305.368 10.9377Q305.641 11.185 305.902 11.4454Q306.162 11.7057 306.409 11.9785Q306.657 12.2514 306.89 12.536Q307.124 12.8206 307.343 13.1164Q307.562 13.4121 307.767 13.7182Q307.972 14.0244 308.161 14.3402Q308.35 14.656 308.524 14.9808Q308.697 15.3055 308.855 15.6383Q309.012 15.9712 309.153 16.3114Q309.294 16.6516 309.418 16.9982Q309.542 17.3449 309.649 17.6973Q309.756 18.0496 309.845 18.4068Q309.935 18.764 310.007 19.1251Q310.078 19.4862 310.132 19.8504Q310.186 20.2147 310.223 20.5811Q310.259 20.9475 310.277 21.3153Q310.295 21.683 310.295 22.0512L310.295 189.514Q310.295 189.882 310.277 190.25Q310.259 190.617 310.223 190.984Q310.186 191.35 310.132 191.714Q310.078 192.079 310.007 192.44Q309.935 192.801 309.845 193.158Q309.756 193.515 309.649 193.868Q309.542 194.22 309.418 194.567Q309.294 194.913 309.153 195.253Q309.012 195.594 308.855 195.926Q308.697 196.259 308.524 196.584Q308.35 196.909 308.161 197.225Q307.971 197.54 307.767 197.847Q307.562 198.153 307.343 198.448Q307.124 198.744 306.89 199.029Q306.657 199.313 306.409 199.586Q306.162 199.859 305.902 200.119Q305.641 200.38 305.368 200.627Q305.096 200.874 304.811 201.108Q304.526 201.342 304.231 201.561Q303.935 201.78 303.629 201.985Q303.323 202.189 303.007 202.379Q302.691 202.568 302.366 202.741Q302.041 202.915 301.709 203.072Q301.376 203.23 301.036 203.371Q300.695 203.512 300.349 203.636Q300.002 203.76 299.65 203.867Q299.297 203.974 298.94 204.063Q298.583 204.153 298.222 204.224Q297.861 204.296 297.497 204.35Q297.132 204.404 296.766 204.44Q296.4 204.476 296.032 204.494Q295.664 204.513 295.296 204.513L14.999 204.513Q14.6308 204.513 14.263 204.494Q13.8953 204.476 13.5288 204.44Q13.1624 204.404 12.7982 204.35Q12.434 204.296 12.0728 204.224Q11.7117 204.153 11.3545 204.063Q10.9974 203.974 10.645 203.867Q10.2927 203.76 9.94599 203.636Q9.59931 203.512 9.25913 203.371Q8.91895 203.23 8.5861 203.072Q8.25325 202.915 7.92852 202.741Q7.60379 202.568 7.28797 202.379Q6.97215 202.189 6.666 201.985Q6.35985 201.78 6.06411 201.561Q5.76836 201.342 5.48373 201.108Q5.19911 200.874 4.92629 200.627Q4.65346 200.38 4.39311 200.119Q4.13274 199.859 3.88547 199.586Q3.6382 199.313 3.40462 199.029Q3.17103 198.744 2.95169 198.448Q2.73235 198.153 2.52779 197.847Q2.32322 197.54 2.13393 197.225Q1.94463 196.909 1.77106 196.584Q1.59749 196.259 1.44006 195.926Q1.28264 195.594 1.14173 195.253Q1.00082 194.913 0.87678 194.567Q0.752736 194.22 0.645852 193.868Q0.538968 193.515 0.449501 193.158Q0.360035 192.801 0.288202 192.44Q0.216368 192.079 0.162341 191.714Q0.108315 191.35 0.0722243 190.984Q0.0361339 190.617 0.0180669 190.25Q0 189.882 0 189.514L0 22.0512Q0 21.683 0.0180669 21.3153Q0.0361339 20.9475 0.0722243 20.5811Q0.108315 20.2147 0.162341 19.8504Q0.216368 19.4862 0.288202 19.1251Q0.360035 18.764 0.449501 18.4068Q0.538968 18.0496 0.645852 17.6973Q0.752736 17.3449 0.87678 16.9982Q1.00082 16.6516 1.14173 16.3114Q1.28264 15.9712 1.44006 15.6383Q1.59749 15.3055 1.77106 14.9808Q1.94463 14.656 2.13393 14.3402Q2.32322 14.0244 2.52779 13.7182Q2.73235 13.4121 2.95169 13.1164Q3.17103 12.8206 3.40462 12.536Q3.6382 12.2514 3.88547 11.9785Q4.13274 11.7057 4.39311 11.4454Q4.65346 11.185 4.92629 10.9377Q5.19911 10.6904 5.48373 10.4569Q5.76836 10.2233 6.06411 10.0039Q6.35985 9.7846 6.666 9.58003Q6.97215 9.37547 7.28797 9.18617Q7.60379 8.99688 7.92852 8.82331Q8.25325 8.64974 8.5861 8.49231Q8.91895 8.33488 9.25913 8.19398Q9.59931 8.05307 9.94599 7.92903Q10.2927 7.80498 10.645 7.6981Q10.9974 7.59121 11.3545 7.50175Q11.7117 7.41228 12.0728 7.34045Q12.434 7.26861 12.7982 7.21459Q13.1624 7.16056 13.5288 7.12447Q13.8953 7.08838 14.263 7.07031Q14.6308 7.05225 14.999 7.05225L14.999 7.05225Z" id="Rectangle" fill="#D3D3D3" fill-rule="evenodd" stroke="none" />
    <path d="M176.041 85.4077L264.014 85.4077Q264.319 85.4077 264.624 85.4227Q264.928 85.4377 265.232 85.4676Q265.536 85.4975 265.838 85.5423Q266.139 85.587 266.439 85.6466Q266.738 85.7061 267.034 85.7803Q267.33 85.8544 267.622 85.943Q267.914 86.0316 268.201 86.1344Q268.489 86.2372 268.771 86.354Q269.053 86.4707 269.328 86.6012Q269.604 86.7317 269.873 86.8755Q270.143 87.0194 270.404 87.1763Q270.666 87.3331 270.92 87.5027Q271.173 87.6722 271.419 87.854Q271.664 88.0358 271.9 88.2294Q272.136 88.423 272.362 88.6279Q272.588 88.8328 272.804 89.0486Q273.019 89.2644 273.224 89.4905Q273.429 89.7166 273.623 89.9525Q273.816 90.1884 273.998 90.4335Q274.18 90.6786 274.349 90.9323Q274.519 91.1861 274.676 91.4478Q274.833 91.7096 274.977 91.9787Q275.12 92.2478 275.251 92.5237Q275.381 92.7995 275.498 93.0815Q275.615 93.3634 275.718 93.6507Q275.821 93.938 275.909 94.2301Q275.998 94.5221 276.072 94.8181Q276.146 95.1141 276.206 95.4134Q276.265 95.7127 276.31 96.0146Q276.355 96.3164 276.385 96.6201Q276.415 96.9238 276.429 97.2286Q276.444 97.5334 276.444 97.8386L276.444 97.8406Q276.444 98.1457 276.429 98.4505Q276.415 98.7553 276.385 99.059Q276.355 99.3627 276.31 99.6645Q276.265 99.9664 276.206 100.266Q276.146 100.565 276.072 100.861Q275.998 101.157 275.909 101.449Q275.821 101.741 275.718 102.028Q275.615 102.316 275.498 102.598Q275.381 102.88 275.251 103.155Q275.12 103.431 274.977 103.7Q274.833 103.97 274.676 104.231Q274.519 104.493 274.349 104.747Q274.18 105 273.998 105.246Q273.816 105.491 273.623 105.727Q273.429 105.962 273.224 106.189Q273.019 106.415 272.804 106.63Q272.588 106.846 272.362 107.051Q272.136 107.256 271.9 107.45Q271.664 107.643 271.419 107.825Q271.174 108.007 270.92 108.176Q270.666 108.346 270.404 108.503Q270.143 108.66 269.873 108.804Q269.604 108.947 269.328 109.078Q269.053 109.208 268.771 109.325Q268.489 109.442 268.201 109.545Q267.914 109.648 267.622 109.736Q267.33 109.825 267.034 109.899Q266.738 109.973 266.439 110.033Q266.139 110.092 265.838 110.137Q265.536 110.182 265.232 110.212Q264.928 110.241 264.624 110.256Q264.319 110.271 264.014 110.271L176.041 110.271Q175.736 110.271 175.431 110.256Q175.126 110.241 174.822 110.212Q174.519 110.182 174.217 110.137Q173.915 110.092 173.616 110.033Q173.316 109.973 173.02 109.899Q172.724 109.825 172.432 109.736Q172.14 109.648 171.853 109.545Q171.566 109.442 171.284 109.325Q171.002 109.208 170.726 109.078Q170.45 108.947 170.181 108.804Q169.912 108.66 169.65 108.503Q169.388 108.346 169.135 108.176Q168.881 108.007 168.636 107.825Q168.391 107.643 168.155 107.45Q167.919 107.256 167.693 107.051Q167.467 106.846 167.251 106.63Q167.035 106.415 166.83 106.189Q166.625 105.962 166.432 105.727Q166.238 105.491 166.056 105.246Q165.874 105 165.705 104.747Q165.535 104.493 165.378 104.231Q165.222 103.97 165.078 103.7Q164.934 103.431 164.803 103.155Q164.673 102.88 164.556 102.598Q164.439 102.316 164.337 102.028Q164.234 101.741 164.145 101.449Q164.057 101.157 163.983 100.861Q163.908 100.565 163.849 100.266Q163.789 99.9664 163.745 99.6645Q163.7 99.3627 163.67 99.059Q163.64 98.7553 163.625 98.4505Q163.61 98.1457 163.61 97.8406L163.61 97.8386Q163.61 97.5334 163.625 97.2286Q163.64 96.9238 163.67 96.6201Q163.7 96.3164 163.745 96.0146Q163.789 95.7127 163.849 95.4134Q163.908 95.1141 163.983 94.8181Q164.057 94.5221 164.145 94.2301Q164.234 93.938 164.337 93.6507Q164.439 93.3634 164.556 93.0815Q164.673 92.7995 164.803 92.5237Q164.934 92.2478 165.078 91.9787Q165.222 91.7096 165.378 91.4478Q165.535 91.1861 165.705 90.9323Q165.874 90.6786 166.056 90.4335Q166.238 90.1884 166.432 89.9525Q166.625 89.7166 166.83 89.4905Q167.035 89.2644 167.251 89.0486Q167.467 88.8328 167.693 88.6279Q167.919 88.423 168.155 88.2294Q168.391 88.0358 168.636 87.854Q168.881 87.6722 169.135 87.5027Q169.388 87.3331 169.65 87.1762Q169.912 87.0194 170.181 86.8755Q170.45 86.7317 170.726 86.6012Q171.002 86.4707 171.284 86.354Q171.566 86.2372 171.853 86.1344Q172.14 86.0316 172.432 85.943Q172.724 85.8544 173.02 85.7803Q173.316 85.7061 173.616 85.6466Q173.915 85.587 174.217 85.5423Q174.519 85.4975 174.822 85.4676Q175.126 85.4377 175.431 85.4227Q175.736 85.4077 176.041 85.4077Z" id="Rectangle-Copy" fill="#EAFF00" fill-rule="evenodd" stroke="none" />
    <path d="M111.161 50.7759L199.134 50.7759Q199.439 50.7759 199.744 50.7909Q200.049 50.8058 200.352 50.8357Q200.656 50.8656 200.958 50.9104Q201.26 50.9552 201.559 51.0147Q201.858 51.0743 202.154 51.1484Q202.45 51.2226 202.742 51.3111Q203.034 51.3997 203.322 51.5025Q203.609 51.6053 203.891 51.7221Q204.173 51.8389 204.449 51.9694Q204.725 52.0998 204.994 52.2437Q205.263 52.3875 205.525 52.5444Q205.786 52.7013 206.04 52.8708Q206.294 53.0404 206.539 53.2222Q206.784 53.404 207.02 53.5976Q207.256 53.7911 207.482 53.9961Q207.708 54.201 207.924 54.4168Q208.139 54.6326 208.344 54.8587Q208.549 55.0848 208.743 55.3207Q208.937 55.5566 209.118 55.8017Q209.3 56.0468 209.47 56.3005Q209.639 56.5542 209.796 56.816Q209.953 57.0777 210.097 57.3469Q210.241 57.616 210.371 57.8918Q210.502 58.1677 210.618 58.4496Q210.735 58.7316 210.838 59.0189Q210.941 59.3062 211.029 59.5982Q211.118 59.8903 211.192 60.1863Q211.266 60.4823 211.326 60.7816Q211.385 61.0809 211.43 61.3827Q211.475 61.6846 211.505 61.9883Q211.535 62.292 211.55 62.5968Q211.565 62.9016 211.565 63.2067L211.565 63.2087Q211.565 63.5139 211.55 63.8187Q211.535 64.1235 211.505 64.4272Q211.475 64.7309 211.43 65.0327Q211.385 65.3346 211.326 65.6339Q211.266 65.9332 211.192 66.2292Q211.118 66.5252 211.029 66.8172Q210.941 67.1092 210.838 67.3965Q210.735 67.6839 210.618 67.9658Q210.502 68.2477 210.371 68.5236Q210.241 68.7995 210.097 69.0686Q209.953 69.3377 209.796 69.5995Q209.639 69.8612 209.47 70.1149Q209.3 70.3687 209.118 70.6138Q208.937 70.8589 208.743 71.0948Q208.549 71.3307 208.344 71.5568Q208.139 71.7829 207.924 71.9987Q207.708 72.2144 207.482 72.4194Q207.256 72.6243 207.02 72.8179Q206.784 73.0115 206.539 73.1933Q206.294 73.375 206.04 73.5446Q205.786 73.7141 205.525 73.871Q205.263 74.0279 204.994 74.1717Q204.725 74.3156 204.449 74.4461Q204.173 74.5765 203.891 74.6933Q203.609 74.8101 203.322 74.9129Q203.034 75.0157 202.742 75.1043Q202.45 75.1929 202.154 75.267Q201.858 75.3412 201.559 75.4007Q201.26 75.4603 200.958 75.505Q200.656 75.5498 200.352 75.5797Q200.049 75.6096 199.744 75.6246Q199.439 75.6396 199.134 75.6396L111.161 75.6396Q110.856 75.6396 110.551 75.6246Q110.246 75.6096 109.943 75.5797Q109.639 75.5498 109.337 75.505Q109.035 75.4603 108.736 75.4007Q108.437 75.3412 108.141 75.267Q107.845 75.1929 107.553 75.1043Q107.261 75.0157 106.973 74.9129Q106.686 74.8101 106.404 74.6933Q106.122 74.5765 105.846 74.4461Q105.57 74.3156 105.301 74.1717Q105.032 74.0279 104.77 73.871Q104.509 73.7141 104.255 73.5446Q104.001 73.375 103.756 73.1933Q103.511 73.0115 103.275 72.8179Q103.039 72.6243 102.813 72.4194Q102.587 72.2144 102.371 71.9987Q102.155 71.7829 101.95 71.5568Q101.745 71.3307 101.552 71.0948Q101.358 70.8589 101.176 70.6138Q100.995 70.3687 100.825 70.1149Q100.656 69.8612 100.499 69.5995Q100.342 69.3377 100.198 69.0686Q100.054 68.7995 99.9237 68.5236Q99.7932 68.2477 99.6764 67.9658Q99.5596 67.6839 99.4568 67.3965Q99.354 67.1092 99.2654 66.8172Q99.1768 66.5252 99.1027 66.2292Q99.0285 65.9332 98.969 65.6339Q98.9095 65.3346 98.8647 65.0327Q98.8199 64.7309 98.79 64.4272Q98.7601 64.1235 98.7451 63.8187Q98.7302 63.5139 98.7302 63.2087L98.7302 63.2067Q98.7302 62.9016 98.7451 62.5968Q98.7601 62.292 98.79 61.9883Q98.8199 61.6846 98.8647 61.3827Q98.9095 61.0809 98.969 60.7816Q99.0285 60.4823 99.1027 60.1863Q99.1768 59.8903 99.2654 59.5982Q99.354 59.3062 99.4568 59.0189Q99.5596 58.7316 99.6764 58.4496Q99.7932 58.1677 99.9237 57.8918Q100.054 57.616 100.198 57.3469Q100.342 57.0777 100.499 56.816Q100.656 56.5542 100.825 56.3005Q100.995 56.0468 101.176 55.8017Q101.358 55.5566 101.552 55.3207Q101.745 55.0848 101.95 54.8587Q102.155 54.6326 102.371 54.4168Q102.587 54.201 102.813 53.9961Q103.039 53.7911 103.275 53.5976Q103.511 53.404 103.756 53.2222Q104.001 53.0404 104.255 52.8708Q104.509 52.7013 104.77 52.5444Q105.032 52.3875 105.301 52.2437Q105.57 52.0998 105.846 51.9694Q106.122 51.8389 106.404 51.7221Q106.686 51.6053 106.973 51.5025Q107.261 51.3997 107.553 51.3111Q107.845 51.2226 108.141 51.1484Q108.437 51.0743 108.736 51.0147Q109.035 50.9552 109.337 50.9104Q109.639 50.8656 109.943 50.8357Q110.246 50.8058 110.551 50.7909Q110.856 50.7759 111.161 50.7759Z" id="Rectangle-Copy-2" fill="#1B2C61" fill-rule="evenodd" stroke="none" />
    <path d="M46.2811 50.7759L69.3741 50.7759Q69.6792 50.7759 69.984 50.7909Q70.2888 50.8058 70.5925 50.8357Q70.8962 50.8656 71.1981 50.9104Q71.4999 50.9552 71.7992 51.0147Q72.0985 51.0743 72.3945 51.1484Q72.6905 51.2226 72.9826 51.3111Q73.2746 51.3997 73.5619 51.5025Q73.8492 51.6053 74.1311 51.7221Q74.4131 51.8389 74.6889 51.9694Q74.9648 52.0998 75.2339 52.2437Q75.5031 52.3875 75.7648 52.5444Q76.0265 52.7013 76.2803 52.8708Q76.534 53.0404 76.7791 53.2222Q77.0242 53.404 77.2601 53.5976Q77.496 53.7911 77.7221 53.9961Q77.9482 54.201 78.164 54.4168Q78.3798 54.6326 78.5847 54.8587Q78.7897 55.0848 78.9833 55.3207Q79.1768 55.5566 79.3586 55.8017Q79.5404 56.0468 79.7099 56.3005Q79.8795 56.5542 80.0364 56.816Q80.1933 57.0777 80.3371 57.3469Q80.481 57.616 80.6114 57.8918Q80.7419 58.1677 80.8587 58.4496Q80.9755 58.7316 81.0783 59.0189Q81.1811 59.3062 81.2697 59.5982Q81.3582 59.8903 81.4324 60.1863Q81.5065 60.4823 81.5661 60.7816Q81.6256 61.0809 81.6704 61.3827Q81.7151 61.6846 81.7451 61.9883Q81.775 62.292 81.7899 62.5968Q81.8049 62.9016 81.8049 63.2067L81.8049 63.2087Q81.8049 63.5139 81.7899 63.8187Q81.775 64.1235 81.7451 64.4272Q81.7151 64.7309 81.6704 65.0327Q81.6256 65.3346 81.5661 65.6339Q81.5065 65.9332 81.4324 66.2292Q81.3582 66.5252 81.2697 66.8172Q81.1811 67.1092 81.0783 67.3965Q80.9755 67.6839 80.8587 67.9658Q80.7419 68.2477 80.6114 68.5236Q80.481 68.7995 80.3371 69.0686Q80.1933 69.3377 80.0364 69.5995Q79.8795 69.8612 79.71 70.1149Q79.5404 70.3687 79.3586 70.6138Q79.1768 70.8589 78.9833 71.0948Q78.7897 71.3307 78.5847 71.5568Q78.3798 71.7829 78.164 71.9987Q77.9482 72.2144 77.7221 72.4194Q77.496 72.6243 77.2601 72.8179Q77.0242 73.0115 76.7791 73.1933Q76.534 73.375 76.2803 73.5446Q76.0265 73.7141 75.7648 73.871Q75.5031 74.0279 75.2339 74.1717Q74.9648 74.3156 74.6889 74.4461Q74.4131 74.5765 74.1311 74.6933Q73.8492 74.8101 73.5619 74.9129Q73.2746 75.0157 72.9826 75.1043Q72.6905 75.1929 72.3945 75.267Q72.0985 75.3412 71.7992 75.4007Q71.4999 75.4603 71.1981 75.505Q70.8962 75.5498 70.5925 75.5797Q70.2888 75.6096 69.984 75.6246Q69.6792 75.6396 69.3741 75.6396L46.2811 75.6396Q45.976 75.6396 45.6712 75.6246Q45.3664 75.6096 45.0627 75.5797Q44.759 75.5498 44.4571 75.505Q44.1553 75.4603 43.856 75.4007Q43.5567 75.3412 43.2607 75.267Q42.9647 75.1929 42.6726 75.1043Q42.3806 75.0157 42.0933 74.9129Q41.806 74.8101 41.524 74.6933Q41.2421 74.5765 40.9662 74.4461Q40.6904 74.3156 40.4213 74.1717Q40.1521 74.0279 39.8904 73.871Q39.6286 73.7141 39.3749 73.5446Q39.1212 73.375 38.8761 73.1933Q38.631 73.0115 38.3951 72.8179Q38.1592 72.6243 37.9331 72.4194Q37.707 72.2144 37.4912 71.9987Q37.2754 71.7829 37.0705 71.5568Q36.8655 71.3307 36.672 71.0948Q36.4784 70.8589 36.2966 70.6138Q36.1148 70.3687 35.9453 70.1149Q35.7757 69.8612 35.6188 69.5995Q35.4619 69.3377 35.3181 69.0686Q35.1742 68.7995 35.0438 68.5236Q34.9133 68.2477 34.7965 67.9658Q34.6797 67.6839 34.5769 67.3965Q34.4741 67.1092 34.3855 66.8172Q34.297 66.5252 34.2228 66.2292Q34.1487 65.9332 34.0891 65.6339Q34.0296 65.3346 33.9848 65.0327Q33.94 64.7309 33.9101 64.4272Q33.8802 64.1235 33.8652 63.8187Q33.8503 63.5139 33.8503 63.2087L33.8503 63.2067Q33.8503 62.9016 33.8652 62.5968Q33.8802 62.292 33.9101 61.9883Q33.94 61.6846 33.9848 61.3827Q34.0296 61.0809 34.0891 60.7816Q34.1487 60.4823 34.2228 60.1863Q34.297 59.8903 34.3855 59.5982Q34.4741 59.3062 34.5769 59.0189Q34.6797 58.7316 34.7965 58.4496Q34.9133 58.1677 35.0438 57.8918Q35.1742 57.616 35.3181 57.3469Q35.4619 57.0777 35.6188 56.816Q35.7757 56.5542 35.9453 56.3005Q36.1148 56.0468 36.2966 55.8017Q36.4784 55.5566 36.672 55.3207Q36.8655 55.0848 37.0705 54.8587Q37.2754 54.6326 37.4912 54.4168Q37.707 54.201 37.9331 53.9961Q38.1592 53.7911 38.3951 53.5976Q38.631 53.404 38.8761 53.2222Q39.1212 53.0404 39.3749 52.8708Q39.6286 52.7013 39.8904 52.5444Q40.1521 52.3875 40.4213 52.2437Q40.6904 52.0998 40.9662 51.9694Q41.2421 51.8389 41.524 51.7221Q41.806 51.6053 42.0933 51.5025Q42.3806 51.3997 42.6726 51.3111Q42.9647 51.2226 43.2607 51.1484Q43.5567 51.0743 43.856 51.0147Q44.1553 50.9552 44.4571 50.9104Q44.759 50.8656 45.0627 50.8357Q45.3664 50.8058 45.6712 50.7909Q45.976 50.7759 46.2811 50.7759Z" id="Rectangle-Copy-4" fill="#EAFF00" fill-rule="evenodd" stroke="none" />
    <path d="M240.921 50.7759L264.014 50.7759Q264.319 50.7759 264.624 50.7909Q264.928 50.8058 265.232 50.8357Q265.536 50.8656 265.838 50.9104Q266.139 50.9552 266.439 51.0147Q266.738 51.0743 267.034 51.1484Q267.33 51.2226 267.622 51.3111Q267.914 51.3997 268.201 51.5025Q268.489 51.6053 268.771 51.7221Q269.053 51.8389 269.328 51.9694Q269.604 52.0998 269.873 52.2437Q270.143 52.3875 270.404 52.5444Q270.666 52.7013 270.92 52.8708Q271.173 53.0404 271.419 53.2222Q271.664 53.404 271.9 53.5976Q272.136 53.7911 272.362 53.9961Q272.588 54.201 272.804 54.4168Q273.019 54.6326 273.224 54.8587Q273.429 55.0848 273.623 55.3207Q273.816 55.5566 273.998 55.8017Q274.18 56.0468 274.349 56.3005Q274.519 56.5542 274.676 56.816Q274.833 57.0777 274.977 57.3469Q275.12 57.616 275.251 57.8918Q275.381 58.1677 275.498 58.4496Q275.615 58.7316 275.718 59.0189Q275.821 59.3062 275.909 59.5982Q275.998 59.8903 276.072 60.1863Q276.146 60.4823 276.206 60.7816Q276.265 61.0809 276.31 61.3827Q276.355 61.6846 276.385 61.9883Q276.415 62.292 276.429 62.5968Q276.444 62.9016 276.444 63.2067L276.444 63.2087Q276.444 63.5139 276.429 63.8187Q276.415 64.1235 276.385 64.4272Q276.355 64.7309 276.31 65.0327Q276.265 65.3346 276.206 65.6339Q276.146 65.9332 276.072 66.2292Q275.998 66.5252 275.909 66.8172Q275.821 67.1092 275.718 67.3965Q275.615 67.6839 275.498 67.9658Q275.381 68.2477 275.251 68.5236Q275.12 68.7995 274.977 69.0686Q274.833 69.3377 274.676 69.5995Q274.519 69.8612 274.349 70.1149Q274.18 70.3687 273.998 70.6138Q273.816 70.8589 273.623 71.0948Q273.429 71.3307 273.224 71.5568Q273.019 71.7829 272.804 71.9987Q272.588 72.2144 272.362 72.4194Q272.136 72.6243 271.9 72.8179Q271.664 73.0115 271.419 73.1933Q271.174 73.375 270.92 73.5446Q270.666 73.7141 270.404 73.871Q270.143 74.0279 269.873 74.1717Q269.604 74.3156 269.328 74.4461Q269.053 74.5765 268.771 74.6933Q268.489 74.8101 268.201 74.9129Q267.914 75.0157 267.622 75.1043Q267.33 75.1929 267.034 75.267Q266.738 75.3412 266.439 75.4007Q266.139 75.4603 265.838 75.505Q265.536 75.5498 265.232 75.5797Q264.928 75.6096 264.624 75.6246Q264.319 75.6396 264.014 75.6396L240.921 75.6396Q240.615 75.6396 240.311 75.6246Q240.006 75.6096 239.702 75.5797Q239.399 75.5498 239.097 75.505Q238.795 75.4603 238.495 75.4007Q238.196 75.3412 237.9 75.267Q237.604 75.1929 237.312 75.1043Q237.02 75.0157 236.733 74.9129Q236.445 74.8101 236.164 74.6933Q235.882 74.5765 235.606 74.4461Q235.33 74.3156 235.061 74.1717Q234.792 74.0279 234.53 73.871Q234.268 73.7141 234.014 73.5446Q233.761 73.375 233.516 73.1933Q233.271 73.0115 233.035 72.8179Q232.799 72.6243 232.573 72.4194Q232.346 72.2144 232.131 71.9987Q231.915 71.7829 231.71 71.5568Q231.505 71.3307 231.311 71.0948Q231.118 70.8589 230.936 70.6138Q230.754 70.3687 230.585 70.1149Q230.415 69.8612 230.258 69.5995Q230.101 69.3377 229.958 69.0686Q229.814 68.7995 229.683 68.5236Q229.553 68.2477 229.436 67.9658Q229.319 67.6839 229.216 67.3965Q229.114 67.1092 229.025 66.8172Q228.936 66.5252 228.862 66.2292Q228.788 65.9332 228.729 65.6339Q228.669 65.3346 228.624 65.0327Q228.58 64.7309 228.55 64.4272Q228.52 64.1235 228.505 63.8187Q228.49 63.5139 228.49 63.2087L228.49 63.2067Q228.49 62.9016 228.505 62.5968Q228.52 62.292 228.55 61.9883Q228.58 61.6846 228.624 61.3827Q228.669 61.0809 228.729 60.7816Q228.788 60.4823 228.862 60.1863Q228.936 59.8903 229.025 59.5982Q229.114 59.3062 229.216 59.0189Q229.319 58.7316 229.436 58.4496Q229.553 58.1677 229.683 57.8918Q229.814 57.616 229.958 57.3469Q230.101 57.0777 230.258 56.816Q230.415 56.5542 230.585 56.3005Q230.754 56.0468 230.936 55.8017Q231.118 55.5566 231.311 55.3207Q231.505 55.0848 231.71 54.8587Q231.915 54.6326 232.131 54.4168Q232.346 54.201 232.573 53.9961Q232.799 53.7911 233.035 53.5976Q233.27 53.404 233.516 53.2222Q233.761 53.0404 234.014 52.8708Q234.268 52.7013 234.53 52.5444Q234.792 52.3875 235.061 52.2437Q235.33 52.0998 235.606 51.9694Q235.882 51.8389 236.164 51.7221Q236.445 51.6053 236.733 51.5025Q237.02 51.3997 237.312 51.3111Q237.604 51.2226 237.9 51.1484Q238.196 51.0743 238.495 51.0147Q238.795 50.9552 239.097 50.9104Q239.399 50.8656 239.702 50.8357Q240.006 50.8058 240.311 50.7909Q240.615 50.7759 240.921 50.7759Z" id="Rectangle-Copy-5" fill="#1B2C61" fill-rule="evenodd" stroke="none" />
    <path d="M46.2811 85.4077L134.254 85.4077Q134.559 85.4077 134.864 85.4227Q135.169 85.4377 135.472 85.4676Q135.776 85.4975 136.078 85.5423Q136.38 85.587 136.679 85.6466Q136.978 85.7061 137.274 85.7803Q137.57 85.8544 137.862 85.943Q138.154 86.0316 138.442 86.1344Q138.729 86.2372 139.011 86.354Q139.293 86.4707 139.569 86.6012Q139.845 86.7317 140.114 86.8755Q140.383 87.0194 140.645 87.1763Q140.906 87.3331 141.16 87.5027Q141.414 87.6722 141.659 87.854Q141.904 88.0358 142.14 88.2294Q142.376 88.423 142.602 88.6279Q142.828 88.8328 143.044 89.0486Q143.26 89.2644 143.465 89.4905Q143.669 89.7166 143.863 89.9525Q144.057 90.1884 144.238 90.4335Q144.42 90.6786 144.59 90.9323Q144.759 91.1861 144.916 91.4478Q145.073 91.7096 145.217 91.9787Q145.361 92.2478 145.491 92.5237Q145.622 92.7995 145.738 93.0815Q145.855 93.3634 145.958 93.6507Q146.061 93.938 146.149 94.2301Q146.238 94.5221 146.312 94.8181Q146.386 95.1141 146.446 95.4134Q146.505 95.7127 146.55 96.0146Q146.595 96.3164 146.625 96.6201Q146.655 96.9238 146.67 97.2286Q146.685 97.5334 146.685 97.8386L146.685 97.8406Q146.685 98.1457 146.67 98.4505Q146.655 98.7553 146.625 99.059Q146.595 99.3627 146.55 99.6645Q146.505 99.9664 146.446 100.266Q146.386 100.565 146.312 100.861Q146.238 101.157 146.149 101.449Q146.061 101.741 145.958 102.028Q145.855 102.316 145.738 102.598Q145.622 102.88 145.491 103.155Q145.361 103.431 145.217 103.7Q145.073 103.97 144.916 104.231Q144.759 104.493 144.59 104.747Q144.42 105 144.238 105.246Q144.057 105.491 143.863 105.727Q143.669 105.962 143.465 106.189Q143.26 106.415 143.044 106.63Q142.828 106.846 142.602 107.051Q142.376 107.256 142.14 107.45Q141.904 107.643 141.659 107.825Q141.414 108.007 141.16 108.176Q140.906 108.346 140.645 108.503Q140.383 108.66 140.114 108.804Q139.845 108.947 139.569 109.078Q139.293 109.208 139.011 109.325Q138.729 109.442 138.442 109.545Q138.154 109.648 137.862 109.736Q137.57 109.825 137.274 109.899Q136.978 109.973 136.679 110.033Q136.38 110.092 136.078 110.137Q135.776 110.182 135.472 110.212Q135.169 110.241 134.864 110.256Q134.559 110.271 134.254 110.271L46.2811 110.271Q45.976 110.271 45.6712 110.256Q45.3664 110.241 45.0627 110.212Q44.759 110.182 44.4571 110.137Q44.1553 110.092 43.856 110.033Q43.5567 109.973 43.2607 109.899Q42.9647 109.825 42.6726 109.736Q42.3806 109.648 42.0933 109.545Q41.806 109.442 41.524 109.325Q41.2421 109.208 40.9662 109.078Q40.6904 108.947 40.4213 108.804Q40.1521 108.66 39.8904 108.503Q39.6286 108.346 39.3749 108.176Q39.1212 108.007 38.8761 107.825Q38.631 107.643 38.3951 107.45Q38.1592 107.256 37.9331 107.051Q37.707 106.846 37.4912 106.63Q37.2754 106.415 37.0705 106.189Q36.8655 105.962 36.672 105.727Q36.4784 105.491 36.2966 105.246Q36.1148 105 35.9453 104.747Q35.7757 104.493 35.6188 104.231Q35.4619 103.97 35.3181 103.7Q35.1742 103.431 35.0438 103.155Q34.9133 102.88 34.7965 102.598Q34.6797 102.316 34.5769 102.028Q34.4741 101.741 34.3855 101.449Q34.297 101.157 34.2228 100.861Q34.1487 100.565 34.0891 100.266Q34.0296 99.9664 33.9848 99.6645Q33.94 99.3627 33.9101 99.059Q33.8802 98.7553 33.8652 98.4505Q33.8503 98.1457 33.8503 97.8406L33.8503 97.8386Q33.8503 97.5334 33.8652 97.2286Q33.8802 96.9238 33.9101 96.6201Q33.94 96.3164 33.9848 96.0146Q34.0296 95.7127 34.0891 95.4134Q34.1487 95.1141 34.2228 94.8181Q34.297 94.5221 34.3855 94.2301Q34.4741 93.938 34.5769 93.6507Q34.6797 93.3634 34.7965 93.0815Q34.9133 92.7995 35.0438 92.5237Q35.1742 92.2478 35.3181 91.9787Q35.4619 91.7096 35.6188 91.4478Q35.7757 91.1861 35.9453 90.9323Q36.1148 90.6786 36.2966 90.4335Q36.4784 90.1884 36.672 89.9525Q36.8655 89.7166 37.0705 89.4905Q37.2754 89.2644 37.4912 89.0486Q37.707 88.8328 37.9331 88.6279Q38.1592 88.423 38.3951 88.2294Q38.631 88.0358 38.8761 87.854Q39.1212 87.6722 39.3749 87.5027Q39.6286 87.3331 39.8904 87.1762Q40.1521 87.0194 40.4213 86.8755Q40.6904 86.7317 40.9662 86.6012Q41.2421 86.4707 41.524 86.354Q41.806 86.2372 42.0933 86.1344Q42.3806 86.0316 42.6726 85.943Q42.9647 85.8544 43.2607 85.7803Q43.5567 85.7061 43.856 85.6466Q44.1553 85.587 44.4571 85.5423Q44.759 85.4975 45.0627 85.4676Q45.3664 85.4377 45.6712 85.4227Q45.976 85.4077 46.2811 85.4077Z" id="Rectangle-Copy-3" fill="#1B2C61" fill-rule="evenodd" stroke="none" />
    <path d="M176.041 154.967L264.014 154.967Q264.319 154.967 264.624 154.982Q264.928 154.997 265.232 155.027Q265.536 155.057 265.838 155.101Q266.139 155.146 266.439 155.206Q266.738 155.265 267.034 155.339Q267.33 155.413 267.622 155.502Q267.914 155.591 268.201 155.693Q268.489 155.796 268.771 155.913Q269.053 156.03 269.328 156.16Q269.604 156.291 269.873 156.435Q270.143 156.578 270.404 156.735Q270.666 156.892 270.92 157.062Q271.173 157.231 271.419 157.413Q271.664 157.595 271.9 157.788Q272.136 157.982 272.362 158.187Q272.588 158.392 272.804 158.608Q273.019 158.823 273.224 159.05Q273.429 159.276 273.623 159.512Q273.816 159.747 273.998 159.993Q274.18 160.238 274.349 160.491Q274.519 160.745 274.676 161.007Q274.833 161.269 274.977 161.538Q275.12 161.807 275.251 162.083Q275.381 162.359 275.498 162.641Q275.615 162.922 275.718 163.21Q275.821 163.497 275.909 163.789Q275.998 164.081 276.072 164.377Q276.146 164.673 276.206 164.972Q276.265 165.272 276.31 165.574Q276.355 165.876 276.385 166.179Q276.415 166.483 276.429 166.788Q276.444 167.092 276.444 167.398L276.444 167.4Q276.444 167.705 276.429 168.01Q276.415 168.314 276.385 168.618Q276.355 168.922 276.31 169.224Q276.265 169.525 276.206 169.825Q276.146 170.124 276.072 170.42Q275.998 170.716 275.909 171.008Q275.821 171.3 275.718 171.587Q275.615 171.875 275.498 172.157Q275.381 172.439 275.251 172.715Q275.12 172.99 274.977 173.26Q274.833 173.529 274.676 173.79Q274.519 174.052 274.349 174.306Q274.18 174.56 273.998 174.805Q273.816 175.05 273.623 175.286Q273.429 175.522 273.224 175.748Q273.019 175.974 272.804 176.19Q272.588 176.405 272.362 176.61Q272.136 176.815 271.9 177.009Q271.664 177.202 271.419 177.384Q271.174 177.566 270.92 177.736Q270.666 177.905 270.404 178.062Q270.143 178.219 269.873 178.363Q269.604 178.506 269.328 178.637Q269.053 178.767 268.771 178.884Q268.489 179.001 268.201 179.104Q267.914 179.207 267.622 179.295Q267.33 179.384 267.034 179.458Q266.738 179.532 266.439 179.592Q266.139 179.651 265.838 179.696Q265.536 179.741 265.232 179.771Q264.928 179.801 264.624 179.816Q264.319 179.831 264.014 179.831L176.041 179.831Q175.736 179.831 175.431 179.816Q175.126 179.801 174.822 179.771Q174.519 179.741 174.217 179.696Q173.915 179.651 173.616 179.592Q173.316 179.532 173.02 179.458Q172.724 179.384 172.432 179.295Q172.14 179.207 171.853 179.104Q171.566 179.001 171.284 178.884Q171.002 178.767 170.726 178.637Q170.45 178.507 170.181 178.363Q169.912 178.219 169.65 178.062Q169.388 177.905 169.135 177.736Q168.881 177.566 168.636 177.384Q168.391 177.202 168.155 177.009Q167.919 176.815 167.693 176.61Q167.467 176.405 167.251 176.19Q167.035 175.974 166.83 175.748Q166.625 175.522 166.432 175.286Q166.238 175.05 166.056 174.805Q165.874 174.56 165.705 174.306Q165.535 174.052 165.378 173.79Q165.222 173.529 165.078 173.26Q164.934 172.99 164.803 172.714Q164.673 172.439 164.556 172.157Q164.439 171.875 164.337 171.587Q164.234 171.3 164.145 171.008Q164.057 170.716 163.983 170.42Q163.908 170.124 163.849 169.825Q163.789 169.525 163.745 169.224Q163.7 168.922 163.67 168.618Q163.64 168.314 163.625 168.01Q163.61 167.705 163.61 167.4L163.61 167.398Q163.61 167.092 163.625 166.788Q163.64 166.483 163.67 166.179Q163.7 165.876 163.745 165.574Q163.789 165.272 163.849 164.972Q163.908 164.673 163.983 164.377Q164.057 164.081 164.145 163.789Q164.234 163.497 164.337 163.21Q164.439 162.922 164.556 162.641Q164.673 162.359 164.803 162.083Q164.934 161.807 165.078 161.538Q165.222 161.269 165.378 161.007Q165.535 160.745 165.705 160.491Q165.874 160.238 166.056 159.993Q166.238 159.747 166.432 159.512Q166.625 159.276 166.83 159.05Q167.035 158.823 167.251 158.608Q167.467 158.392 167.693 158.187Q167.919 157.982 168.155 157.788Q168.391 157.595 168.636 157.413Q168.881 157.231 169.135 157.062Q169.388 156.892 169.65 156.735Q169.912 156.578 170.181 156.435Q170.45 156.291 170.726 156.16Q171.002 156.03 171.284 155.913Q171.566 155.796 171.853 155.693Q172.14 155.591 172.432 155.502Q172.724 155.413 173.02 155.339Q173.316 155.265 173.616 155.206Q173.915 155.146 174.217 155.101Q174.519 155.057 174.822 155.027Q175.126 154.997 175.431 154.982Q175.736 154.967 176.041 154.967Z" id="Rectangle-Copy-6" fill="#EAFF00" fill-rule="evenodd" stroke="none" />
    <path d="M111.161 120.335L199.134 120.335Q199.439 120.335 199.744 120.35Q200.049 120.365 200.352 120.395Q200.656 120.425 200.958 120.47Q201.26 120.515 201.559 120.574Q201.858 120.634 202.154 120.708Q202.45 120.782 202.742 120.871Q203.034 120.959 203.322 121.062Q203.609 121.165 203.891 121.282Q204.173 121.398 204.449 121.529Q204.725 121.659 204.994 121.803Q205.263 121.947 205.525 122.104Q205.786 122.261 206.04 122.43Q206.294 122.6 206.539 122.782Q206.784 122.964 207.02 123.157Q207.256 123.351 207.482 123.556Q207.708 123.761 207.924 123.976Q208.139 124.192 208.344 124.418Q208.549 124.644 208.743 124.88Q208.937 125.116 209.118 125.361Q209.3 125.606 209.47 125.86Q209.639 126.114 209.796 126.376Q209.953 126.637 210.097 126.906Q210.241 127.176 210.371 127.451Q210.502 127.727 210.618 128.009Q210.735 128.291 210.838 128.578Q210.941 128.866 211.029 129.158Q211.118 129.45 211.192 129.746Q211.266 130.042 211.326 130.341Q211.385 130.64 211.43 130.942Q211.475 131.244 211.505 131.548Q211.535 131.852 211.55 132.156Q211.565 132.461 211.565 132.766L211.565 132.768Q211.565 133.073 211.55 133.378Q211.535 133.683 211.505 133.987Q211.475 134.29 211.43 134.592Q211.385 134.894 211.326 135.193Q211.266 135.493 211.192 135.789Q211.118 136.085 211.029 136.377Q210.941 136.669 210.838 136.956Q210.735 137.243 210.618 137.525Q210.502 137.807 210.371 138.083Q210.241 138.359 210.097 138.628Q209.953 138.897 209.796 139.159Q209.639 139.421 209.47 139.674Q209.3 139.928 209.118 140.173Q208.937 140.418 208.743 140.654Q208.549 140.89 208.344 141.116Q208.139 141.342 207.924 141.558Q207.708 141.774 207.482 141.979Q207.256 142.184 207.02 142.377Q206.784 142.571 206.539 142.753Q206.294 142.935 206.04 143.104Q205.786 143.274 205.525 143.431Q205.263 143.587 204.994 143.731Q204.725 143.875 204.449 144.006Q204.173 144.136 203.891 144.253Q203.609 144.37 203.322 144.472Q203.034 144.575 202.742 144.664Q202.45 144.752 202.154 144.827Q201.858 144.901 201.559 144.96Q201.26 145.02 200.958 145.065Q200.656 145.109 200.352 145.139Q200.049 145.169 199.744 145.184Q199.439 145.199 199.134 145.199L111.161 145.199Q110.856 145.199 110.551 145.184Q110.246 145.169 109.943 145.139Q109.639 145.109 109.337 145.065Q109.035 145.02 108.736 144.96Q108.437 144.901 108.141 144.827Q107.845 144.752 107.553 144.664Q107.261 144.575 106.973 144.472Q106.686 144.37 106.404 144.253Q106.122 144.136 105.846 144.006Q105.57 143.875 105.301 143.731Q105.032 143.587 104.77 143.431Q104.509 143.274 104.255 143.104Q104.001 142.935 103.756 142.753Q103.511 142.571 103.275 142.377Q103.039 142.184 102.813 141.979Q102.587 141.774 102.371 141.558Q102.155 141.342 101.95 141.116Q101.745 140.89 101.552 140.654Q101.358 140.418 101.176 140.173Q100.995 139.928 100.825 139.674Q100.656 139.421 100.499 139.159Q100.342 138.897 100.198 138.628Q100.054 138.359 99.9237 138.083Q99.7932 137.807 99.6764 137.525Q99.5596 137.243 99.4568 136.956Q99.354 136.669 99.2654 136.377Q99.1768 136.085 99.1027 135.789Q99.0285 135.493 98.969 135.193Q98.9095 134.894 98.8647 134.592Q98.8199 134.29 98.79 133.987Q98.7601 133.683 98.7451 133.378Q98.7302 133.073 98.7302 132.768L98.7302 132.766Q98.7302 132.461 98.7451 132.156Q98.7601 131.852 98.79 131.548Q98.8199 131.244 98.8647 130.942Q98.9095 130.64 98.969 130.341Q99.0285 130.042 99.1027 129.746Q99.1768 129.45 99.2654 129.158Q99.354 128.866 99.4568 128.578Q99.5596 128.291 99.6764 128.009Q99.7932 127.727 99.9237 127.451Q100.054 127.176 100.198 126.906Q100.342 126.637 100.499 126.376Q100.656 126.114 100.825 125.86Q100.995 125.606 101.176 125.361Q101.358 125.116 101.552 124.88Q101.745 124.644 101.95 124.418Q102.155 124.192 102.371 123.976Q102.587 123.761 102.813 123.556Q103.039 123.351 103.275 123.157Q103.511 122.964 103.756 122.782Q104.001 122.6 104.255 122.43Q104.509 122.261 104.77 122.104Q105.032 121.947 105.301 121.803Q105.57 121.659 105.846 121.529Q106.122 121.398 106.404 121.282Q106.686 121.165 106.973 121.062Q107.261 120.959 107.553 120.871Q107.845 120.782 108.141 120.708Q108.437 120.634 108.736 120.574Q109.035 120.515 109.337 120.47Q109.639 120.425 109.943 120.395Q110.246 120.365 110.551 120.35Q110.856 120.335 111.161 120.335Z" id="Rectangle-Copy-7" fill="#EAFF00" fill-rule="evenodd" stroke="none" />
    <path d="M46.2811 120.335L69.3741 120.335Q69.6792 120.335 69.984 120.35Q70.2888 120.365 70.5925 120.395Q70.8962 120.425 71.1981 120.47Q71.4999 120.515 71.7992 120.574Q72.0985 120.634 72.3945 120.708Q72.6905 120.782 72.9826 120.871Q73.2746 120.959 73.5619 121.062Q73.8492 121.165 74.1311 121.282Q74.4131 121.398 74.6889 121.529Q74.9648 121.659 75.2339 121.803Q75.5031 121.947 75.7648 122.104Q76.0265 122.261 76.2803 122.43Q76.534 122.6 76.7791 122.782Q77.0242 122.964 77.2601 123.157Q77.496 123.351 77.7221 123.556Q77.9482 123.761 78.164 123.976Q78.3798 124.192 78.5847 124.418Q78.7897 124.644 78.9833 124.88Q79.1768 125.116 79.3586 125.361Q79.5404 125.606 79.7099 125.86Q79.8795 126.114 80.0364 126.376Q80.1933 126.637 80.3371 126.906Q80.481 127.176 80.6114 127.451Q80.7419 127.727 80.8587 128.009Q80.9755 128.291 81.0783 128.578Q81.1811 128.866 81.2697 129.158Q81.3582 129.45 81.4324 129.746Q81.5065 130.042 81.5661 130.341Q81.6256 130.64 81.6704 130.942Q81.7151 131.244 81.7451 131.548Q81.775 131.852 81.7899 132.156Q81.8049 132.461 81.8049 132.766L81.8049 132.768Q81.8049 133.073 81.7899 133.378Q81.775 133.683 81.7451 133.987Q81.7151 134.29 81.6704 134.592Q81.6256 134.894 81.5661 135.193Q81.5065 135.493 81.4324 135.789Q81.3582 136.085 81.2697 136.377Q81.1811 136.669 81.0783 136.956Q80.9755 137.243 80.8587 137.525Q80.7419 137.807 80.6114 138.083Q80.481 138.359 80.3371 138.628Q80.1933 138.897 80.0364 139.159Q79.8795 139.421 79.71 139.674Q79.5404 139.928 79.3586 140.173Q79.1768 140.418 78.9833 140.654Q78.7897 140.89 78.5847 141.116Q78.3798 141.342 78.164 141.558Q77.9482 141.774 77.7221 141.979Q77.496 142.184 77.2601 142.377Q77.0242 142.571 76.7791 142.753Q76.534 142.935 76.2803 143.104Q76.0265 143.274 75.7648 143.431Q75.5031 143.587 75.2339 143.731Q74.9648 143.875 74.6889 144.006Q74.4131 144.136 74.1311 144.253Q73.8492 144.37 73.5619 144.472Q73.2746 144.575 72.9826 144.664Q72.6905 144.752 72.3945 144.827Q72.0985 144.901 71.7992 144.96Q71.4999 145.02 71.1981 145.065Q70.8962 145.109 70.5925 145.139Q70.2888 145.169 69.984 145.184Q69.6792 145.199 69.3741 145.199L46.2811 145.199Q45.976 145.199 45.6712 145.184Q45.3664 145.169 45.0627 145.139Q44.759 145.109 44.4571 145.065Q44.1553 145.02 43.856 144.96Q43.5567 144.901 43.2607 144.827Q42.9647 144.752 42.6726 144.664Q42.3806 144.575 42.0933 144.472Q41.806 144.37 41.524 144.253Q41.2421 144.136 40.9662 144.006Q40.6904 143.875 40.4213 143.731Q40.1521 143.587 39.8904 143.431Q39.6286 143.274 39.3749 143.104Q39.1212 142.935 38.8761 142.753Q38.631 142.571 38.3951 142.377Q38.1592 142.184 37.9331 141.979Q37.707 141.774 37.4912 141.558Q37.2754 141.342 37.0705 141.116Q36.8655 140.89 36.672 140.654Q36.4784 140.418 36.2966 140.173Q36.1148 139.928 35.9453 139.674Q35.7757 139.421 35.6188 139.159Q35.4619 138.897 35.3181 138.628Q35.1742 138.359 35.0438 138.083Q34.9133 137.807 34.7965 137.525Q34.6797 137.243 34.5769 136.956Q34.4741 136.669 34.3855 136.377Q34.297 136.085 34.2228 135.789Q34.1487 135.493 34.0891 135.193Q34.0296 134.894 33.9848 134.592Q33.94 134.29 33.9101 133.987Q33.8802 133.683 33.8652 133.378Q33.8503 133.073 33.8503 132.768L33.8503 132.766Q33.8503 132.461 33.8652 132.156Q33.8802 131.852 33.9101 131.548Q33.94 131.244 33.9848 130.942Q34.0296 130.64 34.0891 130.341Q34.1487 130.042 34.2228 129.746Q34.297 129.45 34.3855 129.158Q34.4741 128.866 34.5769 128.578Q34.6797 128.291 34.7965 128.009Q34.9133 127.727 35.0438 127.451Q35.1742 127.176 35.3181 126.906Q35.4619 126.637 35.6188 126.376Q35.7757 126.114 35.9453 125.86Q36.1148 125.606 36.2966 125.361Q36.4784 125.116 36.672 124.88Q36.8655 124.644 37.0705 124.418Q37.2754 124.192 37.4912 123.976Q37.707 123.761 37.9331 123.556Q38.1592 123.351 38.3951 123.157Q38.631 122.964 38.8761 122.782Q39.1212 122.6 39.3749 122.43Q39.6286 122.261 39.8904 122.104Q40.1521 121.947 40.4213 121.803Q40.6904 121.659 40.9662 121.529Q41.2421 121.398 41.524 121.282Q41.806 121.165 42.0933 121.062Q42.3806 120.959 42.6726 120.871Q42.9647 120.782 43.2607 120.708Q43.5567 120.634 43.856 120.574Q44.1553 120.515 44.4571 120.47Q44.759 120.425 45.0627 120.395Q45.3664 120.365 45.6712 120.35Q45.976 120.335 46.2811 120.335Z" id="Rectangle-Copy-8" fill="#1B2C61" fill-rule="evenodd" stroke="none" />
    <path d="M240.921 120.335L264.014 120.335Q264.319 120.335 264.624 120.35Q264.928 120.365 265.232 120.395Q265.536 120.425 265.838 120.47Q266.139 120.515 266.439 120.574Q266.738 120.634 267.034 120.708Q267.33 120.782 267.622 120.871Q267.914 120.959 268.201 121.062Q268.489 121.165 268.771 121.282Q269.053 121.398 269.328 121.529Q269.604 121.659 269.873 121.803Q270.143 121.947 270.404 122.104Q270.666 122.261 270.92 122.43Q271.173 122.6 271.419 122.782Q271.664 122.964 271.9 123.157Q272.136 123.351 272.362 123.556Q272.588 123.761 272.804 123.976Q273.019 124.192 273.224 124.418Q273.429 124.644 273.623 124.88Q273.816 125.116 273.998 125.361Q274.18 125.606 274.349 125.86Q274.519 126.114 274.676 126.376Q274.833 126.637 274.977 126.906Q275.12 127.176 275.251 127.451Q275.381 127.727 275.498 128.009Q275.615 128.291 275.718 128.578Q275.821 128.866 275.909 129.158Q275.998 129.45 276.072 129.746Q276.146 130.042 276.206 130.341Q276.265 130.64 276.31 130.942Q276.355 131.244 276.385 131.548Q276.415 131.852 276.429 132.156Q276.444 132.461 276.444 132.766L276.444 132.768Q276.444 133.073 276.429 133.378Q276.415 133.683 276.385 133.987Q276.355 134.29 276.31 134.592Q276.265 134.894 276.206 135.193Q276.146 135.493 276.072 135.789Q275.998 136.085 275.909 136.377Q275.821 136.669 275.718 136.956Q275.615 137.243 275.498 137.525Q275.381 137.807 275.251 138.083Q275.12 138.359 274.977 138.628Q274.833 138.897 274.676 139.159Q274.519 139.421 274.349 139.674Q274.18 139.928 273.998 140.173Q273.816 140.418 273.623 140.654Q273.429 140.89 273.224 141.116Q273.019 141.342 272.804 141.558Q272.588 141.774 272.362 141.979Q272.136 142.184 271.9 142.377Q271.664 142.571 271.419 142.753Q271.174 142.935 270.92 143.104Q270.666 143.274 270.404 143.431Q270.143 143.587 269.873 143.731Q269.604 143.875 269.328 144.006Q269.053 144.136 268.771 144.253Q268.489 144.37 268.201 144.472Q267.914 144.575 267.622 144.664Q267.33 144.752 267.034 144.827Q266.738 144.901 266.439 144.96Q266.139 145.02 265.838 145.065Q265.536 145.109 265.232 145.139Q264.928 145.169 264.624 145.184Q264.319 145.199 264.014 145.199L240.921 145.199Q240.615 145.199 240.311 145.184Q240.006 145.169 239.702 145.139Q239.399 145.109 239.097 145.065Q238.795 145.02 238.495 144.96Q238.196 144.901 237.9 144.827Q237.604 144.752 237.312 144.664Q237.02 144.575 236.733 144.472Q236.445 144.37 236.164 144.253Q235.882 144.136 235.606 144.006Q235.33 143.875 235.061 143.731Q234.792 143.587 234.53 143.431Q234.268 143.274 234.014 143.104Q233.761 142.935 233.516 142.753Q233.271 142.571 233.035 142.377Q232.799 142.184 232.573 141.979Q232.346 141.774 232.131 141.558Q231.915 141.342 231.71 141.116Q231.505 140.89 231.311 140.654Q231.118 140.418 230.936 140.173Q230.754 139.928 230.585 139.674Q230.415 139.421 230.258 139.159Q230.101 138.897 229.958 138.628Q229.814 138.359 229.683 138.083Q229.553 137.807 229.436 137.525Q229.319 137.243 229.216 136.956Q229.114 136.669 229.025 136.377Q228.936 136.085 228.862 135.789Q228.788 135.493 228.729 135.193Q228.669 134.894 228.624 134.592Q228.58 134.29 228.55 133.987Q228.52 133.683 228.505 133.378Q228.49 133.073 228.49 132.768L228.49 132.766Q228.49 132.461 228.505 132.156Q228.52 131.852 228.55 131.548Q228.58 131.244 228.624 130.942Q228.669 130.64 228.729 130.341Q228.788 130.042 228.862 129.746Q228.936 129.45 229.025 129.158Q229.114 128.866 229.216 128.578Q229.319 128.291 229.436 128.009Q229.553 127.727 229.683 127.451Q229.814 127.176 229.958 126.906Q230.101 126.637 230.258 126.376Q230.415 126.114 230.585 125.86Q230.754 125.606 230.936 125.361Q231.118 125.116 231.311 124.88Q231.505 124.644 231.71 124.418Q231.915 124.192 232.131 123.976Q232.346 123.761 232.573 123.556Q232.799 123.351 233.035 123.157Q233.27 122.964 233.516 122.782Q233.761 122.6 234.014 122.43Q234.268 122.261 234.53 122.104Q234.792 121.947 235.061 121.803Q235.33 121.659 235.606 121.529Q235.882 121.398 236.164 121.282Q236.445 121.165 236.733 121.062Q237.02 120.959 237.312 120.871Q237.604 120.782 237.9 120.708Q238.196 120.634 238.495 120.574Q238.795 120.515 239.097 120.47Q239.399 120.425 239.702 120.395Q240.006 120.365 240.311 120.35Q240.615 120.335 240.921 120.335Z" id="Rectangle-Copy-9" fill="#1B2C61" fill-rule="evenodd" stroke="none" />
    <path d="M46.2811 154.967L134.254 154.967Q134.559 154.967 134.864 154.982Q135.169 154.997 135.472 155.027Q135.776 155.057 136.078 155.101Q136.38 155.146 136.679 155.206Q136.978 155.265 137.274 155.339Q137.57 155.413 137.862 155.502Q138.154 155.591 138.442 155.693Q138.729 155.796 139.011 155.913Q139.293 156.03 139.569 156.16Q139.845 156.291 140.114 156.435Q140.383 156.578 140.645 156.735Q140.906 156.892 141.16 157.062Q141.414 157.231 141.659 157.413Q141.904 157.595 142.14 157.788Q142.376 157.982 142.602 158.187Q142.828 158.392 143.044 158.608Q143.26 158.823 143.465 159.05Q143.669 159.276 143.863 159.512Q144.057 159.747 144.238 159.993Q144.42 160.238 144.59 160.491Q144.759 160.745 144.916 161.007Q145.073 161.269 145.217 161.538Q145.361 161.807 145.491 162.083Q145.622 162.359 145.738 162.641Q145.855 162.922 145.958 163.21Q146.061 163.497 146.149 163.789Q146.238 164.081 146.312 164.377Q146.386 164.673 146.446 164.972Q146.505 165.272 146.55 165.574Q146.595 165.876 146.625 166.179Q146.655 166.483 146.67 166.788Q146.685 167.092 146.685 167.398L146.685 167.4Q146.685 167.705 146.67 168.01Q146.655 168.314 146.625 168.618Q146.595 168.922 146.55 169.224Q146.505 169.525 146.446 169.825Q146.386 170.124 146.312 170.42Q146.238 170.716 146.149 171.008Q146.061 171.3 145.958 171.587Q145.855 171.875 145.738 172.157Q145.622 172.439 145.491 172.715Q145.361 172.99 145.217 173.26Q145.073 173.529 144.916 173.79Q144.759 174.052 144.59 174.306Q144.42 174.56 144.238 174.805Q144.057 175.05 143.863 175.286Q143.669 175.522 143.465 175.748Q143.26 175.974 143.044 176.19Q142.828 176.405 142.602 176.61Q142.376 176.815 142.14 177.009Q141.904 177.202 141.659 177.384Q141.414 177.566 141.16 177.736Q140.906 177.905 140.645 178.062Q140.383 178.219 140.114 178.363Q139.845 178.506 139.569 178.637Q139.293 178.767 139.011 178.884Q138.729 179.001 138.442 179.104Q138.154 179.207 137.862 179.295Q137.57 179.384 137.274 179.458Q136.978 179.532 136.679 179.592Q136.38 179.651 136.078 179.696Q135.776 179.741 135.472 179.771Q135.169 179.801 134.864 179.816Q134.559 179.831 134.254 179.831L46.2811 179.831Q45.976 179.831 45.6712 179.816Q45.3664 179.801 45.0627 179.771Q44.759 179.741 44.4571 179.696Q44.1553 179.651 43.856 179.592Q43.5567 179.532 43.2607 179.458Q42.9647 179.384 42.6726 179.295Q42.3806 179.207 42.0933 179.104Q41.806 179.001 41.524 178.884Q41.2421 178.767 40.9663 178.637Q40.6904 178.507 40.4213 178.363Q40.1521 178.219 39.8904 178.062Q39.6286 177.905 39.3749 177.736Q39.1212 177.566 38.8761 177.384Q38.631 177.202 38.3951 177.009Q38.1592 176.815 37.9331 176.61Q37.707 176.405 37.4912 176.19Q37.2754 175.974 37.0705 175.748Q36.8655 175.522 36.672 175.286Q36.4784 175.05 36.2966 174.805Q36.1148 174.56 35.9453 174.306Q35.7757 174.052 35.6188 173.79Q35.4619 173.529 35.3181 173.26Q35.1742 172.99 35.0438 172.714Q34.9133 172.439 34.7965 172.157Q34.6797 171.875 34.5769 171.587Q34.4741 171.3 34.3855 171.008Q34.297 170.716 34.2228 170.42Q34.1487 170.124 34.0891 169.825Q34.0296 169.525 33.9848 169.224Q33.94 168.922 33.9101 168.618Q33.8802 168.314 33.8652 168.01Q33.8503 167.705 33.8503 167.4L33.8503 167.398Q33.8503 167.092 33.8652 166.788Q33.8802 166.483 33.9101 166.179Q33.94 165.876 33.9848 165.574Q34.0296 165.272 34.0891 164.972Q34.1487 164.673 34.2228 164.377Q34.297 164.081 34.3855 163.789Q34.4741 163.497 34.5769 163.21Q34.6797 162.922 34.7965 162.641Q34.9133 162.359 35.0438 162.083Q35.1742 161.807 35.3181 161.538Q35.4619 161.269 35.6188 161.007Q35.7757 160.745 35.9453 160.491Q36.1148 160.238 36.2966 159.993Q36.4784 159.747 36.672 159.512Q36.8655 159.276 37.0705 159.05Q37.2754 158.823 37.4912 158.608Q37.707 158.392 37.9331 158.187Q38.1592 157.982 38.3951 157.788Q38.631 157.595 38.8761 157.413Q39.1212 157.231 39.3749 157.062Q39.6286 156.892 39.8904 156.735Q40.1521 156.578 40.4213 156.435Q40.6904 156.291 40.9662 156.16Q41.2421 156.03 41.524 155.913Q41.806 155.796 42.0933 155.693Q42.3806 155.591 42.6726 155.502Q42.9647 155.413 43.2607 155.339Q43.5567 155.265 43.856 155.206Q44.1553 155.146 44.4571 155.101Q44.759 155.057 45.0627 155.027Q45.3664 154.997 45.6712 154.982Q45.976 154.967 46.2811 154.967Z" id="Rectangle-Copy-10" fill="#1B2C61" fill-rule="evenodd" stroke="none" />
    <path d="M14.4559 0L295.544 0Q295.899 0 296.253 0.0174128Q296.608 0.0348256 296.961 0.0696092Q297.314 0.104393 297.665 0.156463Q298.016 0.208534 298.364 0.277766Q298.712 0.346999 299.057 0.433226Q299.401 0.519453 299.74 0.622467Q300.08 0.725481 300.414 0.845034Q300.748 0.964587 301.076 1.10039Q301.404 1.23619 301.725 1.38792Q302.046 1.53965 302.359 1.70694Q302.672 1.87422 302.976 2.05666Q303.28 2.2391 303.575 2.43626Q303.87 2.63342 304.155 2.84482Q304.44 3.05621 304.715 3.28134Q304.989 3.50647 305.252 3.74479Q305.515 3.98311 305.766 4.23404Q306.017 4.48497 306.255 4.74792Q306.493 5.01086 306.719 5.28518Q306.944 5.5595 307.155 5.84454Q307.367 6.12957 307.564 6.42464Q307.761 6.7197 307.943 7.02409Q308.126 7.32847 308.293 7.64144Q308.46 7.95441 308.612 8.27521Q308.764 8.59601 308.9 8.92387Q309.035 9.25173 309.155 9.58586Q309.275 9.91999 309.378 10.2596Q309.481 10.5992 309.567 10.9434Q309.653 11.2877 309.722 11.6357Q309.791 11.9838 309.844 12.3348Q309.896 12.6858 309.93 13.039Q309.965 13.3922 309.983 13.7466Q310 14.101 310 14.4559L310 28.9138L0 28.9138L0 14.4559Q0 14.101 0.0174128 13.7466Q0.0348256 13.3922 0.0696092 13.039Q0.104393 12.6858 0.156463 12.3348Q0.208534 11.9838 0.277766 11.6357Q0.346999 11.2877 0.433226 10.9434Q0.519453 10.5992 0.622467 10.2596Q0.725481 9.91999 0.845034 9.58586Q0.964587 9.25173 1.10039 8.92388Q1.23619 8.59602 1.38792 8.27522Q1.53965 7.95441 1.70694 7.64144Q1.87422 7.32847 2.05666 7.02409Q2.2391 6.71971 2.43626 6.42464Q2.63342 6.12957 2.84482 5.84454Q3.05621 5.5595 3.28134 5.28518Q3.50647 5.01086 3.74479 4.74792Q3.98311 4.48497 4.23404 4.23404Q4.48497 3.98311 4.74792 3.74479Q5.01086 3.50647 5.28518 3.28134Q5.5595 3.05621 5.84454 2.84482Q6.12957 2.63342 6.42464 2.43626Q6.7197 2.2391 7.02409 2.05666Q7.32847 1.87422 7.64144 1.70694Q7.95441 1.53965 8.27521 1.38792Q8.59601 1.23619 8.92387 1.10039Q9.25173 0.964587 9.58586 0.845034Q9.91999 0.725481 10.2596 0.622467Q10.5992 0.519453 10.9434 0.433226Q11.2877 0.346999 11.6357 0.277766Q11.9838 0.208534 12.3348 0.156463Q12.6858 0.104393 13.039 0.0696092Q13.3922 0.0348256 13.7466 0.0174128Q14.101 0 14.4559 0L14.4559 0Z" id="Rectangle-7" fill="#525252" fill-rule="evenodd" stroke="none" />
    <path d="M9.87299 14.4569C9.87299 10.7568 12.8725 7.75732 16.5725 7.75732C20.2726 7.75732 23.2721 10.7568 23.2721 14.4569C23.2721 18.1569 20.2726 21.1564 16.5725 21.1564C12.8725 21.1564 9.87299 18.1569 9.87299 14.4569Z" id="Ellipse-10" fill="#CB0C0C" fill-rule="evenodd" stroke="none" />
    <path d="M29.619 14.4569C29.619 10.7568 32.6185 7.75732 36.3186 7.75732C40.0186 7.75732 43.0181 10.7568 43.0181 14.4569C43.0181 18.1569 40.0186 21.1564 36.3186 21.1564C32.6185 21.1564 29.619 18.1569 29.619 14.4569Z" id="Ellipse-10-Copy" fill="#C8D608" fill-rule="evenodd" stroke="none" />
    <path d="M49.3651 14.4569C49.3651 10.7568 52.3645 7.75732 56.0646 7.75732C59.7647 7.75732 62.7641 10.7568 62.7641 14.4569C62.7641 18.1569 59.7647 21.1564 56.0646 21.1564C52.3645 21.1564 49.3651 18.1569 49.3651 14.4569Z" id="Ellipse-10-Copy-2" fill="#68BB09" fill-rule="evenodd" stroke="none" />
  </g>
</svg>